<?xml version="1.0" encoding="UTF-8"?>
<svg width="24px" height="16px" viewBox="0 0 24 16" version="1.1" xmlns="http://www.w3.org/2000/svg" xmlns:xlink="http://www.w3.org/1999/xlink">
    <title>Shape</title>
    <g id="Page-1" stroke="none" stroke-width="1" fill="none" fill-rule="evenodd">
        <g id="Book-a-table" transform="translate(-277.000000, -682.000000)" fill="#A66D03" fill-rule="nonzero">
            <g id="book" transform="translate(145.000000, 187.000000)">
                <g id="form" transform="translate(130.000000, 237.000000)">
                    <g id="mail" transform="translate(2.000000, 257.000000)">
                        <g id="contact" transform="translate(0.000000, 1.000000)">
                            <path d="M21.1428571,0 L2.85714286,0 C1.27946427,0.000523211843 0.000714285714,1.24957762 0,2.79040363 L0,13.2095964 C0.000714285714,14.7504224 1.27946427,15.9996512 2.85714286,16 L21.1428571,16 C22.7205357,15.9996512 23.9992857,14.7504224 24,13.2095964 L24,2.79040363 C23.9992857,1.24957762 22.7205357,0.000523211843 21.1428571,0 Z M2.85714286,1.11616145 L21.1428571,1.11616145 C21.9658928,1.11825426 22.6721429,1.68871741 22.8285714,2.47770399 L12,8.3712109 L1.17142857,2.47770399 C1.32785714,1.68871741 2.03410715,1.11825426 2.85714286,1.11616145 Z M21.1428571,14.8784322 L2.85714286,14.8784322 C1.91160713,14.8756418 1.14553573,14.1276392 1.14285714,13.20419 L1.14285714,3.73914087 L11.72,9.49835953 C11.8057143,9.54440119 11.9019643,9.56951483 12,9.57108446 C12.0983929,9.57213084 12.195,9.54701721 12.28,9.49835953 L22.8571429,3.73914087 L22.8571429,13.20419 C22.8564286,14.1285112 22.0892857,14.8775602 21.1428571,14.8784322 Z" id="Shape"></path>
                        </g>
                    </g>
                </g>
            </g>
        </g>
    </g>
</svg>