<?xml version="1.0" encoding="UTF-8"?>
<svg width="16px" height="27px" viewBox="0 0 16 27" version="1.1" xmlns="http://www.w3.org/2000/svg" xmlns:xlink="http://www.w3.org/1999/xlink">
    <title>mobile-phone</title>
    <g id="Page-1" stroke="none" stroke-width="1" fill="none" fill-rule="evenodd">
        <g id="Book-a-table" transform="translate(-281.000000, -628.000000)" fill="#A66D03" fill-rule="nonzero">
            <g id="book" transform="translate(145.000000, 187.000000)">
                <g id="form" transform="translate(130.000000, 237.000000)">
                    <g id="mobile-phone" transform="translate(6.000000, 204.000000)">
                        <path d="M13.9661017,0 L2.03389831,0 C0.912379661,0 0,0.887097656 0,1.97753906 L0,25.0224609 C0,26.1129023 0.912379661,27 2.03389831,27 L13.9661017,27 C15.0876203,27 16,26.1129023 16,25.0224609 L16,1.97753906 C16,0.887097656 15.0876203,0 13.9661017,0 Z M15.1864407,21.4628906 L3.66101695,21.4628906 C3.4363661,21.4628906 3.25423729,21.6399727 3.25423729,21.8583984 C3.25423729,22.0768242 3.4363661,22.2539062 3.66101695,22.2539062 L15.1864407,22.2539062 L15.1864407,25.0224609 C15.1864407,25.6767363 14.6390237,26.2089844 13.9661017,26.2089844 L2.03389831,26.2089844 C1.36097627,26.2089844 0.813559322,25.6767363 0.813559322,25.0224609 L0.813559322,22.2539062 L2.03389831,22.2539062 C2.25854915,22.2539062 2.44067797,22.0768242 2.44067797,21.8583984 C2.44067797,21.6399727 2.25854915,21.4628906 2.03389831,21.4628906 L0.813559322,21.4628906 L0.813559322,3.95507812 L15.1864407,3.95507812 L15.1864407,21.4628906 Z M15.1864407,3.1640625 L0.813559322,3.1640625 L0.813559322,1.97753906 C0.813559322,1.32326367 1.36097627,0.791015625 2.03389831,0.791015625 L13.9661017,0.791015625 C14.6390237,0.791015625 15.1864407,1.32326367 15.1864407,1.97753906 L15.1864407,3.1640625 Z" id="Shape"></path>
                        <path d="M9.66666667,1 L8.33333333,1 C8.14924444,1 8,1.22386667 8,1.5 C8,1.77613333 8.14924444,2 8.33333333,2 L9.66666667,2 C9.85075556,2 10,1.77613333 10,1.5 C10,1.22386667 9.85075556,1 9.66666667,1 Z" id="Path"></path>
                        <path d="M9,23 C8.44857778,23 8,23.4485778 8,24 C8,24.5514222 8.44857778,25 9,25 C9.55142222,25 10,24.5514222 10,24 C10,23.4485778 9.55142222,23 9,23 Z M9,24.3333333 C8.81617778,24.3333333 8.66666667,24.1838222 8.66666667,24 C8.66666667,23.8161778 8.81617778,23.6666667 9,23.6666667 C9.18382222,23.6666667 9.33333333,23.8161778 9.33333333,24 C9.33333333,24.1838222 9.18382222,24.3333333 9,24.3333333 Z" id="Shape"></path>
                        <circle id="Oval" cx="5.5" cy="1.5" r="1"></circle>
                    </g>
                </g>
            </g>
        </g>
    </g>
</svg>