<?xml version="1.0" encoding="UTF-8"?>
<svg width="48px" height="48px" viewBox="0 0 48 48" version="1.1" xmlns="http://www.w3.org/2000/svg" xmlns:xlink="http://www.w3.org/1999/xlink">
    <title>plane</title>
    <g id="Page-1" stroke="none" stroke-width="1" fill="none" fill-rule="evenodd">
        <g id="Book-a-table---confirmation" transform="translate(-734.000000, -398.000000)" fill="#A66D03" fill-rule="nonzero">
            <g id="plane" transform="translate(734.000000, 398.000000)">
                <path d="M47.5263433,0.121075324 C47.2335118,-0.0429006124 46.8733637,-0.040136973 46.5832549,0.128260787 L29.3782046,10.1108947 C28.9318689,10.3698477 28.7839979,10.9347356 29.0479124,11.3726803 C29.3117331,11.8105329 29.8874442,11.955624 30.3338739,11.6967631 L42.6782397,4.53442318 L19.6849078,27.9436463 L8.2487986,24.5106535 L23.1734432,15.8512501 C23.6197789,15.592205 23.7676499,15.0273171 23.5037354,14.5893723 C23.2399147,14.1515197 22.6641097,14.0062444 22.2177739,14.2652896 L5.46103103,23.9876808 C5.14087856,24.1734895 4.96258837,24.5271432 5.00662107,24.8896406 C5.05065377,25.2521379 5.30855959,25.5548486 5.66420111,25.6616172 L19.3217554,29.7613841 L25.3471001,40.522351 C25.3533904,40.5334977 25.3598686,40.542894 25.3665345,40.5512771 C25.4670868,40.7158058 25.6177744,40.8502107 25.8057349,40.9277769 C25.9233745,40.9763248 26.0470228,41 26.1698262,41 C26.4104569,41 26.6473322,40.9091684 26.8261857,40.7375464 L33.7544355,34.0937573 L46.786425,38.005781 C46.8765559,38.0327725 46.9690339,38.0461301 47.0610426,38.0461301 C47.2597061,38.0461301 47.4559286,37.9842246 47.6194786,37.8654802 C47.8587949,37.6917394 48,37.4169415 48,37.124917 L48,0.921241047 C48,0.590433413 47.8191749,0.28495914 47.5263433,0.121075324 Z M25.3982681,30.3291277 C25.2895477,30.4832467 25.2312443,30.6661996 25.2312443,30.8536665 L25.2312443,36.4888193 L21.1168625,29.1407628 L39.3233985,10.6050334 L25.3982681,30.3291277 Z M27.1089714,37.890353 L27.1089714,32.0989624 L31.708464,33.4796766 L27.1089714,37.890353 Z M46.1222729,35.8797132 L27.6736978,30.3417484 L46.1222729,4.2103404 L46.1222729,35.8797132 Z" id="Shape"></path>
                <path d="M15.715787,32.2842148 C15.3367394,31.9052617 14.7224609,31.9052617 14.3433162,32.2842148 L5.28421296,41.343378 C4.90526235,41.7223312 4.90526235,42.3368078 5.28421296,42.7158579 C5.47383384,42.905286 5.72216537,43 5.9704969,43 C6.21882843,43 6.46715997,42.905286 6.6566838,42.7157609 L15.715787,33.6565977 C16.0947377,33.2777416 16.0947377,32.663265 15.715787,32.2842148 Z" id="Path"></path>
                <path d="M3.72755497,44.2722962 C3.36420191,43.9092191 2.77535785,43.9092191 2.41200479,44.2723893 L0.272445028,46.4119677 C-0.0908150095,46.7752309 -0.0908150095,47.3642661 0.272445028,47.7276224 C0.45412156,47.9092075 0.692170839,48 0.930220119,48 C1.1682694,48 1.40631868,47.9091144 1.58799521,47.7275293 L3.72755497,45.5879509 C4.09081501,45.2246877 4.09081501,44.6356525 3.72755497,44.2722962 Z" id="Path"></path>
                <path d="M13.7069,46.293 C13.521,46.107 13.263,46 13,46 C12.7359,46 12.479,46.107 12.293,46.293 C12.107,46.479 12,46.736 12,47 C12,47.263 12.1069,47.521 12.293,47.707 C12.479,47.893 12.737,48 13,48 C13.263,48 13.521,47.893 13.7069,47.707 C13.8929,47.521 14,47.263 14,47 C14,46.736 13.893,46.479 13.7069,46.293 Z" id="Path"></path>
                <path d="M20.7047865,39.2952167 C20.3113701,38.9015944 19.6733158,38.9015944 19.2792946,39.2952167 L14.2952135,44.2792508 C13.9015955,44.672873 13.9015955,45.3111358 14.2952135,45.7047581 C14.4920729,45.9016196 14.7500162,46 15.0079595,46 C15.2659028,46 15.523846,45.9015188 15.7207054,45.7047581 L20.7047865,40.720724 C21.0984045,40.3271018 21.0984045,39.688839 20.7047865,39.2952167 Z" id="Path"></path>
                <path d="M36.705355,38.2945674 C36.3123945,37.9018109 35.675569,37.9018109 35.2826084,38.2945674 L30.294645,43.282495 C29.901785,43.6753521 29.901785,44.3123742 30.294645,44.705332 C30.4911253,44.9017103 30.7485718,45 31.0060183,45 C31.2634648,45 31.5209113,44.9017103 31.7173916,44.705332 L36.705355,39.7174044 C37.098215,39.3245473 37.098215,38.6875252 36.705355,38.2945674 Z" id="Path"></path>
                <path d="M26.707,12.293 C26.521,12.107 26.263,12 26,12 C25.737,12 25.479,12.107 25.293,12.293 C25.1071,12.479 25,12.737 25,13.001 C25,13.264 25.107,13.521 25.293,13.707 C25.479,13.894 25.737,14 26,14 C26.263,14 26.521,13.894 26.707,13.707 C26.8929,13.521 27,13.264 27,13.001 C27,12.737 26.893,12.479 26.707,12.293 Z" id="Path"></path>
            </g>
        </g>
    </g>
</svg>