<?xml version="1.0" encoding="UTF-8"?>
<svg width="22px" height="22px" viewBox="0 0 22 22" version="1.1" xmlns="http://www.w3.org/2000/svg" xmlns:xlink="http://www.w3.org/1999/xlink">
    <title>clock</title>
    <g id="Page-1" stroke="none" stroke-width="1" fill="none" fill-rule="evenodd">
        <g id="Book-a-table" transform="translate(-278.000000, -531.000000)" fill="#A66D03" fill-rule="nonzero">
            <g id="book" transform="translate(145.000000, 187.000000)">
                <g id="form" transform="translate(130.000000, 237.000000)">
                    <g id="clock" transform="translate(3.000000, 107.000000)">
                        <path d="M11,0 C4.93470312,0 0,4.93470312 0,11 C0,17.0652969 4.93470312,22 11,22 C17.0652969,22 22,17.0652969 22,11 C22,4.93470312 17.0652969,0 11,0 Z M11.4583477,21.0601016 L11.4583477,19.7083047 C11.4583477,19.4549609 11.2533437,19.249957 11,19.249957 C10.7466562,19.249957 10.5416523,19.4549609 10.5416523,19.7083047 L10.5416523,21.0601016 C5.34810547,20.8249336 1.17502344,16.6518945 0.939855469,11.4583047 L2.29165234,11.4583047 C2.54499609,11.4583477 2.75,11.2533438 2.75,11 C2.75,10.7466563 2.54499609,10.5416523 2.29165234,10.5416523 L0.939855469,10.5416523 C1.17502344,5.34810547 5.3480625,1.17502344 10.5416523,0.939855469 L10.5416523,2.29165234 C10.5416523,2.54499609 10.7466563,2.75 11,2.75 C11.2533437,2.75 11.4583477,2.54499609 11.4583477,2.29165234 L11.4583477,0.939855469 C16.6518945,1.17502344 20.8249766,5.3480625 21.0601445,10.5416523 L19.7083477,10.5416523 C19.4550039,10.5416523 19.25,10.7466563 19.25,11 C19.25,11.2533438 19.4550039,11.4583477 19.7083477,11.4583477 L21.0601445,11.4583477 C20.8249766,16.6518945 16.6518945,20.8249766 11.4583477,21.0601016 Z" id="Shape"></path>
                        <path d="M9.95065244,10.609257 C9.97132427,10.5353913 9.99996484,10.4640787 9.99996484,10.3843281 C9.99996484,10.1911177 9.92037125,10.0216206 9.80998084,9.8732402 L12.9530841,3.65597783 C13.0698026,3.42520721 12.9618966,3.15021242 12.711397,3.04250792 C12.4618819,2.93653432 12.1640387,3.03528147 12.0468515,3.26561936 L8.90599823,9.47877088 C8.40087422,9.52476922 8,9.90621361 8,10.3843281 C8,10.8932091 8.4487335,11.3074538 8.99998242,11.3074538 C9.086326,11.3074538 9.16362273,11.2810145 9.2436382,11.2619315 L13.1464431,14.8647744 C13.2440835,14.9549104 13.372052,15 13.4999736,15 C13.6278953,15 13.7558169,14.9549104 13.8535042,14.8647744 C14.0488319,14.6844592 14.0488319,14.3923718 13.8535042,14.2120999 L9.95065244,10.609257 Z" id="Path"></path>
                    </g>
                </g>
            </g>
        </g>
    </g>
</svg>