<?xml version="1.0" encoding="UTF-8"?>
<svg width="56px" height="56px" viewBox="0 0 56 56" version="1.1" xmlns="http://www.w3.org/2000/svg" xmlns:xlink="http://www.w3.org/1999/xlink">
    <title>icon</title>
    <g id="Page-1" stroke="none" stroke-width="1" fill="none" fill-rule="evenodd">
        <g id="Homepage---pool---HOVER" transform="translate(-545.000000, -706.000000)" fill="#A66D03" fill-rule="nonzero">
            <g id="hover" transform="translate(498.000000, 211.000000)">
                <g id="icon" transform="translate(47.000000, 495.000000)">
                    <path d="M49.3290314,32.2810393 C48.8473987,31.9922371 48.2235116,32.1491173 47.9354465,32.6319823 C47.6471273,33.1148473 47.8038612,33.7405854 48.2854939,34.0293876 C51.9500685,36.228257 53.9680485,38.9657654 53.9680485,41.737655 C53.9680485,44.8727121 51.4699599,47.8761019 46.9335692,50.1944142 C42.1799865,52.6240198 35.8369651,53.9620856 29.0735311,53.9620856 C22.3100972,53.9620856 15.9670758,52.6240198 11.2134931,50.1944142 C6.67735637,47.8758472 4.17901373,44.8727121 4.17901373,41.737655 C4.17901373,40.6275239 4.50111831,39.5168835 5.13643655,38.4370588 C5.24922396,38.245288 5.29621871,38.0216828 5.27030809,37.8006244 C4.88901553,34.5461244 5.05311613,28.3809366 10.4366825,23.6584863 C15.415586,19.2910538 16.7812281,15.5697334 17.0499873,13.2172946 C17.1607425,12.2492725 16.8686129,11.2751382 16.2487903,10.5447285 C15.6261733,9.81075327 14.7485145,9.38162482 13.7776284,9.33578321 C11.7652369,9.23926114 8.96765197,9.61694511 7.07744683,11.9495193 C6.12459648,13.1253567 5.69605514,14.7453484 5.90156192,16.3936091 L6.1416162,18.3187022 C4.25801572,17.5681731 3.05596617,16.0958933 2.38889471,15.0193794 C2.61294537,14.3508558 2.93733617,13.7027063 3.35622453,13.0879194 C4.61238156,11.2438131 6.71977866,7.68268366 6.71977866,4.55526685 C6.71977866,4.20534252 6.84679151,3.93385829 7.13180833,3.67510785 C8.59398019,2.34748376 13.2025142,2.25809261 15.7638552,2.51302292 C15.9543745,2.53161424 16.147434,2.49672368 16.3191554,2.41064331 L16.6034101,2.26802496 C17.3355122,1.90154672 18.1964052,1.97896811 18.8507754,2.47125612 L20.4143035,3.64683885 L20.2265785,3.83504415 C19.8841519,4.1783469 19.8310605,4.71622185 20.0995657,5.12039208 C20.1371615,5.17693007 23.8098649,10.8651104 20.0164993,19.4222118 C18.4834542,22.8801976 17.4775125,26.3106784 17.0263629,29.6181509 C16.9808923,29.9515213 17.1025706,30.2859104 17.3512617,30.5118077 C17.6002069,30.7371956 17.9441577,30.8260774 18.2705807,30.7466186 C21.6638558,29.9283458 25.2987094,29.5134792 29.0737852,29.5134792 C34.1545529,29.5134792 39.0496279,30.2762327 43.2298747,31.7197342 C43.7600263,31.9025913 44.3386968,31.6199014 44.5213412,31.0883933 C44.7039857,30.5563759 44.4220172,29.9767342 43.8913575,29.7933677 C39.5007776,28.2775383 34.3768254,27.4760741 29.0735311,27.4760741 C25.68051,27.4760741 22.3918935,27.7987481 19.2749983,28.4364559 C19.7721265,25.7705114 20.6434347,23.0235799 21.873173,20.2496529 C25.343672,12.4209239 23.2004572,6.70014505 22.2074708,4.72997433 L22.6791965,4.25704168 C22.8874976,4.04846233 22.9952045,3.75915081 22.9741203,3.46474577 C22.9532902,3.17008606 22.8059553,2.89911118 22.5702195,2.72185694 L20.0693366,0.841332045 C18.7953978,-0.116503022 17.1188282,-0.26778035 15.6937441,0.445566107 L15.6678335,0.45880924 C14.1266597,0.329434017 8.1639147,-0.00979393032 5.76769039,2.1641173 C5.06048287,2.8058999 4.68655706,3.63283169 4.68655706,4.55552152 C4.68655706,7.13564039 2.80092438,10.2890341 1.67711474,11.9390776 C1.04738506,12.8638048 0.585820382,13.854493 0.305884074,14.8841466 C0.163121638,15.4082691 0.078277058,15.8567529 0.0383950251,16.2960683 C-0.151108138,18.388738 0.3615157,20.1179856 1.5620411,21.435932 C3.39788474,23.4511803 6.28691889,23.8252988 7.33883926,23.8948253 C3.12937959,28.7453775 2.88170455,34.3879709 3.21524028,37.703593 C2.50600056,39.0093149 2.14655421,40.3646987 2.14655421,41.7381644 C2.14655421,45.6779965 5.03863666,49.3259703 10.2903637,52.0099968 C15.3243908,54.5832394 21.9951053,56 29.0732771,56 C36.1514489,56 42.8224175,54.5832394 47.8561905,52.0099968 C53.1076635,49.3259703 56,45.6779965 56,41.7381644 C56,38.2208392 53.6309564,34.8626862 49.3290314,32.2810393 L49.3290314,32.2810393 Z M8.6544383,13.2341032 C10.0096653,11.5621576 12.1348442,11.298823 13.6821147,11.3706415 C14.0847454,11.3897422 14.446732,11.5652137 14.7007577,11.8647123 C14.961134,12.1715964 15.0784939,12.5696544 15.0309911,12.9852851 C14.8031301,14.9806687 13.5886333,18.1862709 9.09872923,22.1248296 C8.96460367,22.2424898 8.83682874,22.3614233 8.70829175,22.4806115 L8.34655917,19.579092 L7.91776381,16.1407162 C7.78058993,15.0405175 8.04909509,13.9810668 8.6544383,13.2341032 L8.6544383,13.2341032 Z M3.06282486,20.0614476 C2.53572156,19.4828246 2.2166653,18.7829759 2.09295479,17.9484039 C3.11896454,19.0259365 4.53337957,20.0586462 6.41901225,20.5476234 L6.56863338,21.7479097 C5.53220857,21.5675993 4.0352352,21.1285385 3.06282486,20.0614476 Z" id="Shape"></path>
                    <circle id="Oval" cx="10" cy="8" r="1"></circle>
                    <path d="M16.5051618,37.1335586 C16.0458002,36.8777963 15.4398652,37.0004578 15.1508921,37.4067195 C14.8621645,37.8134163 15,38.3503864 15.459261,38.6063661 C19.2726253,40.7314108 25.5566234,42 32.269048,42 C37.0529395,42 41.6993417,41.3532 45.3526292,40.1787817 C45.8625672,40.0150156 46.125761,39.5158878 45.940887,39.0643892 C45.756013,38.6128906 45.1932889,38.3788769 44.6826143,38.5432955 C41.2387525,39.6502935 36.8302559,40.260121 32.269048,40.260121 C25.9113949,40.260121 20.0185048,39.0913574 16.5051618,37.1335586 L16.5051618,37.1335586 Z" id="Path"></path>
                </g>
            </g>
        </g>
    </g>
</svg>