<?xml version="1.0" encoding="UTF-8"?>
<svg width="31px" height="57px" viewBox="0 0 31 57" version="1.1" xmlns="http://www.w3.org/2000/svg" xmlns:xlink="http://www.w3.org/1999/xlink">
    <title>Shape</title>
    <g id="Page-1" stroke="none" stroke-width="1" fill="none" fill-rule="evenodd">
        <g id="Homepage---restaurant---HOVER" transform="translate(-545.000000, -719.000000)" fill="#A66D03" fill-rule="nonzero">
            <g id="hover" transform="translate(497.000000, 211.000000)">
                <g id="icon" transform="translate(48.000000, 508.000000)">
                    <path d="M31,39.0701099 L31,34.3390207 C31,32.9843559 30.8394636,31.7772422 30.4882431,30.4688679 C30.2533065,29.5934656 29.929865,28.7591239 29.5366531,27.9478162 C28.4975271,25.8036536 26.9559038,23.9633838 25.0572459,22.5872429 C25.7750837,21.1254202 27.1002897,19.1999135 29.4693591,17.7484393 C29.9755172,17.4383152 30.2460926,16.8483339 30.1586643,16.2455559 C30.0710207,15.6414427 29.6440003,15.1583969 29.0705484,15.0149631 C28.1542742,14.7857361 26.7805089,14.5508341 25.2224121,14.644194 C25.971582,13.2302196 27.2705164,11.4752978 29.4693591,10.1280885 C29.9755172,9.81785318 30.2460926,9.22787188 30.1585567,8.62509393 C30.070913,8.02098067 29.6438927,7.53804614 29.0705484,7.39461236 C28.4062226,7.22847843 27.5012538,7.05934007 26.4601898,7.01438488 C26.4920602,6.56038191 26.5076724,6.08991021 26.4999201,5.6114267 C26.4924909,5.15553205 26.1325491,4.79121693 25.6931466,4.79121693 C25.6885168,4.79121693 25.683887,4.79121693 25.6792571,4.79132821 C25.2335021,4.79911747 24.8782978,5.17878858 24.8857271,5.63935678 C24.893587,6.12140111 24.8735603,6.59632381 24.8363064,7.05366504 C23.5332805,7.1765129 22.121077,7.53904762 20.7500035,8.32821159 C20.7244856,8.34289993 20.6987524,8.3443465 20.6730192,8.33232878 C20.6403951,8.31686152 20.6353346,8.29171332 20.6330735,8.28080834 C20.4665076,7.45303186 20.1307916,6.25248333 19.4622668,4.96491757 C21.2009267,2.45643992 23.1266098,1.84075404 23.9750518,1.69209032 C24.0535434,1.83352115 24.1269745,1.97962553 24.1927611,2.12584119 L24.2305534,2.21185695 C24.4149926,2.63114204 24.8930487,2.81686041 25.2993964,2.62602338 C25.7052057,2.4354089 25.8846921,1.94090175 25.7002529,1.52139411 L25.6593381,1.42847929 C25.5390704,1.16164127 25.4041595,0.902703794 25.258374,0.659011026 C24.982415,0.19733007 24.4654899,-0.0569338452 23.9417816,0.0108327737 C23.2711034,0.0977387334 21.9256554,0.411423625 20.4498187,1.53608244 C19.7546993,2.06575256 19.1171835,2.71059256 18.5366253,3.46158913 C17.9704949,2.67798892 17.2640701,1.90217797 16.3803123,1.19502384 C15.8620952,0.780301034 15.1380125,0.780301034 14.6197954,1.19502384 C13.7901958,1.85878062 13.1161797,2.58307114 12.5683533,3.31759897 C12.0179427,2.62735868 11.4167118,2.03214744 10.7659526,1.53619371 C9.2900082,0.4115349 7.94456022,0.0978500086 7.27398964,0.010944049 C6.75028133,-0.05682257 6.23346393,0.19755262 5.95750497,0.658899751 C4.80295642,2.58941383 4.61098029,4.96491757 4.75288973,7.00648434 C3.62213632,7.03597227 2.6388912,7.21701708 1.92966699,7.39450109 C1.35632268,7.53793487 0.929302297,8.02086939 0.841658678,8.62498265 C0.75412273,9.22776061 1.02469818,9.81774191 1.53096389,10.1279773 C3.72991428,11.4752978 5.02927937,13.2306647 5.7783416,14.644194 C4.22002945,14.5506115 2.84604885,14.7856248 1.92955932,15.0148518 C1.35621501,15.1583969 0.929194626,15.6414427 0.841551008,16.2454447 C0.75412273,16.8482226 1.02469818,17.4380926 1.53085622,17.7482167 C3.90046402,19.200136 5.22556232,21.1260878 5.94307715,22.5875768 C4.0650919,23.948918 2.5348817,25.7654862 1.49575571,27.8808285 C1.31185485,28.2542682 1.14550424,28.6342731 0.995088845,29.0196193 C0.977000236,29.066021 0.958803957,29.1123115 0.941146029,29.1588246 C0.549979855,30.1924602 0.278758388,31.2655986 0.131465427,32.3671122 C0.0440371497,33.0212993 0,33.6762653 0,34.3389094 L0,38.868813 L0,42.6505019 C0,43.4260903 0.0625564401,44.2154768 0.185085233,44.982497 C0.329363425,45.8857181 0.559777852,46.7790357 0.869868295,47.6376354 C1.02588255,48.0692721 1.49112588,48.2887068 1.90845594,48.1273577 C2.326109,47.9662312 2.53821948,47.4857447 2.3823129,47.0541081 C2.32298657,46.8899771 2.26764404,46.7240657 2.21499326,46.5572642 C2.58311799,46.6703198 3.00077106,46.739533 3.47871949,46.739533 C5.33366329,46.739533 6.30560302,45.7106822 7.08642799,44.8839072 C7.80049737,44.1280145 8.36447436,43.5309116 9.54023396,43.5309116 C10.7159936,43.5309116 11.2800782,44.1280145 11.9940399,44.8839072 C12.7749726,45.7105709 13.7468046,46.739533 15.6018561,46.739533 C17.458415,46.739533 18.4307854,45.7103483 19.2119333,44.8833508 C19.9258951,44.1277919 20.4897644,43.5309116 21.6645549,43.5309116 C22.8411759,43.5309116 23.4052606,44.1281258 24.119653,44.884241 C24.9006933,45.7107934 25.8725253,46.739533 27.7272538,46.739533 C28.0923637,46.739533 28.4356166,46.6998077 28.7631497,46.6202459 C28.2925228,48.0811785 27.5638103,49.4461919 26.6176037,50.64496 C26.1050932,50.4018236 25.7133886,49.9886586 25.2751705,49.5248634 C24.4940226,48.6979772 23.5216521,47.6689038 21.6645549,47.6689038 C19.8098265,47.6689038 18.8378867,48.6971982 18.0570618,49.5235281 C17.3426694,50.2794208 16.7784771,50.8764125 15.6018561,50.8764125 C14.4268502,50.8764125 13.8630885,50.2797546 13.1492345,49.5243071 C12.3680865,48.6976433 11.3960391,47.6689038 9.54034163,47.6689038 C7.68389044,47.6689038 6.71195071,48.6978659 5.9309104,49.5246409 C5.45210061,50.0314996 5.02647995,50.4814967 4.43364731,50.7116138 C4.31294892,50.5611697 4.19451159,50.4083888 4.08027341,50.251602 C3.81217438,49.8836148 3.30590867,49.8099506 2.94995068,50.0871372 C2.59388502,50.3643238 2.52260729,50.8873174 2.79081399,51.2553046 C5.41247794,54.8524992 9.55972228,57 13.8846226,57 L17.1153774,57 C20.3753109,57 23.5492157,55.7970034 26.0521194,53.6125593 C26.5587081,53.1704627 27.0313807,52.693092 27.4686297,52.1864558 C27.4786431,52.1754396 27.4884411,52.1643121 27.4978084,52.1527394 C29.2418518,50.1189619 30.4176114,47.5641938 30.8282659,44.8999308 C30.9454112,44.1399209 31,43.4302075 31,42.6506132 C31,42.6507244 31,39.0702212 31,39.0701099 L31,39.0701099 Z M1.61440837,34.7036696 C2.11927437,34.9574884 2.72491977,35.1270719 3.47882716,35.1270719 C5.33377096,35.1270719 6.30571069,34.098221 7.08653566,33.2715573 C7.80060504,32.5156646 8.36458203,31.9184504 9.54034163,31.9184504 C9.81447019,31.9184504 10.0595278,31.9497188 10.2894039,32.0139246 C10.7198697,32.1345469 11.1629329,31.8711585 11.2793245,31.4265026 C11.3957161,30.9817355 11.1411835,30.5237266 10.710933,30.4035494 C10.3468998,30.3017325 9.95304186,30.2502121 9.5404493,30.2502121 C7.68453646,30.2502121 6.71248906,31.2792855 5.93144876,32.1061718 C5.21770239,32.8618419 4.65383306,33.4588335 3.47893483,33.4588335 C2.70790786,33.4588335 2.19765834,33.20635 1.70797385,32.7828365 C1.71012726,32.7651437 1.71228067,32.7475622 1.71443407,32.7298695 C1.72993859,32.604351 1.74684283,32.4792776 1.76590047,32.3545381 C1.76783854,32.341964 1.76945359,32.3293899 1.77139166,32.3168158 C1.79227969,32.183063 1.81575182,32.0499778 1.84083899,31.9172264 C1.84665319,31.8861806 1.85268273,31.8551348 1.85881993,31.824089 C1.88498381,31.6905588 1.91254741,31.5574736 1.94291043,31.425056 C1.94344878,31.4227193 1.94409481,31.4203825 1.94463316,31.4180457 C1.9745655,31.2877424 2.00729727,31.158218 2.04132108,31.0290275 C2.04939635,30.9982042 2.05757929,30.9674923 2.06586991,30.9367803 C2.10097042,30.8075898 2.13757832,30.6789556 2.17666264,30.5509891 C2.1815078,30.5350767 2.18678365,30.5192756 2.19173648,30.5033633 C2.22780603,30.3870806 2.26570597,30.2713544 2.3051133,30.1561845 C2.31501896,30.1271417 2.32481696,30.0980988 2.33493797,30.0691673 C2.37886745,29.9437601 2.42441198,29.818798 2.47232526,29.6946148 C2.48115423,29.6718034 2.49041387,29.6491033 2.49935051,29.6264031 C2.54231095,29.5169083 2.58677878,29.4078586 2.632754,29.2994765 C2.63986024,29.2826739 2.64685881,29.2657601 2.65407272,29.2488462 C2.91646522,29.2979186 3.1901631,29.3220653 3.47893483,29.3220653 C5.33387863,29.3220653 6.30581836,28.2932145 7.08664333,27.4664395 C7.80071271,26.7105468 8.3646897,26.1134439 9.5404493,26.1134439 C10.7162089,26.1134439 11.2802936,26.7105468 11.9942553,27.4664395 C12.7751879,28.2931032 13.74702,29.3220653 15.6020714,29.3220653 C17.4586303,29.3220653 18.4310007,28.2928807 19.2121487,27.4658831 C19.9261104,26.7103243 20.4899797,26.1134439 21.6647703,26.1134439 C22.8413912,26.1134439 23.4054759,26.7106581 24.1198683,27.4667733 C24.9009086,28.2933258 25.8727407,29.3220653 27.7274691,29.3220653 C27.9466858,29.3220653 28.1565352,29.3081559 28.3596014,29.2801146 C28.3641236,29.290797 28.3684304,29.301702 28.3730602,29.3123844 C28.4232346,29.4310038 28.4712555,29.5502909 28.5177691,29.6703568 C28.9156108,30.6983175 29.1819871,31.7830285 29.3046236,32.8837631 C29.3066693,32.9017897 29.3086074,32.9198163 29.3105454,32.9379542 C28.8909543,33.2585381 28.4221579,33.4588335 27.7273615,33.4588335 C26.5525709,33.4588335 25.9887016,32.8619532 25.2747399,32.1063943 C24.4935919,31.2793968 23.5212215,30.2502121 21.6645549,30.2502121 C19.8097188,30.2502121 18.8377791,31.2789517 18.0569541,32.1055041 C17.3425617,32.8616193 16.7784771,33.4588335 15.6018561,33.4588335 C14.9526042,33.4588335 14.4628121,33.290029 13.9640833,32.894223 C13.6103864,32.6135868 13.1037976,32.6823549 12.8322532,33.0477828 C12.5607087,33.4132107 12.6273566,33.936872 12.9808382,34.2175081 C13.7629552,34.8382014 14.5957849,35.1271832 15.6017484,35.1271832 C17.4583073,35.1271832 18.4306777,34.0979985 19.2118257,33.2710009 C19.9257874,32.5154421 20.4896567,31.9185617 21.6644473,31.9185617 C22.8410682,31.9185617 23.4051529,32.5157759 24.1195453,33.2718911 C24.9005856,34.0984436 25.8724176,35.1270719 27.7271461,35.1270719 C28.3895338,35.1270719 28.9324074,34.9961009 29.3853763,34.8015918 L29.3853763,38.6835397 C28.9437127,39.0390641 28.4572584,39.2638401 27.7271461,39.2638401 C26.5522479,39.2638401 25.9883786,38.667071 25.2744168,37.9117347 C24.4932689,37.0850709 23.5208985,36.0563314 21.6643396,36.0563314 C19.8095035,36.0563314 18.8376714,37.0846258 18.0568464,37.9109557 C17.342454,38.6667372 16.7783694,39.2638401 15.6016408,39.2638401 C14.4266349,39.2638401 13.8627655,38.6671823 13.1489115,37.9117347 C12.3678712,37.0851822 11.3958238,36.0564427 9.54001862,36.0564427 C7.68421345,36.0564427 6.71216605,37.0851822 5.93112575,37.9117347 C5.2172717,38.6671823 4.65340238,39.2638401 3.47839648,39.2638401 C2.66225566,39.2638401 2.14403854,38.9894353 1.61397769,38.506167 L1.61397769,34.7036696 L1.61440837,34.7036696 Z M7.24082719,1.69209032 C8.06935009,1.8373045 9.92504758,2.42650688 11.6306527,4.78932525 C10.8998944,6.1429885 10.5410293,7.41553211 10.3669265,8.28080834 C10.3646654,8.29160204 10.3597126,8.3169728 10.3270885,8.33232878 C10.3014629,8.34423523 10.2756221,8.3430112 10.2499965,8.32821159 C8.95526126,7.58289006 7.62348741,7.21779601 6.38183359,7.07603136 C6.23604801,5.32122088 6.35071688,3.29467628 7.24082719,1.69209032 L7.24082719,1.69209032 Z M2.71598313,8.92219881 C4.31197988,8.58358826 6.99200114,8.36248437 9.4643264,9.78569464 C9.93527626,10.0567611 10.5087282,10.0807966 10.9980897,9.84956663 C11.4910043,9.61677883 11.836949,9.16878473 11.947311,8.62042037 C12.2278998,7.22647548 13.0614832,4.60883682 15.5,2.60187665 C17.9384091,4.60883682 18.7719925,7.22647548 19.052689,8.62042037 C19.1631587,9.16867346 19.5091033,9.61666756 20.0021256,9.84956663 C20.4913794,10.0806853 21.0647237,10.0567611 21.5355659,9.78558337 C24.0082142,8.36226182 26.6881278,8.58336571 28.2840169,8.92208753 C25.4078203,10.80709 23.9697759,13.2674968 23.2786403,14.9368479 C22.4432265,15.1432634 21.5889704,15.4655165 20.7501111,15.9484511 C20.724701,15.9631394 20.6986447,15.964586 20.6730192,15.952457 C20.6402874,15.9369897 20.6353346,15.9117302 20.6330735,15.9008253 L20.6330735,15.9009365 C20.3031718,14.2615185 19.3118514,11.1609453 16.3802046,8.8152633 C15.8619875,8.4005405 15.1379048,8.4005405 14.6196877,8.8152633 C11.6879333,11.1609453 10.6967206,14.2615185 10.3667111,15.9009365 C10.3645577,15.9117302 10.3594972,15.9369897 10.3268731,15.952457 C10.3012476,15.9644747 10.2754067,15.9631394 10.2497812,15.9483398 C9.41081427,15.4654053 8.55655816,15.1432634 7.72114436,14.9368479 C7.03022409,13.2677193 5.592395,10.8074239 2.71598313,8.92219881 Z M2.71598313,16.5425495 C4.31187221,16.2038277 6.99200114,15.9828351 9.46443407,17.4061567 C9.93559927,17.6773344 10.5089436,17.7012586 10.9981974,17.4700286 C11.491112,17.2372408 11.8370566,16.7892467 11.9474187,16.2409937 C12.2280075,14.8470488 13.0615909,12.2295214 15.5001077,10.2223387 C17.9385168,12.2294101 18.7722079,14.8469375 19.0527966,16.2409937 L19.0527966,16.2411049 C19.1632664,16.789358 19.509211,17.2373521 20.0021256,17.4701399 C20.4915948,17.7012586 21.0648314,17.6773344 21.5356736,17.4062679 C24.0085372,15.9828351 26.6884508,16.2040503 28.2841245,16.5426608 C25.8682185,18.1259962 24.4676433,20.115041 23.6713139,21.7006019 C21.6590638,20.5787249 19.4117694,19.9896338 17.1153774,19.9896338 L13.8846226,19.9896338 C11.5889843,19.9896338 9.34136693,20.5793926 7.32900916,21.7012695 C6.53300268,20.1154861 5.13231984,18.1262187 2.71598313,16.5425495 Z M7.38521305,23.5970657 C9.33555273,22.3284167 11.5830624,21.6578722 13.8846226,21.6578722 L17.1153774,21.6578722 C19.4284583,21.6578722 21.6853353,22.3345369 23.6423505,23.6146472 C25.2175669,24.6450559 26.5415885,26.0252026 27.5225726,27.6469279 C26.4847386,27.581053 25.9459565,27.0113238 25.2749552,26.301054 C24.4938072,25.4740564 23.5214368,24.4448717 21.6647703,24.4448717 C19.8099341,24.4448717 18.8379944,25.4736113 18.0571695,26.3001638 C17.3427771,27.056279 16.7786924,27.6534932 15.6020714,27.6534932 C14.4271732,27.6534932 13.8633039,27.0566128 13.1494498,26.3008314 C12.3684095,25.4739451 11.3963621,24.4448717 9.5404493,24.4448717 C7.68453646,24.4448717 6.71248906,25.4739451 5.93144876,26.3008314 C5.21770239,27.0565015 4.65383306,27.6534932 3.47893483,27.6534932 C3.47731977,27.6534932 3.47592006,27.6532706 3.47430501,27.6532706 C4.46174926,26.0197502 5.79696856,24.630145 7.38521305,23.5970657 Z M25.2748475,43.7188554 C24.4936996,42.8918579 23.5213291,41.8626732 21.6646626,41.8626732 C19.8098265,41.8626732 18.8378867,42.8914128 18.0570618,43.7179652 C17.3426694,44.4740805 16.7785847,45.0712947 15.6019638,45.0712947 C14.4270655,45.0712947 13.8631962,44.4744143 13.1493422,43.7186329 C12.3683019,42.8917466 11.3962545,41.8626732 9.54034163,41.8626732 C7.68442879,41.8626732 6.71238139,42.8917466 5.93134109,43.7186329 C5.21759472,44.474303 4.65372539,45.0712947 3.47882716,45.0712947 C2.70736951,45.0712947 2.20314953,44.8180322 1.73747551,44.421336 C1.73166132,44.3787176 1.72509343,44.3362104 1.71960225,44.2934808 C1.71163464,44.2307215 1.70409772,44.167851 1.69709915,44.1048692 C1.68579377,44.0043877 1.67599578,43.9035723 1.66705914,43.8026457 C1.66167563,43.7416669 1.65607677,43.6807993 1.65155462,43.6197092 C1.64337168,43.5102144 1.63734214,43.4006083 1.63195863,43.2908909 C1.62937454,43.2388141 1.62592909,43.1868485 1.62399103,43.134883 C1.61796149,42.9734226 1.61440837,42.8119623 1.61440837,42.6506132 L1.61440837,40.5080085 C2.12271982,40.7632739 2.7298726,40.9320784 3.47882716,40.9320784 C5.33366329,40.9320784 6.30560302,39.9036727 7.08642799,39.0772315 C7.80049737,38.3215614 8.36458203,37.724681 9.54034163,37.724681 C10.7161012,37.724681 11.2802936,38.3215614 11.9942553,39.0772315 C12.7751879,39.9036727 13.74702,40.9320784 15.6019638,40.9320784 C17.458415,40.9320784 18.4307854,39.9032276 19.2119333,39.0766751 C19.9258951,38.3213388 20.4897644,37.724681 21.6646626,37.724681 C22.8413912,37.724681 23.4054759,38.3216726 24.1198683,39.0775653 C24.9008009,39.903784 25.8727407,40.9320784 27.7273615,40.9320784 C28.386842,40.9320784 28.9306846,40.8018864 29.3855916,40.6065983 L29.3855916,42.6507244 C29.3855916,42.7994994 29.3822539,42.9482744 29.3771933,43.0969381 C29.3764397,43.120751 29.3757936,43.1446752 29.3748246,43.1684881 C29.3692257,43.3104753 29.3611505,43.4521287 29.3509218,43.5935595 C29.3489837,43.6209332 29.3468303,43.6481957 29.3446769,43.6755694 C29.3334792,43.8182242 29.3204511,43.9607678 29.3046236,44.1026437 C29.3025778,44.1208929 29.3001014,44.139142 29.2980557,44.1573911 C29.2823358,44.2934808 29.2643549,44.4292365 29.2444359,44.5643247 C29.2424978,44.5771213 29.2408828,44.5900293 29.2389447,44.6029372 C28.8870782,44.8557545 28.4245266,45.0714059 27.7273615,45.0714059 C26.5526786,45.0712947 25.9888092,44.4744143 25.2748475,43.7188554 L25.2748475,43.7188554 Z M17.1154851,55.3317617 L13.8847303,55.3317617 C10.8186033,55.3317617 7.85347115,54.1078453 5.60337737,51.9809305 C6.20773073,51.6192859 6.66468345,51.1364627 7.08632032,50.6901377 C7.80028203,49.9343563 8.36425902,49.3373647 9.54055697,49.3373647 C10.7164242,49.3373647 11.2805089,49.934245 11.9944706,50.6900264 C12.7754032,51.5163563 13.7471276,52.5448734 15.6020714,52.5448734 C17.4585226,52.5448734 18.430893,51.5160225 19.2121487,50.6893588 C19.9261104,49.9340225 20.4899797,49.3373647 21.664878,49.3373647 C22.8419296,49.3373647 23.4061219,49.9344676 24.1204066,50.6904715 C24.5116805,51.1045267 24.9353631,51.5517419 25.4808208,51.903928 C25.327606,52.0520353 25.1716994,52.1975833 25.01084,52.3380127 C22.7985385,54.2685268 19.9946964,55.3317617 17.1154851,55.3317617 L17.1154851,55.3317617 Z" id="Shape"></path>
                </g>
            </g>
        </g>
    </g>
</svg>