<svg width="100" height="100" viewBox="0 0 100 100" fill="none" xmlns="http://www.w3.org/2000/svg">
<path d="M80.3291 53.4878C79.8849 53.1037 79.302 52.9404 78.73 53.0311C78.2921 50.9147 76.4796 49.2894 74.2591 49.1048C74.2711 49.0842 74.285 49.0654 74.297 49.0447C76.0183 46.0481 74.64 42.1411 74.347 41.3904C73.1757 38.3768 70.8273 36.617 69.1959 35.7099C70.4413 32.5862 69.2851 29.2185 69.0288 28.5479C68.3048 26.6704 67.0639 25.0689 65.3401 23.7876C64.6345 23.2634 63.9561 22.8736 63.3726 22.5883C63.8023 20.6227 64.1421 17.9901 62.8721 15.1292C61.4324 11.8873 58.6948 10.1306 56.6508 9.22718C55.8813 8.8881 54.9846 8.93064 54.2524 9.34104C53.5202 9.75207 53.0418 10.4603 52.9418 11.2842C52.8943 11.6664 52.8361 12.0387 52.7671 12.4003C51.6894 11.2216 50.1327 10.4884 48.4222 10.4884C45.1935 10.4884 42.5667 13.0853 42.5667 16.2772C42.5667 18.0577 43.3906 19.6636 44.6879 20.7303C43.657 20.9605 42.5787 21.1206 41.4694 21.2852C37.6477 21.8514 33.6958 22.4369 30.5981 26.0454C29.8571 26.9094 27.601 29.5395 27.7776 33.2143C27.8428 34.5781 28.2446 35.9351 28.9515 37.2026C27.7586 37.8326 26.7252 38.5777 25.8171 39.4604C24.2471 40.9875 23.3105 42.7023 23.1086 44.419C22.8954 46.2345 23.4276 47.8598 24.1756 49.183C22.2176 49.5728 20.6704 51.0974 20.2704 53.0311C19.6983 52.9404 19.1161 53.1037 18.6713 53.4878C18.1612 53.9295 17.9195 54.5883 18.0239 55.2502L22.7758 85.2563C23.3016 88.5845 26.1569 91 29.5641 91H32.7187H32.7199H32.7218H66.2823H66.2842H66.2855H69.4401C72.8472 91 75.7025 88.5845 76.2284 85.2563L80.9759 55.2495C81.0809 54.5883 80.8392 53.9295 80.3291 53.4878ZM48.4222 12.892C50.0403 12.892 51.4249 14.0118 51.7647 15.544C51.3224 16.4705 50.7744 17.2681 50.096 17.972C49.4505 18.6395 48.724 19.18 47.8849 19.6192C46.2434 19.3646 44.9973 17.9519 44.9973 16.2772C44.998 14.4104 46.5338 12.892 48.4222 12.892ZM25.5235 44.6967C25.6602 43.53 26.3512 42.3119 27.5213 41.1739C28.5218 40.2011 29.7235 39.4254 31.1942 38.8016C32.4561 38.268 33.952 37.8301 35.9024 37.424C36.5593 37.287 36.9801 36.6502 36.8415 36.0008C36.7029 35.3508 36.0575 34.9354 35.4018 35.0724C33.7451 35.4171 32.3789 35.7893 31.1841 36.2222C30.7038 35.4108 30.2652 34.3454 30.2057 33.1011C30.0747 30.3715 31.8017 28.3577 32.4535 27.5988C34.9589 24.6797 38.2964 24.1855 41.8294 23.6619C44.1019 23.3253 46.4516 22.9768 48.6057 21.9521C48.619 21.9465 48.6316 21.9402 48.6443 21.9346C48.6494 21.9321 48.6538 21.9296 48.6582 21.9277C48.6652 21.9239 48.6721 21.9208 48.6791 21.917C49.8979 21.3277 50.937 20.5807 51.8546 19.6317C52.7975 18.6532 53.5664 17.4946 54.1391 16.1883C54.1435 16.1783 54.148 16.1671 54.1524 16.1571C54.1543 16.1521 54.1562 16.1477 54.1581 16.1427C54.7441 14.8001 55.1472 13.2636 55.3548 11.5726C55.3579 11.5494 55.3661 11.4794 55.4516 11.4312C55.4889 11.4099 55.5674 11.3812 55.6598 11.4218C57.3121 12.1519 59.5181 13.5552 60.6458 16.0951C61.7596 18.6038 61.266 20.9743 60.8401 22.7579C58 26.4596 54.7023 29.2517 51.0332 31.0547C47.759 32.6644 44.4019 33.4239 41.2618 34.0045C40.6018 34.1264 40.1664 34.7546 40.2904 35.4064C40.4138 36.059 41.0492 36.4888 41.7086 36.3668C45.0214 35.7543 48.5747 34.9472 52.1153 33.2068C55.9363 31.3293 59.3738 28.4922 62.3449 24.7661C62.8012 24.9925 63.329 25.2991 63.8789 25.7082C65.2306 26.713 66.1988 27.9567 66.7557 29.4006C66.8816 29.7303 67.953 32.6894 66.8183 35.0986C66.7367 35.2713 66.6418 35.4446 66.5355 35.6135C63.4682 40.4801 51.4382 41.4367 41.7718 42.2049C41.5466 42.2225 41.3156 42.2406 41.0808 42.2581C36.8168 42.5853 30.9765 43.0333 27.3315 47.3806C27.3042 47.4131 27.277 47.4463 27.2511 47.4788C27.0018 47.7841 26.7714 48.1038 26.5543 48.4323C25.8855 47.3988 25.3583 46.1025 25.5235 44.6967ZM25.1621 51.489H26.8784C26.8803 51.489 26.8822 51.4896 26.884 51.4896C26.8859 51.4896 26.8872 51.489 26.8885 51.489H59.9307C60.6021 51.489 61.1457 50.951 61.1457 50.2878C61.1457 49.6241 60.6021 49.086 59.9307 49.086H29.0686C29.0958 49.0516 29.1211 49.016 29.1483 48.9822C29.1546 48.974 29.1609 48.9665 29.1673 48.959C29.1806 48.9415 29.1951 48.924 29.2065 48.9109C32.1909 45.3511 37.2244 44.9651 41.2687 44.6548C41.5061 44.6367 41.7396 44.6185 41.9668 44.6004C52.1457 43.7915 63.6093 42.8794 67.9448 37.7713C69.2471 38.4819 71.1525 39.8739 72.0784 42.2537C72.5777 43.5337 73.1618 46.1538 72.1828 47.8586C71.8942 48.3609 71.4803 48.7645 70.9222 49.086H65.3793C64.7079 49.086 64.1636 49.6241 64.1636 50.2878C64.1636 50.951 64.7079 51.489 65.3793 51.489H71.2279C71.2291 51.489 71.2297 51.4896 71.231 51.4896C71.2329 51.4896 71.2342 51.489 71.2354 51.489H73.8376C75.2507 51.489 76.3999 52.6257 76.3999 54.0221V54.3099C76.2759 54.4206 76.1569 54.5313 76.0405 54.6389C75.326 55.3015 74.8539 55.7388 73.8142 55.7388C72.7789 55.7388 72.3144 55.3033 71.6107 54.6433C70.7766 53.8619 69.7394 52.8885 67.7347 52.8885C65.7299 52.8885 64.6921 53.8619 63.858 54.6433C63.1543 55.3033 62.6898 55.7388 61.6545 55.7388C60.6192 55.7388 60.1547 55.3033 59.451 54.6433C58.617 53.8619 57.5791 52.8885 55.575 52.8885C53.5702 52.8885 52.5324 53.8619 51.6983 54.6433C50.9946 55.3033 50.5301 55.7388 49.4948 55.7388C48.4601 55.7388 47.995 55.3033 47.292 54.6439C46.4585 53.8619 45.4207 52.8891 43.4159 52.8891C41.4118 52.8891 40.3739 53.8619 39.5399 54.6439C38.8368 55.3033 38.3723 55.7388 37.337 55.7388C36.3024 55.7388 35.8379 55.3033 35.1348 54.6439C34.3007 53.8619 33.2635 52.8891 31.2588 52.8891C29.2546 52.8891 28.2168 53.8619 27.3827 54.6439C26.6796 55.3033 26.2145 55.7394 25.1799 55.7394C24.1414 55.7394 23.6706 55.3015 22.9574 54.6396C22.8416 54.5326 22.7232 54.4225 22.5998 54.3124V54.0221C22.5998 52.6257 23.749 51.489 25.1621 51.489ZM73.8269 84.8847V84.8853C73.487 87.0355 71.6417 88.5964 69.4401 88.5964H67.6176L70.185 61.4956C70.2476 60.835 69.7559 60.2488 69.0876 60.1868C68.4187 60.1249 67.8271 60.611 67.7644 61.2717L65.1762 88.5964H59.165L60.4243 61.4387C60.4553 60.7755 59.9364 60.2137 59.2656 60.1831C58.5967 60.1537 58.0265 60.6654 57.9962 61.3286L56.7311 88.5964H50.7174L50.7117 61.383C50.7117 60.7199 50.1675 60.1818 49.4961 60.1818C48.8247 60.1818 48.2804 60.7199 48.2804 61.3836L48.2868 88.5964H42.273L41.0087 61.3286C40.9776 60.6654 40.41 60.1524 39.7386 60.1831C39.0684 60.2137 38.5495 60.7755 38.5799 61.4387L39.8392 88.5964H33.8286L31.1828 60.6654C31.1202 60.0042 30.5259 59.5181 29.859 59.5806C29.1907 59.6426 28.6996 60.2281 28.7623 60.8894L31.3872 88.5964H29.5647C27.3631 88.5964 25.5178 87.0355 25.178 84.8847L20.5659 55.7644C20.8052 55.9383 21.0349 56.1517 21.2931 56.3913C22.1334 57.1714 23.1789 58.1424 25.1799 58.1424C27.184 58.1424 28.2218 57.1689 29.0559 56.3875C29.7596 55.7275 30.2241 55.2921 31.2588 55.2921C32.2934 55.2921 32.7585 55.7275 33.4616 56.3875C34.295 57.1689 35.3329 58.1424 37.337 58.1424C39.3418 58.1424 40.379 57.1689 41.2131 56.3875C41.9168 55.7275 42.3813 55.2921 43.4159 55.2921C44.4512 55.2921 44.9157 55.7275 45.6188 56.3875C46.4528 57.1689 47.4907 58.1424 49.4948 58.1424C51.4996 58.1424 52.5374 57.1695 53.3715 56.3875C54.0752 55.7281 54.5397 55.2921 55.575 55.2921C56.6096 55.2921 57.0748 55.7281 57.7785 56.3875C58.6119 57.1689 59.6497 58.1424 61.6545 58.1424C63.6593 58.1424 64.6971 57.1695 65.5312 56.3875C66.2342 55.7281 66.6994 55.2921 67.7347 55.2921C68.77 55.2921 69.2345 55.7281 69.9382 56.3875C70.7722 57.1689 71.8094 58.1424 73.8142 58.1424C75.8152 58.1424 76.8619 57.1714 77.7035 56.3919C77.963 56.1517 78.194 55.9371 78.4344 55.7632L73.8269 84.8847Z" fill="#A66D03"/>
</svg>
