<svg width="100" height="100" viewBox="0 0 100 100" fill="none" xmlns="http://www.w3.org/2000/svg">
<path d="M35.6621 45.2143C36.6123 45.2143 37.3824 44.4349 37.3824 43.4732C37.3824 42.5115 36.6123 41.7321 35.6621 41.7321H35.6608C34.7106 41.7321 33.9412 42.5115 33.9412 43.4732C33.9412 44.4349 34.7119 45.2143 35.6621 45.2143Z" fill="#A66D03"/>
<path d="M83.668 76.1667H77.4177C78.3764 74.8723 78.9453 73.2643 78.9453 71.5238V66.881H80.4688C82.989 66.881 85.0391 64.7977 85.0391 62.2375C85.0391 59.6779 82.989 57.5952 80.4688 57.5952H78.6829C78.8525 57.1104 78.9453 56.5899 78.9453 56.0476V53.3036C78.9453 52.7613 78.8525 52.2402 78.6829 51.756H80.4688C82.989 51.756 85.0391 49.6734 85.0391 47.1131C85.0391 44.5529 82.989 42.4703 80.4688 42.4703H78.6829C78.8525 41.986 78.9453 41.4655 78.9453 40.9227C78.9453 35.7279 75.8383 30.8982 70.1963 27.3236C64.7785 23.8904 57.6059 22 50 22C42.3941 22 35.2215 23.8904 29.8037 27.3236C24.1617 30.8982 21.0547 35.7279 21.0547 40.9227C21.0547 41.4655 21.1475 41.986 21.3165 42.4703H19.5313C17.011 42.4703 14.9609 44.5529 14.9609 47.1131C14.9609 49.6734 17.011 51.756 19.5313 51.756H21.3171C21.1475 52.2402 21.0547 52.7613 21.0547 53.3036V56.0476C21.0547 56.5899 21.1475 57.1104 21.3171 57.5952H19.5313C17.011 57.5952 14.9609 59.6779 14.9609 62.2381C14.9609 64.7977 17.011 66.881 19.5313 66.881H21.0547V71.5238C21.0547 73.2643 21.6236 74.8723 22.5823 76.1667H16.332C13.3917 76.1667 11 78.5963 11 81.5833C11 84.5698 13.3917 87 16.332 87H83.668C86.6083 87 89 84.5698 89 81.5833C89 78.5963 86.6083 76.1667 83.668 76.1667ZM18.0078 47.1131C18.0078 46.2595 18.6916 45.5655 19.5313 45.5655H28.6719C29.5133 45.5655 30.1953 44.8727 30.1953 44.0179C30.1953 43.1631 29.5133 42.4703 28.6719 42.4703H25.625C24.7847 42.4703 24.1016 41.7763 24.1016 40.9227C24.1016 36.8354 26.6991 32.9385 31.4158 29.9497C36.3569 26.8194 42.9565 25.0952 50 25.0952C57.0429 25.0952 63.6431 26.8194 68.5836 29.9497C73.3009 32.9385 75.8984 36.8354 75.8984 40.9227C75.8984 41.7763 75.2147 42.4703 74.375 42.4703H42.3828C41.5414 42.4703 40.8594 43.1631 40.8594 44.0179C40.8594 44.8727 41.5414 45.5655 42.3828 45.5655H80.4688C81.3084 45.5655 81.9922 46.2595 81.9922 47.1131C81.9922 47.9661 81.3084 48.6608 80.4688 48.6608H74.375C72.0119 48.6608 70.6551 49.4382 69.5643 50.0627C68.5859 50.6231 67.8129 51.0656 66.2502 51.0656C64.6869 51.0656 63.9139 50.6231 62.9355 50.0627C61.8453 49.4382 60.4879 48.6608 58.1248 48.6608C55.7623 48.6608 54.4049 49.4382 53.3141 50.0627C52.3357 50.6231 51.5633 51.0656 50 51.0656C48.4367 51.0656 47.6643 50.6231 46.6859 50.0627C45.5951 49.4382 44.2377 48.6608 41.8752 48.6608C39.5121 48.6608 38.1547 49.4382 37.0645 50.0627C36.0861 50.6231 35.3131 51.0656 33.7498 51.0656C32.1871 51.0656 31.4141 50.6231 30.4357 50.0627C29.3449 49.4382 27.9881 48.6608 25.625 48.6608H19.5313C18.6916 48.6608 18.0078 47.9661 18.0078 47.1131ZM24.1016 56.0476V53.3036C24.1016 52.4506 24.7853 51.756 25.625 51.756C27.1883 51.756 27.9607 52.1985 28.9391 52.7589C30.0299 53.3834 31.3873 54.1609 33.7498 54.1609C36.1129 54.1609 37.4703 53.3834 38.5605 52.7589C39.5389 52.1985 40.3119 51.756 41.8752 51.756C43.4379 51.756 44.2109 52.1985 45.1893 52.7589C46.2801 53.3834 47.6369 54.1609 50 54.1609C52.3631 54.1609 53.7199 53.3834 54.8107 52.7589C55.7891 52.1985 56.5621 51.756 58.1248 51.756C59.6881 51.756 60.4611 52.1985 61.4395 52.7589C62.5297 53.3834 63.8871 54.1609 66.2502 54.1609C68.6127 54.1609 69.9701 53.3834 71.0609 52.7589C72.0393 52.1985 72.8117 51.756 74.375 51.756C75.2147 51.756 75.8984 52.4506 75.8984 53.3036V56.0476C75.8984 56.9006 75.2147 57.5952 74.375 57.5952H25.625C24.7853 57.5952 24.1016 56.9006 24.1016 56.0476ZM24.1016 71.5238V66.881H60.6641C61.5055 66.881 62.1875 66.1875 62.1875 65.3333C62.1875 64.4785 61.5055 63.7857 60.6641 63.7857H19.5313C18.691 63.7857 18.0078 63.0911 18.0078 62.2375C18.0078 61.3845 18.691 60.6905 19.5313 60.6905H80.4688C81.3084 60.6905 81.9922 61.3845 81.9922 62.2381C81.9922 63.0911 81.3084 63.7857 80.4688 63.7857H74.375C73.5335 63.7857 72.8516 64.4785 72.8516 65.3333C72.8516 66.1875 73.5335 66.881 74.375 66.881H75.8984V71.5238C75.8984 74.0834 73.8483 76.1667 71.3281 76.1667H28.6719C26.1517 76.1667 24.1016 74.0834 24.1016 71.5238ZM83.668 83.9048H16.332C15.0722 83.9048 14.0469 82.8631 14.0469 81.5833C14.0469 80.3029 15.0722 79.2619 16.332 79.2619H83.668C84.9284 79.2619 85.9531 80.3029 85.9531 81.5833C85.9531 82.8631 84.9278 83.9048 83.668 83.9048Z" fill="#A66D03"/>
<path d="M60.8971 34.7679C61.8474 34.7679 62.6176 33.9872 62.6176 33.0264C62.6176 32.065 61.8474 31.2857 60.8971 31.2857C59.9467 31.2857 59.1765 32.065 59.1765 33.0264V33.0278C59.1765 33.9886 59.9467 34.7679 60.8971 34.7679Z" fill="#A66D03"/>
<path d="M50.5735 38.25C51.5239 38.25 52.2941 37.4701 52.2941 36.5086C52.2941 35.5471 51.5239 34.7679 50.5735 34.7679C49.6232 34.7679 48.8529 35.5471 48.8529 36.5086V36.5099C48.8529 37.4707 49.6232 38.25 50.5735 38.25Z" fill="#A66D03"/>
<path d="M40.25 34.7679C41.2004 34.7679 41.9706 33.9879 41.9706 33.0264C41.9706 32.065 41.2004 31.2857 40.25 31.2857C39.2997 31.2857 38.5294 32.065 38.5294 33.0264V33.0278C38.5294 33.9886 39.2997 34.7679 40.25 34.7679Z" fill="#A66D03"/>
<path d="M67.7797 63.7857H67.7784C66.8282 63.7857 66.0588 64.5651 66.0588 65.5268C66.0588 66.4878 66.8296 67.2679 67.7797 67.2679C68.7292 67.2679 69.5 66.4878 69.5 65.5268C69.5 64.5651 68.7292 63.7857 67.7797 63.7857Z" fill="#A66D03"/>
</svg>
