<svg width="100" height="100" viewBox="0 0 100 100" fill="none" xmlns="http://www.w3.org/2000/svg">
<path d="M13 57.6073C13 70.8446 25.353 79.2261 28.5723 81.1818V86.0531C28.5723 86.8386 29.2061 87.4754 29.9879 87.4754H69.6264C70.4082 87.4754 71.042 86.8386 71.042 86.0531V81.1818C74.2612 79.2261 86.6143 70.8446 86.6143 57.6073C86.6143 56.8218 85.9805 56.185 85.1986 56.185H71.0052C71.9421 54.9613 72.4525 53.462 72.4577 51.9182V47.6513H68.2107C64.7792 47.6595 61.8478 50.1395 61.2556 53.5353C59.9607 51.6586 57.8427 50.5267 55.57 50.4968C53.2974 50.4668 51.1505 51.5426 49.8071 53.3845C48.6367 51.77 46.8375 50.7324 44.8595 50.5313C42.8815 50.3301 40.9118 50.9845 39.4431 52.3306C38.4313 49.5289 35.7858 47.66 32.8192 47.6513H28.5723V51.9182C28.5775 53.462 29.0878 54.9613 30.0247 56.185H14.4157C13.6338 56.185 13 56.8218 13 57.6073ZM63.9637 54.7627C63.9637 52.4062 65.8652 50.4959 68.2107 50.4959H69.6264V51.9182C69.6264 54.2747 67.7249 56.185 65.3794 56.185H63.9637V54.7627ZM55.4698 53.3405C57.2691 53.3427 58.8725 54.4816 59.4747 56.185H51.4649C52.067 54.4816 53.6705 53.3427 55.4698 53.3405ZM44.1445 53.3405C45.9438 53.3427 47.5473 54.4816 48.1494 56.185H40.1396C40.7418 54.4816 42.3452 53.3427 44.1445 53.3405ZM31.4036 50.4959H32.8192C35.1648 50.4959 37.0662 52.4062 37.0662 54.7627V56.185H35.6505C33.305 56.185 31.4036 54.2747 31.4036 51.9182V50.4959ZM83.7249 59.0296C83.6402 59.9896 83.4773 60.9409 83.2379 61.8742H52.6385V64.7188H82.3022C78.9358 72.8429 70.8354 77.9958 69.2441 78.9417H62.5481V81.7863H68.2107V84.6308H31.4036V81.7863H49.8071V78.9417H30.3701C28.7789 77.9958 20.6785 72.8429 17.3121 64.7188H32.8192V61.8742H16.3763C16.137 60.9409 15.9741 59.9896 15.8894 59.0296H83.7249Z" fill="#A66D03"/>
<path d="M35.929 62.1328H38.3426V64.5464H35.929V62.1328Z" fill="#A66D03"/>
<path d="M40.7562 62.1328H43.1698V64.5464H40.7562V62.1328Z" fill="#A66D03"/>
<path d="M46.7902 62.1328H49.2037V64.5464H46.7902V62.1328Z" fill="#A66D03"/>
<path d="M21.6028 23.7025C21.3838 24.1458 21.3972 24.673 21.6383 25.1039C21.8795 25.5347 22.3157 25.8109 22.7978 25.8379C23.1719 25.8599 24.5254 25.929 26.3145 25.929C29.8725 25.929 35.1453 25.657 37.8209 24.1996C39.6001 23.1268 40.9127 21.3927 41.4889 19.3539C42.1892 17.4144 42.1111 15.2676 41.2719 13.3876C39.51 9.95513 34.1844 9.44482 30.7763 11.3022C26.7057 13.5184 22.1139 22.6657 21.6028 23.7025ZM32.8708 22.5848C31.2756 22.7981 29.6703 22.9219 28.0621 22.9554L32.8708 20.0657V22.5848ZM38.7732 18.4421C38.4194 19.7498 37.6049 20.8745 36.4888 21.5966C36.2426 21.7211 35.9884 21.8277 35.7278 21.9157V18.3494L39.0874 16.3303C39.0982 17.0474 38.992 17.7612 38.7732 18.4421ZM32.1098 13.9023C33.8554 12.9928 35.9054 12.9388 37.6938 13.7552L34.6498 15.5847L31.0875 14.6685C31.3999 14.3751 31.7427 14.1182 32.1098 13.9023ZM31.1189 17.7112L26.7728 20.323C27.441 19.2348 28.172 18.1391 28.9144 17.1435L31.1189 17.7112Z" fill="#A66D03"/>
<path d="M65.9566 35.4922C66.438 35.4647 66.8734 35.1889 67.1144 34.7588C67.3554 34.3287 67.3694 33.8024 67.1518 33.3593C66.6406 32.3296 62.0486 23.1729 57.9777 20.9562C54.5722 19.0999 49.2434 19.6088 47.4814 23.0406C46.642 24.9205 46.5639 27.0674 47.2644 29.0067C47.8402 31.0463 49.153 32.7808 50.9326 33.8535C53.6084 35.3112 58.883 35.5834 62.4398 35.5834C64.2289 35.5834 65.5825 35.5142 65.9566 35.4922ZM53.0273 31.5736C52.7666 31.4851 52.5123 31.3779 52.2662 31.2529C51.1501 30.5307 50.3355 29.4056 49.9816 28.0977C49.7635 27.4171 49.6578 26.7035 49.6689 25.9869L53.0273 28.005V31.5736ZM54.1039 25.2485L51.0625 23.4201C51.8628 23.0203 52.7435 22.8212 53.6327 22.839C54.6778 22.829 55.7102 23.0761 56.6441 23.5598C57.0128 23.7764 57.3571 24.0344 57.6707 24.3291L54.101 25.247L54.1039 25.2485ZM55.883 32.2414V29.7216L60.6921 32.612C59.0837 32.5783 57.4783 32.4546 55.883 32.2414ZM57.635 27.3666L59.8396 26.7988C60.5821 27.7947 61.3132 28.8905 61.9814 29.979L57.635 27.3666Z" fill="#A66D03"/>
<path d="M74.305 13.8611C75.1048 13.8611 75.7532 13.2533 75.7532 12.5035C75.7468 7.25734 71.212 3.00599 65.6161 3H62.7198C61.92 3 61.2717 3.60784 61.2717 4.35764C61.2781 9.60379 65.8128 13.8551 71.4087 13.8611H74.305ZM64.3128 5.71528H65.6161C69.0558 5.71883 72.0197 7.98712 72.7121 11.1458H71.4087C67.969 11.1423 65.0051 8.87401 64.3128 5.71528Z" fill="#A66D03"/>
<path d="M38.8253 29.5494C33.2295 29.5554 28.6947 33.8068 28.6883 39.0529C28.6883 39.8027 29.3367 40.4105 30.1364 40.4105H33.0327C38.6286 40.4046 43.1634 36.1532 43.1698 30.9071C43.1698 30.1573 42.5214 29.5494 41.7216 29.5494H38.8253ZM33.0327 37.6953H31.7294C32.4217 34.5365 35.3856 32.2682 38.8253 32.2647H40.1287C39.4363 35.4234 36.4724 37.6917 33.0327 37.6953Z" fill="#A66D03"/>
<path d="M51.0139 15.0679C53.3467 15.0679 55.2377 13.1769 55.2377 10.8441C55.2377 8.51142 53.3467 6.62038 51.0139 6.62038C48.6812 6.62038 46.7902 8.51142 46.7902 10.8441C46.7902 13.1769 48.6812 15.0679 51.0139 15.0679ZM51.0139 9.43622C51.7915 9.43622 52.4219 10.0666 52.4219 10.8441C52.4219 11.6217 51.7915 12.2521 51.0139 12.2521C50.2364 12.2521 49.606 11.6217 49.606 10.8441C49.606 10.0666 50.2364 9.43622 51.0139 9.43622Z" fill="#A66D03"/>
<path d="M73.943 25.929C76.2757 25.929 78.1667 24.038 78.1667 21.7053C78.1667 19.3726 76.2757 17.4815 73.943 17.4815C71.6103 17.4815 69.7192 19.3726 69.7192 21.7053C69.7192 24.038 71.6103 25.929 73.943 25.929ZM73.943 20.2974C74.7206 20.2974 75.3509 20.9277 75.3509 21.7053C75.3509 22.4829 74.7206 23.1132 73.943 23.1132C73.1654 23.1132 72.5351 22.4829 72.5351 21.7053C72.5351 20.9277 73.1654 20.2974 73.943 20.2974Z" fill="#A66D03"/>
<path d="M44.98 47.6513C47.3127 47.6513 49.2038 45.7602 49.2038 43.4275C49.2038 41.0948 47.3127 39.2037 44.98 39.2037C42.6473 39.2037 40.7562 41.0948 40.7562 43.4275C40.7562 45.7602 42.6473 47.6513 44.98 47.6513ZM44.98 42.0196C45.7576 42.0196 46.3879 42.6499 46.3879 43.4275C46.3879 44.2051 45.7576 44.8354 44.98 44.8354C44.2024 44.8354 43.5721 44.2051 43.5721 43.4275C43.5721 42.6499 44.2024 42.0196 44.98 42.0196Z" fill="#A66D03"/>
<path d="M63.6853 16.2747H66.0988V18.6883H63.6853V16.2747Z" fill="#A66D03"/>
<path d="M40.7562 3H43.1698V5.41358H40.7562V3Z" fill="#A66D03"/>
<path d="M25.0679 29.5494H27.4815V31.963H25.0679V29.5494Z" fill="#A66D03"/>
<path d="M57.6513 40.4105H60.0649V42.8241H57.6513V40.4105Z" fill="#A66D03"/>
</svg>
