<svg width="100" height="100" viewBox="0 0 100 100" fill="none" xmlns="http://www.w3.org/2000/svg">
<path d="M89.0793 47.1399C84.1283 43.1171 77.2523 39.9571 69.1814 37.9912L54.7018 27.3399L53.0059 29.7158L60.4407 35.1851C59.4247 34.922 58.3641 34.6951 57.2605 34.5087C56.106 32.0043 53.9756 30.1691 51.4451 29.6555V12H48.5547V29.6557C46.024 30.1692 43.8936 32.0045 42.7393 34.5088C41.6357 34.6953 40.5751 34.9222 39.5591 35.1852L46.9939 29.716L45.298 27.3401L14.2958 50.1457L16.5349 51.7928C16.1297 52.9299 15.9245 54.0925 15.9245 55.2629C15.9245 55.2736 15.925 55.2841 15.925 55.2948V61.9483C15.925 66.957 19.6029 71.5819 26.2809 74.9716C32.6407 78.1996 41.0642 79.9773 50 79.9773C58.9358 79.9773 67.3595 78.1996 73.7191 74.9716C80.397 71.5819 84.075 66.9567 84.075 61.9483V55.2891C84.075 55.2803 84.0755 55.2717 84.0755 55.2629C84.0755 54.0923 83.8703 52.9295 83.4651 51.7928L85.7042 50.1457L76.4266 43.321C87.5205 47.6617 94.3215 54.5257 94.3215 61.8849C94.3215 67.8989 89.8336 73.628 81.6849 78.017C73.2453 82.5624 61.9926 85.0656 50 85.0656C38.0074 85.0656 26.7547 82.5622 18.3151 78.0168C10.1662 73.628 5.67851 67.8989 5.67851 61.8847C5.67851 55.1227 11.4194 48.6869 21.4287 44.2277L20.2672 41.5406C9.15874 46.4896 2.78787 53.9047 2.78787 61.8849C2.78787 69.0373 7.82113 75.687 16.9604 80.6092C25.8099 85.3753 37.5436 88 50 88C62.4564 88 74.1901 85.3753 83.0396 80.6092C92.1789 75.6868 97.2121 69.037 97.2121 61.8849C97.2121 56.5618 94.3999 51.4633 89.0793 47.1399ZM50 32.4422C52.922 32.4422 55.2994 35.2942 55.2994 38.7998C55.2994 42.3055 52.922 45.1574 50 45.1574C47.078 45.1574 44.7006 42.3053 44.7006 38.7998C44.7006 35.2942 47.078 32.4422 50 32.4422ZM41.874 37.6576C41.8334 38.0322 41.8098 38.4128 41.8098 38.7998C41.8102 39.4737 41.8753 40.1307 41.9961 40.7644C41.3616 40.6174 40.6883 40.6616 40.259 40.9151C39.6343 41.2837 39.7646 41.9545 40.5507 42.4151C40.945 42.6461 41.8738 42.8552 42.7007 43.0061C43.846 45.5535 45.9956 47.4245 48.5545 47.9438V50.9065H51.4449V47.9438C54.0066 47.4241 56.158 45.5496 57.3024 42.998C58.1173 42.8479 59.0199 42.6421 59.4055 42.4147C60.1853 41.9545 60.3079 41.2824 59.6792 40.914C59.263 40.67 58.6199 40.6219 58.0063 40.7507C58.1253 40.1213 58.1894 39.4691 58.1894 38.8C58.1894 38.413 58.166 38.0324 58.1253 37.6576C65.5333 39.2094 70.715 42.8234 70.715 46.6247C70.715 49.0095 68.6405 51.4303 65.023 53.2661C61.0344 55.2908 55.6988 56.4057 49.9996 56.4057C44.3004 56.4057 38.9649 55.2908 34.9762 53.2661C31.3586 51.4303 29.2842 49.0095 29.2842 46.6247C29.2842 42.8232 34.4657 39.2092 41.874 37.6576ZM50 62.2741C44.3006 62.2741 38.9651 61.159 34.9764 59.1343C31.5281 57.3841 29.483 55.1025 29.2995 52.8271C33.2797 56.7412 40.9723 59.3397 50 59.3397C59.0277 59.3397 66.7203 56.7414 70.7005 52.8271C70.517 55.1023 68.4721 57.3841 65.0236 59.1343C61.0349 61.159 55.6994 62.2741 50 62.2741ZM63.1502 63.113L50 72.7863L36.8498 63.113C40.5852 64.4411 45.0953 65.2085 50 65.2085C54.9047 65.2085 59.4146 64.4409 63.1502 63.113ZM26.6639 44.6712C26.4885 45.3084 26.3939 45.9605 26.3939 46.6245V52.4931C26.3939 53.7536 26.7194 54.9658 27.3262 56.1076L19.2217 50.1457L26.6639 44.6712ZM72.4263 72.3473C66.4602 75.3755 58.4956 77.0433 50 77.0433C41.5044 77.0433 33.5397 75.3756 27.5737 72.3473C22.2856 69.6632 19.2221 66.2548 18.8535 62.68C22.4427 66.975 29.1365 70.4055 37.8464 72.1333L38.4007 69.2536C26.7038 66.9334 18.8394 61.3245 18.8149 55.2906V55.2637V55.2629C18.8149 54.7125 18.8806 54.1614 19.01 53.6132L50 76.41L54.4413 73.1431C62.3541 72.6079 69.6589 70.6361 75.0499 67.5724C77.6016 66.1224 79.6505 64.4678 81.1473 62.6768C80.7795 66.2527 77.7161 69.6625 72.4263 72.3473ZM81.1851 55.2631V55.2639H81.1845V55.2856C81.1633 61.8543 71.8445 67.7328 59.1527 69.6771L80.9901 53.6134C81.1194 54.1616 81.1851 54.7129 81.1851 55.2631ZM80.7782 50.1457L72.6736 56.1075C73.2804 54.9656 73.6061 53.7538 73.6061 52.4929V46.6245C73.6061 45.9603 73.5114 45.3082 73.3361 44.6712L80.7782 50.1457Z" fill="#A66D03"/>
<path d="M41.5022 51.1218C40.6779 51.7405 40.5482 52.645 41.2113 53.1393C41.8758 53.6351 43.0844 53.5352 43.9089 52.9162C44.7344 52.2965 45.3939 50 45.3939 50C45.3939 50 42.3279 50.5021 41.5022 51.1218Z" fill="#A66D03"/>
<path d="M38.2342 45.3939C37.0972 45.3935 36.1801 45.9095 36.1818 46.5448C36.1831 46.8168 36.3528 47.0669 36.6352 47.264C37.0136 47.528 37.5943 47.697 38.2435 47.697C39.3794 47.6961 41.9394 46.5445 41.9394 46.5445C41.9394 46.5445 39.3687 45.3937 38.2342 45.3939Z" fill="#A66D03"/>
<path d="M63.3654 45.827C62.9872 45.5629 62.4065 45.3939 61.757 45.3939C60.621 45.3949 58.0606 46.5466 58.0606 46.5466C58.0606 46.5466 60.6317 47.6979 61.7679 47.697C62.9039 47.6981 63.821 47.1823 63.8182 46.5457C63.817 46.2738 63.6477 46.0239 63.3654 45.827Z" fill="#A66D03"/>
<path d="M58.4899 51.121C57.6637 50.502 54.606 50 54.606 50C54.606 50 55.2843 52.2966 56.1106 52.9153C56.9382 53.5352 58.1395 53.6352 58.7968 53.1395C59.4543 52.6437 59.3157 51.7401 58.4899 51.121Z" fill="#A66D03"/>
<path d="M50.5639 52.303C50.5639 52.303 48.8461 53.8428 48.8485 54.5243C48.8505 54.914 49.1061 55.2623 49.503 55.4883C49.7994 55.6572 50.1745 55.758 50.582 55.7576C51.5366 55.7576 52.307 55.2058 52.303 54.5233C52.299 53.8426 50.5639 52.303 50.5639 52.303Z" fill="#A66D03"/>
<path d="M47.1212 38.4848C48.0752 38.4848 48.8485 37.7115 48.8485 36.7576C48.8485 35.8036 48.0752 35.0303 47.1212 35.0303C46.1673 35.0303 45.3939 35.8036 45.3939 36.7576C45.3939 37.7115 46.1673 38.4848 47.1212 38.4848Z" fill="#A66D03"/>
</svg>
