<?xml version="1.0" encoding="UTF-8"?>
<svg width="18px" height="18px" viewBox="0 0 18 18" version="1.1" xmlns="http://www.w3.org/2000/svg" xmlns:xlink="http://www.w3.org/1999/xlink">
    <title>instagram</title>
    <g id="Page-1" stroke="none" stroke-width="1" fill="none" fill-rule="evenodd">
        <g id="Homepage---restaurant" transform="translate(-1272.000000, -950.000000)" fill="#000000" fill-rule="nonzero">
            <g id="footer" transform="translate(150.000000, 950.000000)">
                <g id="instagram" transform="translate(1122.000000, 0.000000)">
                    <path d="M13.1275635,0 L4.87243652,0 C2.18572998,0 0,2.18572998 0,4.87243652 L0,13.1277008 C0,15.81427 2.18572998,18 4.87243652,18 L13.1277008,18 C15.81427,18 18,15.81427 18,13.1277008 L18,4.87243652 C18,2.18572998 15.81427,0 13.1275635,0 Z M16.9447632,13.1277008 C16.9447632,15.2324066 15.2324066,16.9447632 13.1275635,16.9447632 L4.87243652,16.9447632 C2.76759338,16.9447632 1.05523682,15.2324066 1.05523682,13.1277008 L1.05523682,4.87243652 C1.05523682,2.76759338 2.76759338,1.05523682 4.87243652,1.05523682 L13.1277008,1.05523682 C15.2324066,1.05523682 16.9447632,2.76759338 16.9447632,4.87243652 L16.9447632,13.1277008 Z" id="Shape"></path>
                    <path d="M9,4.09090909 C6.29307587,4.09090909 4.09090909,6.29307587 4.09090909,9 C4.09090909,11.7069241 6.29307587,13.9090909 9,13.9090909 C11.7069241,13.9090909 13.9090909,11.7069241 13.9090909,9 C13.9090909,6.29307587 11.7069241,4.09090909 9,4.09090909 Z M9,12.8565656 C6.87358109,12.8565656 5.1434344,11.1265559 5.1434344,9 C5.1434344,6.87358109 6.87358109,5.1434344 9,5.1434344 C11.1265559,5.1434344 12.8565656,6.87358109 12.8565656,9 C12.8565656,11.1265559 11.1265559,12.8565656 9,12.8565656 Z" id="Shape"></path>
                    <path d="M13.9090137,2.45454545 C13.0066612,2.45454545 12.2727273,3.1886339 12.2727273,4.09083184 C12.2727273,4.99318428 13.0066612,5.72727273 13.9090137,5.72727273 C14.8113661,5.72727273 15.5454545,4.99318428 15.5454545,4.09083184 C15.5454545,3.1884794 14.8113661,2.45454545 13.9090137,2.45454545 Z M13.9090137,4.53984487 C13.6614848,4.53984487 13.4600006,4.33836069 13.4600006,4.09083184 C13.4600006,3.84314845 13.6614848,3.64181877 13.9090137,3.64181877 C14.1566971,3.64181877 14.3581812,3.84314845 14.3581812,4.09083184 C14.3581812,4.33836069 14.1566971,4.53984487 13.9090137,4.53984487 Z" id="Shape"></path>
                </g>
            </g>
        </g>
    </g>
</svg>