<svg width="100" height="100" viewBox="0 0 100 100" fill="none" xmlns="http://www.w3.org/2000/svg">
<path d="M50 10C27.9087 10 10 27.9087 10 50C10 72.0913 27.9087 90 50 90C72.0913 90 90 72.0913 90 50C89.975 27.919 72.081 10.025 50 10ZM50 87.3333C29.3813 87.3333 12.6667 70.6187 12.6667 50C12.6667 29.3813 29.3813 12.6667 50 12.6667C70.6187 12.6667 87.3333 29.3813 87.3333 50C87.3098 70.6088 70.6088 87.3098 50 87.3333Z" fill="#A66D03"/>
<path d="M57.7419 47.4194C62.0178 47.4194 65.4839 43.9533 65.4839 39.6774C65.4784 35.4039 62.0155 31.9409 57.7419 31.9355C53.4661 31.9355 50 35.4016 50 39.6774C50 43.9533 53.4661 47.4194 57.7419 47.4194ZM57.7419 34.7507C60.4629 34.7507 62.6686 36.9565 62.6686 39.6774C62.6686 42.3984 60.4629 44.6041 57.7419 44.6041C55.021 44.6041 52.8153 42.3984 52.8153 39.6774C52.8153 36.9565 55.021 34.7507 57.7419 34.7507Z" fill="#A66D03"/>
<path d="M84.7755 51.2718C84.6932 51.0111 84.5341 50.7824 84.3198 50.6166L78.2721 45.9391C77.8953 45.6471 77.393 45.5838 76.9574 45.7734C76.8639 45.8157 76.7756 45.8691 76.6944 45.9324C76.1861 42.0713 74.8872 38.3614 72.8818 35.0418C74.611 33.8013 75.6384 31.7833 75.6361 29.632C75.6471 25.9526 72.7219 22.9608 69.1023 22.9495C67.1325 22.9433 65.2647 23.838 64.0154 25.3861C63.322 25.1006 62.6076 24.8709 61.879 24.6992C61.843 24.6671 61.8052 24.6372 61.7659 24.6096C51.4262 19.322 38.9404 21.1458 30.4836 29.1789C30.4378 29.2342 30.3964 29.2932 30.3601 29.3553C27.9528 29.8926 26.0434 31.7536 25.4141 34.1758C22.648 34.8972 20.6213 37.3008 20.3433 40.1898C20.304 40.6457 20.3129 41.1044 20.3696 41.5583C15.9827 43.4988 13.974 48.687 15.883 53.1463C16.5489 54.7018 17.6425 56.0287 19.0325 56.9674C18.8992 57.4024 18.8111 57.8503 18.7696 58.3038C18.5494 61.3434 20.3032 64.1741 23.095 65.2853C23.577 73.3785 30.422 79.5419 38.3836 79.0519C40.499 78.9218 42.5601 78.3199 44.4209 77.2892C45.9588 77.5683 47.5169 77.7163 49.0789 77.7315C49.0793 77.9878 49.1529 78.2386 49.2906 78.4532L53.0599 84.2386C53.3031 84.613 53.7149 84.8387 54.1563 84.8387H54.1721C54.6181 84.8332 55.031 84.5981 55.2686 84.2146L58.491 79.0132C59.1039 79.302 59.7716 79.451 60.4472 79.4502C61.3643 79.4459 62.2622 79.1831 63.0412 78.6911L67.0524 75.6948C71.4353 72.4156 74.9515 68.0847 77.2874 63.0882L79.0912 59.2219C79.7349 57.7302 79.595 56.0088 78.7191 54.6447L83.9254 52.9527C84.6167 52.7272 84.9973 51.9746 84.7755 51.2718ZM63.8721 28.2635L65.004 28.8475L65.618 27.7155C66.6578 25.7782 69.0456 25.0644 70.9515 26.1213C72.8573 27.1783 73.5595 29.6056 72.5197 31.5429C72.0718 32.3777 71.3457 33.0227 70.4719 33.362H70.4732L69.29 33.8284L69.7054 35.0472C71.8591 41.3323 68.5927 48.2019 62.4099 50.3911C56.227 52.5804 49.4691 49.26 47.3154 42.9751C45.1617 36.69 48.4281 29.8204 54.6109 27.6312C57.6541 26.5535 60.9979 26.7819 63.8721 28.2635ZM31.7366 31.8758C33.9149 31.8758 35.6807 33.6708 35.6807 35.8851C35.6807 38.0994 33.9149 39.8944 31.7366 39.8944C29.5583 39.8944 27.7924 38.0994 27.7924 35.8851C27.7924 33.6708 29.5583 31.8758 31.7366 31.8758ZM32.9777 50.4202V50.4269C32.6082 50.5512 32.2401 50.6795 31.8799 50.8278C31.8023 50.8612 31.73 50.9013 31.6537 50.9347C29.5124 51.341 27.4526 49.9057 27.0529 47.7291C26.6532 45.5524 28.0652 43.4585 30.2064 43.0523C32.3476 42.646 34.4076 44.0813 34.8072 46.2579C35.1083 47.8972 34.3796 49.5545 32.9777 50.4202ZM21.3858 58.5404C21.4366 58.0143 21.5885 57.5035 21.8328 57.0369L22.4468 55.8515L21.2794 55.2314C18.2379 53.772 16.9362 50.0824 18.372 46.9907C19.1332 45.3516 20.563 44.1339 22.2838 43.6592L23.5407 43.2582L23.1384 41.9806C22.9766 41.4791 22.9153 40.9497 22.9582 40.4237C23.1045 38.9736 23.9854 37.7065 25.2813 37.0826C25.5775 38.7127 26.4605 40.1722 27.7583 41.1761C27.7241 41.1948 27.6846 41.2055 27.6504 41.2255C24.508 43.0631 23.4259 47.1424 25.2337 50.337C25.9237 51.5565 26.9753 52.5229 28.2381 53.0984C25.4864 55.4323 23.6877 58.7238 23.1923 62.3318C21.9658 61.4879 21.2767 60.0418 21.3858 58.5404ZM37.5095 76.4072C30.9847 76.4175 25.6873 71.0492 25.6771 64.4167C25.6771 64.4041 25.6771 64.3918 25.6771 64.3792C25.6771 57.7363 30.9747 52.3513 37.5095 52.3513C44.0444 52.3513 49.3419 57.7363 49.3419 64.3792C49.3419 71.022 44.0444 76.4072 37.5095 76.4072ZM54.1287 81.0392L52.7601 78.9357L55.521 78.802L54.1287 81.0392ZM55.7945 73.9401C55.7813 74.031 55.7945 74.1218 55.784 74.2074C53.0791 74.9341 50.2745 75.1997 47.4842 74.9932C53.261 69.4016 53.4847 60.1082 47.9839 54.2359C45.2543 51.3219 41.4677 49.6745 37.5095 49.6785C37.3136 49.6785 37.1151 49.6999 36.9257 49.7079C38.1752 46.8875 37.3463 43.564 34.9261 41.6893C38.0853 39.924 39.2386 35.8896 37.5022 32.6782C36.7387 31.2663 35.496 30.1849 34.0058 29.636C38.3864 26.1612 43.7854 24.2779 49.3419 24.2862C51.1097 24.2876 52.8724 24.4783 54.6007 24.8555C46.9185 27.0638 42.4521 35.1845 44.6245 42.9936C46.7969 50.8027 54.7856 55.3429 62.4678 53.1347C67.9638 51.5548 72.0294 46.8334 72.8423 41.0865C74.1237 44.6854 74.5814 48.5338 74.1807 52.3393H74.1741C72.3955 52.4663 70.8338 53.5874 70.1209 55.2487L68.7759 58.0178C66.8671 61.9453 64.1495 65.4091 60.8075 68.1747L57.8139 70.6605C56.7189 71.4182 55.9864 72.6078 55.7945 73.9401ZM76.6879 58.1261L74.9064 61.9429C72.7572 66.5393 69.5224 70.5237 65.4905 73.5405L61.5753 76.4726C60.6804 77.0273 59.5207 76.8278 58.8551 76.0049C58.112 75.0973 58.2333 73.749 59.1261 72.9934C59.1864 72.9423 59.2495 72.8947 59.3153 72.8509L62.4706 70.2448C66.103 67.2394 69.0565 63.4745 71.1306 59.2059L72.511 56.3727C73.0052 55.2068 74.3355 54.6687 75.4824 55.171C76.0235 55.4079 76.452 55.8501 76.6774 56.4034C76.9055 56.9535 76.9092 57.5731 76.6879 58.1261ZM78.23 51.9918L78.5127 49.49L80.7122 51.19L78.23 51.9918Z" fill="#A66D03"/>
<path d="M43.5484 59.0323H40.9677V61.6129H43.5484V59.0323Z" fill="#A66D03"/>
<path d="M47.4194 61.6129H44.8387V64.1936H47.4194V61.6129Z" fill="#A66D03"/>
<path d="M43.5484 66.7742H40.9677V69.3548H43.5484V66.7742Z" fill="#A66D03"/>
<path d="M33.2258 66.7742H30.6452V69.3548H33.2258V66.7742Z" fill="#A66D03"/>
<path d="M34.5161 59.0323H31.9355V61.6129H34.5161V59.0323Z" fill="#A66D03"/>
<path d="M38.3871 71.9355H35.8065V74.5161H38.3871V71.9355Z" fill="#A66D03"/>
<path d="M38.3871 64.1936H35.8065V66.7742H38.3871V64.1936Z" fill="#A66D03"/>
</svg>
