<?xml version="1.0" encoding="UTF-8"?>
<svg width="62px" height="62px" viewBox="0 0 62 62" version="1.1" xmlns="http://www.w3.org/2000/svg" xmlns:xlink="http://www.w3.org/1999/xlink">
    <title>breakfast</title>
    <g id="Page-1" stroke="none" stroke-width="1" fill="none" fill-rule="evenodd">
        <g id="Navigation" transform="translate(-689.000000, -558.000000)" fill="#A66D03" fill-rule="nonzero">
            <g id="Items" transform="translate(402.000000, 353.000000)">
                <g id="Brunch" transform="translate(229.000000, 205.000000)">
                    <g id="breakfast" transform="translate(58.000000, 0.000000)">
                        <path d="M31,0 C13.8792167,0 0,13.8792167 0,31 C0,48.1207833 13.8792167,62 31,62 C48.1207833,62 62,48.1207833 62,31 C61.980625,13.887225 48.112775,0.019375 31,0 Z M31,59.9333333 C15.0205333,59.9333333 2.06666667,46.9794667 2.06666667,31 C2.06666667,15.0205333 15.0205333,2.06666667 31,2.06666667 C46.9794667,2.06666667 59.9333333,15.0205333 59.9333333,31 C59.9151208,46.9718458 46.9718458,59.9151208 31,59.9333333 Z" id="Shape"></path>
                        <path d="M37,29 C40.3137727,29 43,26.3137727 43,23 C42.9957727,19.688 40.312,17.0042273 37,17 C33.6862273,17 31,19.6862273 31,23 C31,26.3137727 33.6862273,29 37,29 Z M37,19.1818182 C39.1087273,19.1818182 40.8181818,20.8912727 40.8181818,23 C40.8181818,25.1087273 39.1087273,26.8181818 37,26.8181818 C34.8912727,26.8181818 33.1818182,25.1087273 33.1818182,23 C33.1818182,20.8912727 34.8912727,19.1818182 37,19.1818182 Z" id="Shape"></path>
                        <path d="M57.9509977,31.9856734 C57.887189,31.7835754 57.7639019,31.606335 57.597821,31.4779037 L52.9108747,27.8528271 C52.6188321,27.6265188 52.2296118,27.5774508 51.8919734,27.7243958 C51.819504,27.757151 51.7511103,27.7985804 51.6881931,27.8476484 C51.2942604,24.8552771 50.2875858,21.9800735 48.7333792,19.4074343 C50.0734892,18.4460122 50.8697606,16.8820506 50.8679775,15.2147743 C50.8765108,12.3632631 48.6094553,10.0446382 45.8042925,10.0358345 C44.2777235,10.0310442 42.8301194,10.7244696 41.8619084,11.9242404 C41.3245653,11.7029813 40.7709197,11.5249642 40.2061937,11.3918721 C40.1783012,11.3670144 40.1490078,11.3438398 40.1185682,11.3224777 C32.105291,7.22458755 22.4287848,8.63797903 15.8748292,14.8636597 C15.839295,14.9065133 15.8071996,14.9522152 15.7790524,15.0003769 C13.913444,15.4167428 12.4336172,16.8590055 11.9459455,18.7362773 C9.80217706,19.2953159 8.23154061,21.1580874 8.01604297,23.3970901 C7.98560329,23.7504056 7.99248088,24.105922 8.036421,24.4576839 C4.63660188,25.9615728 3.07984796,29.9824302 4.55929274,33.4384228 C5.07536628,34.6438903 5.92296485,35.6722468 7.00019831,36.399722 C6.89690719,36.7368542 6.8286408,37.0839552 6.79641804,37.4354582 C6.62575206,39.7911107 7.98496648,41.9849294 10.1486035,42.846144 C10.5221582,49.1183034 15.8270682,53.8949891 21.9972801,53.5152624 C23.6366924,53.4144075 25.234075,52.9479379 26.6762025,52.1491263 C27.8680624,52.3654657 29.0755878,52.4801735 30.28617,52.491955 C30.2864247,52.6905574 30.3434832,52.8848874 30.4502131,53.0512525 L33.3714033,57.5349545 C33.5599001,57.8250901 33.8790709,58 34.2211671,58 L34.2333939,58 C34.5790562,57.9957276 34.8989912,57.8135675 35.0831576,57.5163112 L37.5804849,53.485226 C38.0555476,53.7090745 38.5730221,53.8245591 39.0966101,53.8239117 C39.8072938,53.8205456 40.5032034,53.616894 41.1069025,53.2356136 L44.2155705,50.9134931 C47.6123329,48.3720554 50.3373846,45.0156229 52.1477176,41.1433937 L53.5456503,38.147009 C54.0445299,36.9908685 53.9361442,35.6568403 53.2573012,34.5996126 L57.2921506,33.2883706 C57.8279653,33.1135901 58.1229373,32.5303411 57.9509977,31.9856734 Z M41.7508481,14.1541804 L42.6281222,14.6067971 L43.1039491,13.7295286 C43.9097728,12.2280995 45.7603523,11.674887 47.2373772,12.4940248 C48.7144021,13.3131627 49.2586228,15.1943185 48.4527992,16.6957475 C48.1056086,17.3426943 47.5429203,17.8425664 46.865733,18.105514 L46.8667519,18.105514 L45.9497406,18.4669859 L46.2717135,19.4115773 C47.9408013,24.282515 45.4093408,29.6064579 40.6177025,31.3031232 C35.8259367,32.9997886 30.588529,30.426502 28.9194412,25.5556937 C27.2503534,20.684756 29.7818138,15.3608131 34.5734522,13.6641478 C36.9319541,12.828956 39.5234024,13.0059374 41.7508481,14.1541804 Z M16.8458422,16.9537753 C18.5340344,16.9537753 19.9025462,18.3448985 19.9025462,20.0609839 C19.9025462,21.7770692 18.5340344,23.1681924 16.8458422,23.1681924 C15.15765,23.1681924 13.7891381,21.7770692 13.7891381,20.0609839 C13.7891381,18.3448985 15.15765,16.9537753 16.8458422,16.9537753 Z M17.807685,31.3256505 L17.807685,31.3308292 C17.5213738,31.4271527 17.2360814,31.5265833 16.9569024,31.64155 C16.8967872,31.6674434 16.8407477,31.6985155 16.7816514,31.7244089 C15.1221158,32.0392727 13.5257521,30.9268921 13.2160061,29.2400662 C12.9062601,27.553111 14.0005601,25.9303713 15.6599683,25.6155075 C17.3193766,25.3006437 18.9158676,26.4130244 19.2256137,28.0998502 C19.4589421,29.3703101 18.894216,30.6547524 17.807685,31.3256505 Z M8.82403175,37.6187835 C8.86338681,37.2110919 8.98106992,36.8151817 9.17045821,36.4535803 L9.64628515,35.5348823 L8.74150074,35.0543007 C6.3843998,33.9232768 5.37556009,31.0638682 6.48832774,28.667822 C7.07827163,27.3974916 8.18632686,26.4538065 9.51994138,26.0858612 L10.4940111,25.7751403 L10.1822273,24.7849766 C10.0569024,24.3963166 10.0093961,23.9860356 10.0426378,23.5783439 C10.1559906,22.4545702 10.8386545,21.4725628 11.8430365,20.9890035 C12.072544,22.2523427 12.7568636,23.383496 13.7626466,24.1614634 C13.7361552,24.1759637 13.7055882,24.1842496 13.6790967,24.1997856 C11.2436678,25.6239229 10.4051119,28.7853781 11.8061013,31.2611759 C12.3408972,32.2062852 13.1558909,32.9552519 14.1345456,33.4012658 C12.0019851,35.2100496 10.6080007,37.7609383 10.2240022,40.5571671 C9.27349461,39.9030997 8.73946294,38.7824331 8.82403175,37.6187835 Z M21.319838,51.4655521 C16.2631579,51.4735674 12.1576223,47.3131447 12.1497258,42.1729155 C12.1497258,42.1632055 12.1497258,42.1536249 12.1497258,42.1439149 C12.1497258,36.9956587 16.2553888,32.8222893 21.319838,32.8222893 C26.3844146,32.8222893 30.4899503,36.9956587 30.4899503,42.1439149 C30.4899503,47.2920415 26.3844146,51.4655521 21.319838,51.4655521 Z M34.1997701,55.055402 L33.1390938,53.4251533 L35.2787867,53.3215797 L34.1997701,55.055402 Z M35.4907182,49.5535715 C35.4805292,49.6240015 35.4907182,49.6944316 35.482567,49.7607187 C33.3863048,50.3239003 31.2127334,50.5297528 29.0502427,50.3697316 C33.5272952,46.0362114 33.7006358,38.8338315 29.4375525,34.2828068 C27.3220586,32.0245135 24.3874953,30.7477097 21.319838,30.7508169 C21.1680217,30.7508169 21.0141676,30.7673887 20.8674458,30.7736031 C21.8357842,28.5878114 21.1933669,26.012065 19.3176969,24.5591861 C21.7661168,23.191108 22.6599481,20.0644795 21.3142341,17.5756054 C20.7225071,16.4813502 19.7593906,15.6433101 18.6044659,15.2178815 C21.9994452,12.5249674 26.183691,11.0653562 30.4899503,11.0718081 C31.8599905,11.0728653 33.2260825,11.2207167 34.5655557,11.5130532 C28.6118604,13.2244778 25.1503977,19.5179992 26.8340048,25.5700646 C28.517612,31.62213 34.7088387,35.1407847 40.6625341,33.4293601 C44.9219239,32.2049905 48.072749,28.5458641 48.7028121,24.0920691 C49.6958589,26.8811771 50.0505639,29.8637089 49.7400537,32.8129677 L49.7349592,32.8129677 C48.356513,32.9113626 47.1461856,33.7802158 46.5936863,35.0677653 L45.5513502,37.2138107 C44.0720328,40.2575804 41.9658363,42.9420791 39.3757891,45.0854056 L37.0557507,47.0118749 C36.2071332,47.5991373 35.6394778,48.521072 35.4907182,49.5535715 Z M51.6830986,37.2977053 L50.3024873,40.2557678 C48.6368383,43.8179235 46.1298315,46.9058414 43.0051157,49.2438864 L39.9708275,51.5162915 C39.2773377,51.946122 38.3785394,51.7915384 37.8627205,51.1537839 C37.2867865,50.4503895 37.3807802,49.4054612 38.0727416,48.8198819 C38.1194837,48.780265 38.1683909,48.7433669 38.219336,48.7094465 L40.6646993,46.689761 C43.4797964,44.3605198 45.7687583,41.4427215 47.3762025,38.1345801 L48.446049,35.9388194 C48.8290285,35.0352691 49.8600293,34.6182558 50.7488934,35.0075631 C51.1681713,35.1911474 51.5003332,35.5338466 51.6749474,35.9626414 C51.8517268,36.3889763 51.8546561,36.8691695 51.6830986,37.2977053 Z M52.8782699,32.5436763 L53.0973337,30.6047781 L54.8019557,31.9222345 L52.8782699,32.5436763 Z" id="Shape"></path>
                        <rect id="Rectangle" x="24" y="38" width="2" height="2"></rect>
                        <rect id="Rectangle" x="27" y="40" width="2" height="2"></rect>
                        <rect id="Rectangle" x="24" y="44" width="2" height="2"></rect>
                        <rect id="Rectangle" x="16" y="44" width="2" height="2"></rect>
                        <rect id="Rectangle" x="17" y="38" width="2" height="2"></rect>
                        <rect id="Rectangle" x="20" y="48" width="2" height="2"></rect>
                        <rect id="Rectangle" x="20" y="42" width="2" height="2"></rect>
                    </g>
                </g>
            </g>
        </g>
    </g>
</svg>