<?xml version="1.0" encoding="UTF-8"?>
<svg width="22px" height="25px" viewBox="0 0 22 25" version="1.1" xmlns="http://www.w3.org/2000/svg" xmlns:xlink="http://www.w3.org/1999/xlink">
    <title>calendar</title>
    <g id="Page-1" stroke="none" stroke-width="1" fill="none" fill-rule="evenodd">
        <g id="Book-a-table" transform="translate(-278.000000, -480.000000)" fill="#A66D03" fill-rule="nonzero">
            <g id="book" transform="translate(145.000000, 187.000000)">
                <g id="form" transform="translate(130.000000, 237.000000)">
                    <g id="calendar" transform="translate(3.000000, 56.000000)">
                        <path d="M20.2069504,1.67353516 L18.6758488,1.67353516 L18.6758488,1.11362305 C18.6758488,0.499560547 18.1873345,0 17.5868501,0 L17.4224044,0 C16.8219678,0 16.3334534,0.499560547 16.3334534,1.11362305 L16.3334534,1.67353516 L5.66645108,1.67353516 L5.66645108,1.11362305 C5.66645108,0.499560547 5.17793675,0 4.57745232,0 L4.41300668,0 C3.81252225,0 3.32400792,0.499560547 3.32400792,1.11362305 L3.32400792,1.67353516 L1.79295407,1.67353516 C0.804322536,1.67353516 0,2.49604492 0,3.50703125 L0,23.1689453 C0,24.1786133 0.803224322,25 1.79056664,25 L20.2094334,25 C21.1967757,25 22,24.1786133 22,23.1689453 L22,3.50703125 C22,2.49604492 21.1956297,1.67353516 20.2069504,1.67353516 L20.2069504,1.67353516 Z M17.0496801,1.11362305 C17.0496801,0.903417969 17.2168951,0.732421875 17.4224522,0.732421875 L17.5868978,0.732421875 C17.7924549,0.732421875 17.9596699,0.903417969 17.9596699,1.11362305 L17.9596699,1.67353516 L17.0496801,1.67353516 L17.0496801,1.11362305 Z M4.04028232,1.11362305 C4.04028232,0.903417969 4.20749737,0.732421875 4.41305442,0.732421875 L4.57750007,0.732421875 C4.78305712,0.732421875 4.95027217,0.903417969 4.95027217,1.11362305 L4.95027217,1.67353516 L4.04033007,1.67353516 L4.04033007,1.11362305 L4.04028232,1.11362305 Z M21.2837256,23.1689453 C21.2837256,23.7747559 20.8018006,24.2675781 20.2093856,24.2675781 L1.7905189,24.2675781 C1.19810395,24.2675781 0.716178909,23.7747559 0.716178909,23.1689453 L0.716178909,23.1666504 C1.01623013,23.3978516 1.38919322,23.5351563 1.79295407,23.5351563 L16.3124441,23.5351563 C16.791361,23.5351563 17.2416288,23.3444336 17.5802608,22.9980957 L21.2837256,19.2108887 L21.2837256,23.1689453 Z M17.214842,22.3359863 C17.242918,22.2174805 17.2581975,22.0938965 17.2581975,21.9666992 L17.2581975,19.522168 C17.2581975,19.0612305 17.6249533,18.6861816 18.0757464,18.6861816 L20.4661767,18.6861816 C20.5905614,18.6861816 20.7114127,18.6705566 20.8272982,18.6418457 L17.214842,22.3359863 Z M21.2837256,6.90693359 L6.0245644,6.90693359 C5.82679035,6.90693359 5.66645108,7.07089844 5.66645108,7.27314453 C5.66645108,7.47539062 5.82679035,7.63935547 6.0245644,7.63935547 L21.2837256,7.63935547 L21.2837256,17.1177734 C21.2837256,17.5787598 20.9169698,17.9538086 20.4661767,17.9538086 L18.0757464,17.9538086 C17.230026,17.9538086 16.5419709,18.6574219 16.5419709,19.5222168 L16.5419709,21.966748 C16.5419709,22.4277344 16.1752151,22.8027832 15.7244698,22.8027832 L1.79295407,22.8027832 C1.19924992,22.8027832 0.716178909,22.3088379 0.716178909,21.7016602 L0.716178909,7.63935547 L4.59211109,7.63935547 C4.78988514,7.63935547 4.95022442,7.47539063 4.95022442,7.27314453 C4.95022442,7.07089844 4.78988514,6.90693359 4.59211109,6.90693359 L0.716178909,6.90693359 L0.716178909,3.50703125 C0.716178909,2.89990234 1.19920217,2.40595703 1.79290632,2.40595703 L3.32400792,2.40595703 L3.32400792,3.48271484 C3.32400792,4.09677734 3.81252225,4.59633789 4.41300668,4.59633789 C4.61078073,4.59633789 4.77112,4.43237305 4.77112,4.23012695 C4.77112,4.02788086 4.61078073,3.86391602 4.41300668,3.86391602 C4.20744963,3.86391602 4.04023458,3.69291992 4.04023458,3.48271484 L4.04023458,2.40595703 L16.3334534,2.40595703 L16.3334534,3.48271484 C16.3334534,4.09677734 16.8219678,4.59633789 17.4224522,4.59633789 C17.6202262,4.59633789 17.7805655,4.43237305 17.7805655,4.23012695 C17.7805655,4.02788086 17.6202262,3.86391602 17.4224522,3.86391602 C17.2168951,3.86391602 17.0496801,3.69291992 17.0496801,3.48271484 L17.0496801,2.40595703 L20.2069982,2.40595703 C20.8007023,2.40595703 21.2837256,2.89990234 21.2837256,3.50703125 L21.2837256,6.90693359 Z" id="Shape"></path>
                    </g>
                </g>
            </g>
        </g>
    </g>
</svg>