<svg width="100" height="100" viewBox="0 0 100 100" fill="none" xmlns="http://www.w3.org/2000/svg">
<path d="M28 40.9602C28 51.5939 35.4918 60.5995 45.6779 62.8155V81.8406L33.7095 87.7907C33.0428 88.1222 32.6932 88.8662 32.8639 89.5872C33.0353 90.3088 33.6832 90.8182 34.4283 90.8182H66.5699C67.3151 90.8182 67.9629 90.3088 68.1337 89.5872C68.3051 88.8662 67.9554 88.1228 67.2881 87.7907L55.3204 81.8406V62.8155C65.7902 60.5371 73.1878 51.1813 72.9964 40.61C72.9292 36.5083 72.2864 35.9808 66.5291 10.2422C66.3628 9.51561 65.7124 9 64.9628 9H57.0882C56.2005 9 55.4811 9.71536 55.4811 10.598C55.4811 11.4807 56.2005 12.196 57.0882 12.196H63.6816C63.6816 12.196 69.4671 37.464 69.5324 37.8641C66.1531 36.2124 62.0977 34.6718 58.5822 34.5688C54.8703 34.4577 51.4759 36.3129 48.1959 38.105C45.0872 39.8035 42.1517 41.4078 39.5069 40.9808C37.3223 40.6288 34.6575 39.0414 31.7653 36.3784L37.3173 12.196H44.2315C45.1192 12.196 45.8386 11.4807 45.8386 10.598C45.8386 9.71536 45.1192 9 44.2315 9H36.0354C35.2858 9 34.6355 9.51561 34.4685 10.2422C28.0559 38.1937 28 37.3341 28 40.9602ZM59.7624 87.6222H41.2358L48.0038 84.2576C48.548 83.9867 48.892 83.433 48.892 82.8281V63.2737C49.4263 63.3112 49.963 63.3324 50.4991 63.3324C51.0352 63.3324 51.572 63.3112 52.1062 63.2737V82.8281C52.1062 83.4336 52.4502 83.9867 52.9945 84.2576L59.7624 87.6222ZM49.7439 40.9059C52.6467 39.3204 55.6474 37.6799 58.4874 37.7636C61.3136 37.846 65.2968 39.1968 69.7728 41.5801C69.4407 51.6213 61.0556 60.2213 50.3384 60.1345C39.3701 60.0465 30.7873 50.803 31.2324 40.1569C34.0096 42.4165 36.6111 43.7518 38.9922 44.1357C42.7575 44.7436 46.3684 42.7505 49.7439 40.9059Z" fill="#A66D03"/>
<path d="M52.5455 11.0455C52.5455 12.1752 51.6298 13.0909 50.5 13.0909C49.3702 13.0909 48.4545 12.1752 48.4545 11.0455C48.4545 9.91566 49.3702 9 50.5 9C51.6298 9 52.5455 9.91566 52.5455 11.0455Z" fill="#A66D03"/>
</svg>
