<?xml version="1.0" encoding="UTF-8"?>
<svg width="50px" height="56px" viewBox="0 0 50 56" version="1.1" xmlns="http://www.w3.org/2000/svg" xmlns:xlink="http://www.w3.org/1999/xlink">
    <title>icon</title>
    <g id="Page-1" stroke="none" stroke-width="1" fill="none" fill-rule="evenodd">
        <g id="Homepage---bar---HOVER" transform="translate(-540.000000, -709.000000)" fill="#A66D03" fill-rule="nonzero">
            <g id="hover" transform="translate(498.000000, 211.000000)">
                <g id="icon" transform="translate(42.000000, 498.000000)">
                    <path d="M8,5 C7.44763043,5 7,5.36154135 7,5.80743877 L7,6.19256123 C7,6.63845865 7.44763043,7 8,7 C8.55236957,7 9,6.63845865 9,6.19256123 L9,5.80743877 C9,5.36154135 8.55223682,5 8,5 Z" id="Path"></path>
                    <path d="M6.19256123,8 L5.80743877,8 C5.36143416,8 5,8.44776318 5,9 C5,9.55223682 5.36143416,10 5.80743877,10 L6.19256123,10 C6.63845865,10 7,9.55223682 7,9 C7,8.44776318 6.63856584,8 6.19256123,8 Z" id="Path"></path>
                    <path d="M7.74936105,6.5392065 L7.46083944,6.25066031 C7.12654058,5.91644656 6.58493781,5.91644656 6.25063895,6.25066031 C5.91645368,6.58487405 5.91645368,7.12663656 6.25063895,7.4608503 L6.53916056,7.7493965 C6.70625319,7.91650337 6.92537059,8 7.14426081,8 C7.36315102,8 7.58226842,7.91638976 7.74936105,7.7493965 C8.08354632,7.41518276 8.08354632,6.87342024 7.74936105,6.5392065 Z" id="Path"></path>
                    <path d="M7.74936105,10.2505858 C7.41517578,9.91647141 6.87345942,9.91647141 6.53916056,10.2505858 L6.25063895,10.5391443 C5.91645368,10.8733722 5.91645368,11.4151578 6.25063895,11.7493858 C6.41773158,11.9164998 6.63684898,12 6.85573919,12 C7.07462941,12 7.29374681,11.9163862 7.46083944,11.7493858 L7.74936105,11.4608273 C8.08354632,11.1265994 8.08354632,10.5848138 7.74936105,10.2505858 Z" id="Path"></path>
                    <path d="M31.4572428,31.037295 L49.594909,10.4646923 C50.0124619,9.99098826 50.1158953,9.33309635 49.8646846,8.74772021 C49.6134739,8.16234407 49.0718009,7.79867148 48.4508819,7.79867148 L17.2326499,7.79867148 C16.9884409,5.78791755 16.0931846,3.93160143 14.6631508,2.50589552 C13.0421629,0.889986113 10.9074025,0 8.65191668,0 C3.88124753,0 0,4.00160157 0,8.92020492 C0,13.8388083 3.88124753,17.8404098 8.65181059,17.8404098 C10.2756628,17.8404098 11.8320445,17.382784 13.1953505,16.5116104 L26.0018973,31.037295 C26.1907296,31.2514517 26.40184,31.4399052 26.6291814,31.602218 L26.6291814,49.6927689 C26.6291814,50.6207082 26.0580165,51.4490067 25.2078466,51.7537261 L19.1306273,53.9321522 C19.1143962,53.9379491 19.0983773,53.9442929 19.0825705,53.9511835 C18.6235381,54.1506839 18.3720092,54.6416692 18.4706688,55.145014 C18.5694345,55.6484681 18.9862448,56 19.4844227,56 L37.9746113,56 C38.4727892,56 38.8897056,55.6483587 38.9883652,55.1449046 C39.0870248,54.6414505 38.8352837,54.1504651 38.3762513,53.9510741 C38.3604446,53.9441835 38.3444257,53.9378397 38.3283007,53.9320428 L32.2510813,51.7536167 C31.4010175,51.4488974 30.8298526,50.6205989 30.8298526,49.6926596 L30.8298526,31.602218 C31.0573001,31.4399052 31.2684105,31.2514517 31.4572428,31.037295 Z M8.65191668,16.1925629 C4.76260664,16.1925629 1.59839164,12.9302284 1.59839164,8.92020492 C1.59839164,4.91018147 4.76260664,1.64784697 8.65191668,1.64784697 C12.1842487,1.64784697 15.0984199,4.28816463 15.618982,7.79867148 L14.7805875,7.79867148 C14.2646933,4.77269682 11.7065453,2.50184864 8.65191668,2.50184864 C5.21930512,2.50184864 2.42660187,5.38115114 2.42660187,8.92020492 C2.42660187,12.4592587 5.21919904,15.3385612 8.65191668,15.3385612 C9.66036633,15.3385612 10.6409155,15.0903888 11.523972,14.6158098 L12.0976828,15.2664829 C11.0498754,15.8741716 9.87444706,16.1925629 8.65191668,16.1925629 Z M11.3390648,6.14973076 C11.0268549,5.82794888 10.5210388,5.82794888 10.2088288,6.14973076 L9.93937144,6.4275438 C9.62726763,6.74932568 9.62726763,7.27093608 9.93937144,7.59271795 C10.0358032,7.69214002 10.1509061,7.76060891 10.2729045,7.79867148 L9.0081521,7.79867148 C8.38723312,7.79867148 7.84556008,8.16234407 7.59434939,8.74772021 C7.34313871,9.33309635 7.44657216,9.99098826 7.86412506,10.4646923 L8.25430787,10.9073338 C8.01455443,11.0495216 7.85266781,11.3157409 7.85266781,11.6214446 L7.85266781,12.0144297 C7.85266781,12.4694306 8.21038844,12.8383532 8.65181059,12.8383532 C9.02013977,12.8383532 9.32937928,12.5811027 9.421992,12.2316489 L10.3978734,13.3385261 C9.8476074,13.569964 9.25671065,13.6906049 8.65181059,13.6906049 C6.10045206,13.6906049 4.02478134,11.5505694 4.02478134,8.92009555 C4.02478134,6.28962166 6.10055815,4.1496956 8.65191668,4.1496956 C10.8246557,4.1496956 12.6597243,5.695058 13.1497337,7.79867148 L10.7360743,7.79867148 C10.8580727,7.76071828 10.9731756,7.69214002 11.0696074,7.59271795 L11.3390648,7.31490491 C11.6511686,6.99312303 11.6511686,6.47140326 11.3390648,6.14973076 Z M31.7262759,53.3101354 L34.6334455,54.3522624 L22.8255885,54.3522624 L25.7327581,53.3101354 C27.224852,52.7751812 28.2274669,51.3214752 28.2274669,49.6927689 L28.2274669,32.2445786 C28.3930665,32.2682036 28.5605757,32.281438 28.72957,32.281438 C28.8985644,32.281438 29.0661796,32.2682036 29.2317792,32.2445786 L29.2317792,49.6927689 C29.2316732,51.3214752 30.234182,52.7751812 31.7262759,53.3101354 Z M30.2744945,29.9288866 C29.8739153,30.3832312 29.3252407,30.6335911 28.729464,30.6335911 C28.1338994,30.6335911 27.5852248,30.3833406 27.1845395,29.9288866 C27.1845395,29.9288866 27.1845395,29.9288866 27.1845395,29.9287772 L14.984484,16.0908439 L19.3001521,16.0908439 C19.7415742,16.0908439 20.0992948,15.7219213 20.0992948,15.2669204 C20.0992948,14.8119196 19.7415742,14.442997 19.3001521,14.442997 L13.5316418,14.442997 L9.12643754,9.44651845 L48.3325965,9.44651845 L43.9274983,14.442997 L23.0184521,14.442997 C22.57703,14.442997 22.2193093,14.8119196 22.2193093,15.2669204 C22.2193093,15.7219213 22.57703,16.0908439 23.0184521,16.0908439 L42.4746561,16.0908439 L30.2744945,29.9288866 Z" id="Shape"></path>
                </g>
            </g>
        </g>
    </g>
</svg>