<?xml version="1.0" encoding="UTF-8"?>
<svg width="49px" height="64px" viewBox="0 0 49 64" version="1.1" xmlns="http://www.w3.org/2000/svg" xmlns:xlink="http://www.w3.org/1999/xlink">
    <title>Shape</title>
    <g id="Page-1" stroke="none" stroke-width="1" fill="none" fill-rule="evenodd">
        <g id="Navigation" transform="translate(-468.000000, -558.000000)" fill="#A66D03" fill-rule="nonzero">
            <g id="Items" transform="translate(402.000000, 353.000000)">
                <g id="Desserts" transform="translate(1.000000, 205.000000)">
                    <g id="muffin" transform="translate(65.000000, 0.000000)">
                        <path d="M48.4781961,34.7221988 C48.1326747,34.4223944 47.6793626,34.2949531 47.2344177,34.3657538 C46.8938184,32.7139002 45.4841702,31.4453467 43.7570559,31.3013039 C43.7664075,31.2851907 43.7772359,31.2705422 43.7865875,31.2544289 C45.1253595,28.9155643 44.0533576,25.8662511 43.825471,25.2803142 C42.914417,22.9282658 41.0878791,21.5547322 39.8189988,20.8467251 C40.7876397,18.4087393 39.8883983,15.7803242 39.6890592,15.2568873 C39.1259874,13.7915567 38.1607919,12.541558 36.820051,11.5415591 C36.2712529,11.1323799 35.7436192,10.8281809 35.289815,10.6055249 C35.6240157,9.07134678 35.8883248,7.01666145 34.9004882,4.78375367 C33.7807432,2.25348296 31.6515051,0.882390649 30.0617132,0.177313266 C29.4632034,-0.0873349554 28.7657623,-0.0541318653 28.196292,0.266180298 C27.6268216,0.58698071 27.2547218,1.13971463 27.1769549,1.78278033 C27.1400402,2.08111989 27.0947582,2.37164683 27.0411089,2.65387316 C26.2028997,1.73395225 24.9920986,1.16168723 23.6616938,1.16168723 C21.150512,1.16168723 19.107408,3.18854047 19.107408,5.67974885 C19.107408,7.06939589 19.7482467,8.32281245 20.7572476,9.1553312 C19.955461,9.33501851 19.1167597,9.46001838 18.2539409,9.58843612 C15.2815716,10.0303303 12.2078102,10.487361 9.79851267,13.3037643 C9.22215159,13.97808 7.46747431,16.0308122 7.60479692,18.8989732 C7.65549297,19.9634252 7.96803721,21.0225062 8.51781966,22.0117629 C7.59003099,22.5034617 6.7862756,23.085004 6.07997489,23.7739681 C4.85883764,24.9658613 4.13038815,26.3042389 3.97337773,27.6440812 C3.80750784,29.0610719 4.22144431,30.3296253 4.80321957,31.3623391 C3.28036632,31.6665379 2.07694812,32.856478 1.7658805,34.3657538 C1.32093568,34.2949531 0.868115724,34.4223944 0.522102187,34.7221988 C0.125392597,35.0669249 -0.0626261844,35.5810846 0.0185861839,36.0976856 L3.7144829,59.5170946 C4.12349735,62.1147481 6.34428389,64 8.994265,64 L11.4478602,64 L11.4488445,64 L11.4503211,64 L37.5529303,64 L37.5544069,64 L37.5553913,64 L40.0089864,64 C42.6589675,64 44.879754,62.1147481 45.2887686,59.5170946 L48.9812199,36.0971974 C49.0629243,35.5810846 48.8749056,35.0669249 48.4781961,34.7221988 Z M23.6616938,3.03766176 C24.9202381,3.03766176 25.9971621,3.91168434 26.2614711,5.10748383 C25.9174263,5.83062757 25.491185,6.45318554 24.9635513,7.00250134 C24.4615118,7.52349691 23.8964712,7.94537147 23.2438198,8.28814461 C21.9670645,8.08941432 20.9979314,6.98687635 20.9979314,5.67974885 C20.9984236,4.22271914 22.1929822,3.03766176 23.6616938,3.03766176 Z M5.85159613,27.8608779 C5.95791038,26.9502342 6.49538797,25.9995517 7.40545773,25.111369 C8.18361894,24.3520925 9.11829841,23.7466243 10.2621609,23.2598085 C11.2435989,22.843305 12.4071493,22.5015085 13.9240961,22.1846142 C14.4349952,22.0776809 14.7623053,21.580611 14.6545145,21.0737757 C14.5467236,20.5664519 14.0446841,20.2422335 13.5347695,20.349167 C12.2462014,20.6182096 11.183551,20.9087367 10.2542857,21.246627 C9.88070937,20.6133269 9.53961785,19.7817848 9.4933514,18.8105944 C9.39146688,16.6802255 10.7346686,15.1084499 11.2416302,14.5161653 C13.1902326,12.2378475 15.7860721,11.8521056 18.5340002,11.4434147 C20.3014746,11.1807196 22.1289968,10.9087472 23.8044306,10.1089434 C23.8147667,10.1045489 23.8246106,10.0996661 23.8344545,10.0952716 C23.8383921,10.0933185 23.8418375,10.0913653 23.8452829,10.0899005 C23.850697,10.0869707 23.8561111,10.0845293 23.8615253,10.0815997 C24.8094941,9.62163921 25.6176792,9.03863207 26.3313628,8.2979101 C27.0647343,7.53423915 27.662752,6.6299431 28.1081889,5.61041293 C28.1116343,5.60260043 28.1150796,5.59381144 28.118525,5.58599895 C28.1200016,5.58209271 28.1214783,5.57867471 28.1229547,5.57476846 C28.5787279,4.52691807 28.8922565,3.32770058 29.0536967,2.00787772 C29.0561576,1.98981136 29.0625562,1.93512392 29.1290027,1.89752633 C29.1580421,1.88092472 29.2190744,1.85846387 29.290935,1.89020209 C30.5760576,2.46002574 32.2918515,3.55523934 33.1689442,5.53765913 C34.0352084,7.49566494 33.6512957,9.34576062 33.3200481,10.737849 C31.1110743,13.6270061 28.5462431,15.8062031 25.6924929,17.2134281 C23.1458729,18.4697744 20.5347752,19.0625473 18.0925007,19.5156718 C17.5791407,19.6108866 17.2405101,20.1011204 17.3369805,20.6099089 C17.4329586,21.1191857 17.927123,21.4546346 18.4399908,21.3594199 C21.0166348,20.881393 23.7803131,20.2515109 26.5341475,18.8931138 C29.5060244,17.4277834 32.1796309,15.2134302 34.4904893,12.3052301 C34.8453623,12.4819878 35.2558535,12.7212453 35.6835714,13.040581 C36.7349012,13.8247598 37.4879604,14.7954619 37.9210926,15.9224138 C38.0190395,16.1797378 38.8523266,18.4893056 37.96982,20.3696748 C37.9063268,20.5044403 37.8324974,20.6396941 37.7498085,20.7715299 C35.3641364,24.5698657 26.0074981,25.3164469 18.4892103,25.9160557 C18.3139887,25.9297275 18.1343373,25.9438877 17.9517327,25.9575595 C14.6353188,26.2129304 10.0928456,26.5625394 7.25779893,29.9556022 C7.23663461,29.9809928 7.21547017,30.0068718 7.19529018,30.0322622 C7.00136505,30.2705432 6.82220585,30.5200547 6.65338286,30.7764022 C6.13313201,29.9697623 5.72313311,28.9580446 5.85159613,27.8608779 Z M5.57055254,33.1621418 L6.905387,33.1621418 C6.90686349,33.1621418 6.90834011,33.1626301 6.90981673,33.1626301 C6.91129322,33.1626301 6.91227768,33.1621418 6.91326213,33.1621418 L32.6127631,33.1621418 C33.1349826,33.1621418 33.5577786,32.7422204 33.5577786,32.2246428 C33.5577786,31.706577 33.1349826,31.2866555 32.6127631,31.2866555 L8.60887594,31.2866555 C8.63004038,31.2598001 8.6497282,31.2319681 8.67089252,31.2056009 C8.67581454,31.1992533 8.68073643,31.1933939 8.68565845,31.1875345 C8.69599453,31.1738627 8.70731506,31.1601908 8.71617452,31.1499369 C11.037369,28.3716195 14.9522928,28.0703503 18.0979148,27.8281631 C18.2824882,27.8140029 18.4641083,27.7998428 18.6408066,27.7856826 C26.5577729,27.1543356 35.473896,26.4424223 38.8459281,22.4556101 C39.8588667,23.010297 41.3408676,24.0967217 42.0609498,25.9541415 C42.4492921,26.953164 42.9035886,28.9980837 42.142162,30.3286487 C41.9177208,30.7207381 41.595825,31.0356792 41.1617084,31.2866555 L36.8505672,31.2866555 C36.3283476,31.2866555 35.9050594,31.706577 35.9050594,32.2246428 C35.9050594,32.7422204 36.3283476,33.1621418 36.8505672,33.1621418 L41.3994389,33.1621418 C41.4004232,33.1621418 41.4009155,33.1626301 41.4018998,33.1626301 C41.4033765,33.1626301 41.4043608,33.1621418 41.4053452,33.1621418 L43.4292535,33.1621418 C44.5283263,33.1621418 45.4221535,34.0493479 45.4221535,35.1391905 L45.4221535,35.3637996 C45.3256832,35.4502253 45.2331504,35.5366511 45.1425864,35.6206354 C44.5868976,36.1377246 44.2197196,36.4790328 43.4110423,36.4790328 C42.6058103,36.4790328 42.2445387,36.1391894 41.6972172,35.6240534 C41.0485035,35.0141906 40.2417948,34.2544258 38.6825192,34.2544258 C37.1232435,34.2544258 36.3160427,35.0141906 35.6673289,35.6240534 C35.1200074,36.1391894 34.7587359,36.4790328 33.9535039,36.4790328 C33.1482719,36.4790328 32.7870004,36.1391894 32.2396789,35.6240534 C31.590965,35.0141906 30.7837642,34.2544258 29.2249807,34.2544258 C27.6657051,34.2544258 26.8585043,35.0141906 26.2097906,35.6240534 C25.662469,36.1391894 25.3011974,36.4790328 24.4959654,36.4790328 C23.6912257,36.4790328 23.3294619,36.1391894 22.7826326,35.6245416 C22.134411,35.0141906 21.3272102,34.254914 19.7679346,34.254914 C18.2091511,34.254914 17.4019503,35.0141906 16.7532365,35.6245416 C16.2064072,36.1391894 15.8451356,36.4790328 15.0399036,36.4790328 C14.2351637,36.4790328 13.8738922,36.1391894 13.3270629,35.6245416 C12.6783491,35.0141906 11.8716405,34.254914 10.3123649,34.254914 C8.75358138,34.254914 7.9463806,35.0141906 7.29766686,35.6245416 C6.75083752,36.1391894 6.38907372,36.4795212 5.58433389,36.4795212 C4.77664094,36.4795212 4.41044742,36.1377246 3.85574295,35.6211236 C3.76567125,35.5376276 3.67363064,35.4516902 3.57765246,35.3657527 L3.57765246,35.1391905 C3.57765246,34.0493479 4.47147967,33.1621418 5.57055254,33.1621418 L5.57055254,33.1621418 Z M43.4208862,59.2270558 L43.4208862,59.227544 C43.1565771,60.905765 41.7213349,62.1240255 40.0089864,62.1240255 L38.591463,62.1240255 L40.5883005,40.9721922 C40.6370279,40.4565678 40.2545919,39.9990487 39.7348333,39.9507089 C39.2145826,39.9023691 38.7543797,40.2817632 38.7056524,40.7973877 L36.6925724,62.1240255 L32.0172063,62.1240255 L32.9966756,40.9277586 C33.0207932,40.4101811 32.6171928,39.971705 32.0954655,39.9477792 C31.5752147,39.9248301 31.1317465,40.3242437 31.1081212,40.8418212 L30.1242221,62.1240255 L25.4468873,62.1240255 L25.4424576,40.8843017 C25.4424576,40.3667241 25.0191694,39.9468027 24.4969499,39.9468027 C23.9747304,39.9468027 23.551442,40.3667241 23.551442,40.8847899 L23.556364,62.1240255 L18.8790292,62.1240255 L17.8956225,40.8418212 C17.8715049,40.3242437 17.4300054,39.9238535 16.9077859,39.9477792 C16.3865507,39.971705 15.9829503,40.4101811 16.0065757,40.9277586 L16.986045,62.1240255 L12.3111712,62.1240255 L10.2533014,40.3242437 C10.204574,39.8081309 9.74240231,39.4287368 9.22362821,39.4775648 C8.70386966,39.5259046 8.32192587,39.9829354 8.37065327,40.4990482 L10.4122806,62.1240255 L8.99475729,62.1240255 C7.28240877,62.1240255 5.8471664,60.905765 5.5828574,59.2270558 L1.99573587,36.4990524 C2.18178575,36.6347944 2.36045278,36.8012981 2.56126858,36.9883097 C3.21490434,37.5971958 4.02801147,38.3550075 5.58433389,38.3550075 C7.14311738,38.3550075 7.95031816,37.5952427 8.59903203,36.9853799 C9.14635353,36.4702438 9.50762504,36.1304004 10.3123649,36.1304004 C11.1171047,36.1304004 11.4788684,36.4702438 12.0256977,36.9853799 C12.6739194,37.5952427 13.4811202,38.3550075 15.0399036,38.3550075 C16.5991792,38.3550075 17.4058878,37.5952427 18.0546016,36.9853799 C18.6019231,36.4702438 18.9631947,36.1304004 19.7679346,36.1304004 C20.5731666,36.1304004 20.9344381,36.4702438 21.4812674,36.9853799 C22.1299811,37.5952427 22.9371819,38.3550075 24.4959654,38.3550075 C26.0552411,38.3550075 26.8624419,37.5957309 27.5111557,36.9853799 C28.0584772,36.4707321 28.4197487,36.1304004 29.2249807,36.1304004 C30.0297206,36.1304004 30.3914844,36.4707321 30.9388059,36.9853799 C31.5870274,37.5952427 32.3942282,38.3550075 33.9535039,38.3550075 C35.5127795,38.3550075 36.3199803,37.5957309 36.9686942,36.9853799 C37.5155234,36.4707321 37.8772872,36.1304004 38.6825192,36.1304004 C39.4877512,36.1304004 39.8490227,36.4707321 40.3963442,36.9853799 C41.0450581,37.5952427 41.8517667,38.3550075 43.4110423,38.3550075 C44.9673648,38.3550075 45.7814563,37.5971958 46.4360764,36.9887979 C46.6378767,36.8012981 46.817528,36.6338178 47.0045624,36.4980758 L43.4208862,59.2270558 Z" id="Shape"></path>
                    </g>
                </g>
            </g>
        </g>
    </g>
</svg>