<?xml version="1.0" encoding="UTF-8"?>
<svg width="33px" height="60px" viewBox="0 0 33 60" version="1.1" xmlns="http://www.w3.org/2000/svg" xmlns:xlink="http://www.w3.org/1999/xlink">
    <title>wine</title>
    <g id="Page-1" stroke="none" stroke-width="1" fill="none" fill-rule="evenodd">
        <g id="Navigation" transform="translate(-933.000000, -561.000000)" fill="#A66D03" fill-rule="nonzero">
            <g id="Items" transform="translate(402.000000, 353.000000)">
                <g id="Drinks" transform="translate(458.000000, 208.000000)">
                    <g id="wine" transform="translate(73.000000, 0.000000)">
                        <path d="M0,23.4375 C0,31.2355042 5.49395507,37.8396607 12.9637819,39.4647217 L12.9637819,53.4164428 L4.18698854,57.7798462 C3.69808449,58.0229187 3.44166312,58.568573 3.56688147,59.09729 C3.69256015,59.6264648 4.16765329,60 4.71410251,60 L28.284615,60 C28.8310643,60 29.3061574,59.6264648 29.4313758,59.09729 C29.5570544,58.568573 29.3006331,58.0233764 28.8112687,57.7798462 L20.0349357,53.4164428 L20.0349357,39.4647217 C27.712846,37.7938842 33.1377468,30.9329224 32.9973364,23.1806946 C32.9480777,20.1727295 32.4766675,19.7859192 28.2546916,0.910949766 C28.1326958,0.378112734 27.6557611,0 27.1060894,0 L21.3313139,0 C20.6803625,0 20.1527882,0.524597109 20.1527882,1.171875 C20.1527882,1.81915289 20.6803625,2.34375 21.3313139,2.34375 L26.1664915,2.34375 C26.1664915,2.34375 30.4091837,20.8735657 30.4570613,21.1669922 C27.978935,19.9557495 25.0049992,18.8259888 22.4269744,18.7504577 C19.7048564,18.6689759 17.2156814,20.0294495 14.8102922,21.3436889 C12.5305817,22.5892639 10.377931,23.7657165 8.43842758,23.4526062 C6.8363693,23.1944275 4.88213445,22.0303345 2.76124877,20.0775146 L6.83268641,2.34375 L11.9031088,2.34375 C12.5540602,2.34375 13.0816345,1.81915289 13.0816345,1.171875 C13.0816345,0.524597109 12.5540602,0 11.9031088,0 L5.89262814,0 C5.34295648,0 4.86602177,0.378112734 4.74356565,0.910949766 C0.0409721505,21.4086914 0,20.7783509 0,23.4375 Z M23.2924542,57.65625 L9.70626341,57.65625 L14.6694215,55.1889038 C15.068555,54.9902344 15.3208332,54.584198 15.3208332,54.140625 L15.3208332,39.8007202 C15.7126009,39.8281861 16.1062099,39.84375 16.4993588,39.84375 C16.8925076,39.84375 17.2861167,39.8281861 17.6778844,39.8007202 L17.6778844,54.140625 C17.6778844,54.5846557 17.9301625,54.9902344 18.3292961,55.1889038 L23.2924542,57.65625 Z M15.9455438,23.3976745 C18.0742557,22.2349548 20.274784,21.0319519 22.3574598,21.0932923 C24.4300076,21.1537171 27.3510018,22.1443177 30.6333799,23.8920593 C30.3898485,31.2556458 24.240799,37.5622559 16.3815062,37.4986267 C8.33806881,37.434082 2.04400538,30.6555176 2.37040171,22.8483581 C4.40704131,24.5054626 6.31477967,25.4846191 8.0609312,25.7661438 C10.8221799,26.2120056 13.4701796,24.7503662 15.9455438,23.3976745 Z" id="Shape"></path>
                        <path d="M18,1.5 C18,2.3285157 17.3285157,3 16.5,3 C15.6714843,3 15,2.3285157 15,1.5 C15,0.6714843 15.6714843,0 16.5,0 C17.3285157,0 18,0.6714843 18,1.5 Z" id="Path"></path>
                    </g>
                </g>
            </g>
        </g>
    </g>
</svg>