<?xml version="1.0" encoding="UTF-8"?>
<svg width="30px" height="30px" viewBox="0 0 30 30" version="1.1" xmlns="http://www.w3.org/2000/svg" xmlns:xlink="http://www.w3.org/1999/xlink">
    <title>Group</title>
    <g id="Page-1" stroke="none" stroke-width="1" fill="none" fill-rule="evenodd">
        <g id="Homepage---restaurant" transform="translate(-145.000000, -78.000000)" fill="#000000" fill-rule="nonzero">
            <g id="navigation" transform="translate(145.857864, 78.857864)">
                <g id="menu-icon" transform="translate(0.000000, 0.000000)">
                    <g id="Group" transform="translate(14.142136, 14.142136) rotate(-45.000000) translate(-14.142136, -14.142136) translate(4.142136, 4.142136)">
                        <path d="M13.3697183,10.9908062 C13.2529072,10.8742551 9.29504281,8.14824983 9.18842714,8.27612121 C9.08210279,8.40399259 12.8675177,11.3374301 12.9843289,11.4539813 L19.1916331,17.6431483 C19.339322,17.7925442 19.4230707,18.0127318 19.4275858,18.2630536 C19.4329748,18.5608887 19.3262135,18.8588833 19.1419665,19.0605757 C18.9578651,19.2621087 18.6860825,19.3792976 18.4134261,19.3732388 C18.1847559,19.3682962 17.9836135,19.2766178 17.8485961,19.1166988 L12.3159418,12.467386 C12.2094719,12.3393552 8.53193615,9.11582323 8.41512498,9.23221488 C8.29831384,9.34876601 11.7863591,12.7613946 11.8928291,12.889266 L17.4267942,19.5401732 C17.6700294,19.828123 18.0163847,19.9913902 18.402211,19.9996811 C18.4122557,19.9998406 18.4221651,20 18.4322149,20 C18.8468799,20 19.261545,19.815846 19.5465817,19.5036613 C19.8387552,19.1838233 20.008146,18.7155461 19.9996983,18.2507766 C19.9921245,17.8284184 19.8431247,17.4492685 19.5786246,17.1814082 L13.3697183,10.9908062 Z" id="Path"></path>
                        <path d="M3.68423133,8.02837538 C4.18959649,8.49330941 4.84616714,8.75836532 5.53304106,8.77481491 C5.5352167,8.77497008 5.5373923,8.77497008 5.53941254,8.77497008 L6.73848924,8.77869452 C7.20593647,8.78009118 7.65520175,8.97826237 7.97051106,9.32137624 L8.49872023,9.90037125 C8.55901595,9.96648005 8.64153407,10 8.7245184,10 C8.79786783,10 8.87152805,9.97377376 8.92995895,9.92054531 C9.05474624,9.80710511 9.0637595,9.61421023 8.95016111,9.48975193 L8.42117499,8.909981 C7.99040243,8.4410121 7.37781037,8.17099031 6.74050949,8.16881774 L5.54469617,8.1650933 C5.01337898,8.1515922 4.50537201,7.94845513 4.11174042,7.59261607 L0.636811037,3.46749005 C0.601379571,3.42527974 0.604021384,3.3641369 0.64302709,3.32518547 C0.66975616,3.29833848 0.701147211,3.29445883 0.717464342,3.29445883 C0.733781473,3.29445883 0.765172563,3.29833848 0.792056985,3.32518547 L3.95509587,6.48397488 C4.26776337,6.79620694 4.77654734,6.79620694 5.08921483,6.48381967 L5.46093484,6.11277251 L5.46093484,6.1126173 L6.12092434,5.4535469 C6.12092434,5.4535469 6.12107973,5.4535469 6.12107973,5.45339168 C6.12107973,5.45339168 6.12123516,5.45323651 6.12123516,5.45323651 L6.49279973,5.08218931 C6.80546723,4.76995722 6.80546723,4.26188175 6.49279973,3.94964966 L3.32976088,0.791015418 C3.28873493,0.750046594 3.28873493,0.683161876 3.32976088,0.642193053 C3.36876663,0.603241663 3.42999474,0.600603529 3.4722639,0.635985655 L7.60314233,4.10623125 C7.95963299,4.49915951 8.16305333,5.00661428 8.17657326,5.53703637 L8.1801475,6.73133965 C8.1823231,7.36759789 8.45287682,7.9793369 8.92312129,8.41044068 L9.48909299,8.9251891 C9.61388024,9.0386293 9.80688872,9.02962856 9.92048711,8.90517026 C10.0339301,8.78055674 10.0249168,8.58781707 9.90028492,8.47437687 L9.33524565,7.96040436 C8.99072089,7.64475821 8.79242878,7.19596333 8.79087474,6.72932226 L8.78714511,5.53191528 C8.78714511,5.52974267 8.78714511,5.5275701 8.78698972,5.52539749 C8.7705172,4.83948007 8.50509167,4.18382372 8.0395093,3.6791623 C8.03080682,3.66969603 8.0214827,3.66069528 8.01153702,3.65231532 L3.86527388,0.169344578 C3.57871381,-0.0715024451 3.16285982,-0.0535009923 2.89805594,0.210934141 C2.61879974,0.489801464 2.61879974,0.943407046 2.89805594,1.22211919 L6.06109483,4.38090861 C6.13568747,4.45539738 6.13568747,4.5765968 6.06109483,4.65108557 L5.90522728,4.80658086 L2.37994789,1.28636574 C2.26075506,1.16718371 2.06743579,1.16718371 1.94824295,1.28636574 C1.82905012,1.4053926 1.82905012,1.59844266 1.94824295,1.71746951 L5.47352237,5.23783981 L5.24508239,5.46580648 L1.719803,1.94559135 C1.60061017,1.8265645 1.4072909,1.8265645 1.28809806,1.94559135 C1.16874983,2.06461821 1.16874983,2.25766827 1.28809806,2.37669513 L4.81322205,5.89706543 L4.65750993,6.05271593 C4.58291729,6.1272047 4.46154885,6.1272047 4.38695621,6.05271593 L1.22376193,2.89408169 C1.08856274,2.75907082 0.908763401,2.68458205 0.717464342,2.68458205 C0.526165283,2.68458205 0.346365942,2.75907082 0.211166797,2.89408169 C-0.0536370862,3.15851682 -0.0715082502,3.57379172 0.169519238,3.86010792 L3.6575023,8.00044205 C3.66573856,8.01037389 3.67475186,8.01968502 3.68423133,8.02837538 Z" id="Path"></path>
                    </g>
                </g>
            </g>
        </g>
    </g>
</svg>