<?xml version="1.0" encoding="UTF-8"?>
<svg width="28px" height="25px" viewBox="0 0 28 25" version="1.1" xmlns="http://www.w3.org/2000/svg" xmlns:xlink="http://www.w3.org/1999/xlink">
    <title>guests-icon</title>
    <g id="Page-1" stroke="none" stroke-width="1" fill="none" fill-rule="evenodd">
        <g id="Book-a-table" transform="translate(-275.000000, -424.000000)" fill="#A66D03" fill-rule="nonzero">
            <g id="book" transform="translate(145.000000, 187.000000)">
                <g id="guests-icon" transform="translate(130.000000, 237.000000)">
                    <path d="M17.4775582,18 L15.5224418,18 C15.2339146,18 15,18.2238667 15,18.5 C15,18.7762 15.2339146,19 15.5224418,19 L17.4775582,19 C17.7660854,19 18,18.7762 18,18.5 C18,18.2238667 17.7660854,18 17.4775582,18 Z" id="Path"></path>
                    <path d="M26.2558979,13.9174966 L24.012417,13.0381641 L22.8685663,11.8758241 C22.7951221,11.8011928 22.7004742,11.7607791 22.6037937,11.7544715 L22.6037937,10.8295898 C23.1428971,10.2454893 23.5266526,9.50581845 23.6815061,8.67253745 C23.7776373,8.67694723 23.8747022,8.66907661 23.9704489,8.64920468 C24.5186161,8.53516442 24.9164891,8.01832701 24.9164891,7.42038314 L24.9164891,7.11510354 C24.9164891,6.76918698 24.7784448,6.4516828 24.5536627,6.22466285 C24.9174779,4.21402634 24.6178234,2.57548596 23.683209,1.47879036 C22.7791918,0.418042844 21.3227228,-0.0889702443 19.4714568,0.0127896214 C17.7610917,0.106734687 16.6569569,0.906412051 16.3071495,1.19896469 C16.1156563,1.22207417 15.7894696,1.29039785 15.4593278,1.49168478 C15.0017436,1.77067316 14.456323,2.35672737 14.456323,3.5642815 C14.456323,4.6177166 14.6219982,5.49721657 14.7419698,5.99619158 C14.339867,6.19524571 14.0708646,6.62662269 14.0708646,7.11979242 L14.0708646,7.42032732 C14.0708646,8.01827119 14.4687377,8.5351086 15.0169049,8.64914886 C15.1126515,8.66907661 15.2097714,8.67689141 15.3058476,8.67248163 C15.4607011,9.50576263 15.8445115,10.2454335 16.38356,10.829534 L16.38356,11.7544156 C16.2868795,11.7607233 16.1921766,11.801137 16.1187874,11.8757683 L14.9749367,13.0381083 L12.7314558,13.9174408 C12.5373808,13.9934676 12.351985,14.0921015 12.1804871,14.2104958 C11.9922898,14.3404447 11.9434002,14.6007892 12.0712272,14.7920286 C12.1509336,14.9112601 12.2805184,14.9754531 12.4123554,14.9754531 C12.4920618,14.9754531 12.5725922,14.9519529 12.6435095,14.9030546 C12.7630967,14.8204968 12.8924617,14.7517265 13.0279791,14.6985859 L15.1100697,13.8824974 L16.7020012,16.3090488 C16.8993173,16.6098628 17.2156162,16.8028325 17.5696534,16.8384457 C17.6090397,16.8424089 17.648426,16.8443626 17.6875376,16.8443626 C17.8924892,16.8443626 18.0913433,16.7896032 18.2673457,16.6884015 L17.9257231,24.5628177 C17.9156705,24.7938009 18.0918377,24.9893384 18.3192016,24.9994976 C18.325354,25 18.3315064,25 18.3376588,25 C18.5568378,25 18.7392122,24.8243345 18.7489352,24.5996589 L19.0660032,17.2905319 L19.9212956,17.2905319 L20.2383636,24.5996589 C20.2480865,24.8243903 20.430461,25 20.64964,25 C20.6557924,25 20.6619448,25 20.6680972,24.9994976 C20.8954061,24.9893384 21.0715733,24.7938009 21.0615757,24.5628177 L20.7199531,16.6884015 C20.8959554,16.7896032 21.0947546,16.8443626 21.2997611,16.8443626 C21.3388728,16.8443626 21.3782591,16.8424089 21.4176454,16.8384457 C21.7716826,16.8028325 22.0879266,16.6098628 22.2852975,16.3090488 L23.8772291,13.8824974 L25.9593196,14.6985859 C26.2513386,14.8130169 26.5027077,14.9956041 26.7003533,15.2234056 L25.2759097,16.6708741 C24.761251,17.1938517 24.4778565,17.8891456 24.4778565,18.628649 L24.4778565,24.5812942 C24.4778565,24.8125006 24.6623184,25 24.889847,25 C25.1173757,25 25.3018376,24.8125006 25.3018376,24.5812942 L25.3018376,18.628649 C25.3018376,18.1128164 25.4995381,17.6277405 25.8585193,17.2629568 L27.1086635,15.9926052 C27.1588714,16.1797697 27.1823274,16.3765352 27.1744172,16.5777105 L26.8553167,24.5643249 C26.8460881,24.7953639 27.0229145,24.9902315 27.2502234,24.9996651 C27.2559364,25 27.2615944,25 27.2672524,25 C27.4870356,25 27.6696298,24.823553 27.6785838,24.5983751 L27.9977941,16.6115374 C28.0445413,15.4268136 27.3445418,14.3441847 26.2558979,13.9174966 Z M16.1123603,8.49988618 C16.0396852,8.09792633 15.6733981,7.80576444 15.2780519,7.8355165 C15.2467956,7.83780512 15.2146054,7.83557232 15.1821955,7.82887392 C15.018388,7.79482372 14.8948458,7.61915817 14.8948458,7.42038314 L14.8948458,7.1197366 C14.8948458,6.92553881 15.0225629,6.75059892 15.1855463,6.7215167 C15.3230962,6.6969559 15.4548234,6.74825448 15.5381553,6.85872226 C15.6137968,6.95891917 15.714707,7.03059205 15.8298996,7.0658703 C15.9986509,7.11767126 16.1847059,7.08724936 16.327749,6.98465219 C16.5853804,6.79983216 16.8126894,6.57404025 17.0033586,6.31347247 C17.1391507,6.12792678 17.1011377,5.86568441 16.9185984,5.72775318 C16.7359493,5.58976613 16.4779333,5.62833776 16.3421412,5.81388345 C16.2470538,5.94383241 16.1396066,6.06178008 16.0213379,6.16616349 C15.8907094,6.0526256 15.7381081,5.97057019 15.5745753,5.92373721 C15.4687212,5.51167395 15.2803042,4.6288806 15.2803042,3.56416986 C15.2803042,2.92296548 15.4748186,2.47244224 15.8584093,2.22515963 C16.1577342,2.03218987 16.4745275,2.02448671 16.4743078,2.02443089 C16.5796126,2.02443089 16.6821158,1.98228679 16.7585813,1.90877185 C16.7686339,1.89917081 17.7814166,0.944090554 19.5158419,0.848805808 C21.1034888,0.761726603 22.3291333,1.16898935 23.0602243,2.02683115 C23.7970832,2.891483 24.0424648,4.2189385 23.776264,5.88042089 C23.6659054,5.87645767 23.5451098,5.88494231 23.4248635,5.90531661 L23.0378121,4.96073052 C22.9588197,4.76803987 22.7519455,4.66399138 22.5532013,4.71662964 C22.5149136,4.72678889 18.710263,5.7068765 17.1149806,3.68864847 C16.9725417,3.50840568 16.7132623,3.47960256 16.5357768,3.62439964 C16.3584011,3.76919673 16.3300562,4.03266715 16.4726049,4.21296576 C18.1016706,6.27395191 21.3340937,5.82560565 22.4101032,5.60695869 L22.7094281,6.33736344 C22.838134,6.65135095 23.1673968,6.82283 23.4919355,6.74507274 C23.6251458,6.71319952 23.7524234,6.71247386 23.8002144,6.7220749 C23.9668233,6.75579018 24.092453,6.92464569 24.092453,7.1149919 L24.092453,7.42032732 C24.092453,7.61915817 23.9689108,7.7947679 23.8051033,7.8288181 C23.7727483,7.83557232 23.7403933,7.83780512 23.7092468,7.83546068 C23.3139556,7.806211 22.9476685,8.09781469 22.8749384,8.49988618 C22.575229,10.1579635 21.1532024,11.3614428 19.4936494,11.3614428 C17.8340964,11.3614428 16.4120697,10.1579635 16.1123603,8.49988618 Z M17.9400055,15.9002789 C17.8355246,16.0064486 17.7140698,16.0116398 17.6508979,16.0052763 C17.587781,15.9989687 17.4696221,15.9696074 17.3876634,15.8446822 L15.7839214,13.4002126 L16.428879,12.74483 L18.8909346,14.9339788 L17.9400055,15.9002789 Z M19.1023133,16.4532877 L19.1272524,15.8778951 L19.4935945,15.5056315 L19.8599365,15.8778951 L19.8848756,16.4532877 L19.1023133,16.4532877 Z M19.4936494,14.3572466 L17.2075411,12.3245612 L17.2075411,11.5233208 C17.8722193,11.9528557 18.6586269,12.1987429 19.4936494,12.1987429 C20.3286719,12.1987429 21.1151344,11.9528557 21.7798126,11.5233208 L21.7798126,12.3245612 L19.4936494,14.3572466 Z M21.5997452,15.8446822 C21.5177316,15.9696632 21.3995727,15.9989687 21.3365107,16.0052763 C21.2732839,16.0116398 21.1518291,16.0064486 21.0473483,15.9002231 L20.0964191,14.933923 L22.5584748,12.7447741 L23.2034323,13.4001568 L21.5997452,15.8446822 Z" id="Shape"></path>
                    <path d="M13.3319391,16.1115229 L11.2791612,15.2192479 L10.1570335,14.1017969 C10.0818663,14.0268871 9.98523065,13.9866971 9.8868574,13.9804453 L9.8868574,13.3218308 C10.8458705,12.6942519 11.5476557,11.6961431 11.7731575,10.5067966 C11.8835821,10.5117087 11.9950718,10.5011588 12.104936,10.4753144 C12.6428779,10.3485482 13.033288,9.83517612 13.033288,9.25465312 L13.033288,8.94943198 C13.033288,8.52531527 12.8219677,8.14378885 12.4945613,7.91995258 C12.5908606,7.54004492 12.6399631,7.15137361 12.6399631,6.76013459 C12.6399631,5.02571047 11.6984947,3.49804185 10.2793975,2.62089392 C10.2642631,1.17332631 9.02352703,0 7.49983469,0 C5.97614235,0 4.73540623,1.17332631 4.72027188,2.62089392 C3.30123074,3.49804185 2.35976231,5.02576629 2.35976231,6.76013459 C2.35976231,7.1502014 2.40852853,7.53775632 2.50426729,7.9166034 C2.17702909,8.13932329 1.96643747,8.52263593 1.96643747,8.95400918 L1.96643747,9.25465312 C1.96643747,9.83517612 2.35684754,10.3485482 2.89478947,10.4753144 C3.00465361,10.5012146 3.11608724,10.5117087 3.22656797,10.5067966 C3.45206973,11.6961431 4.15391102,12.6942519 5.11292409,13.3218308 L5.11292409,13.9804453 C5.01455084,13.9866971 4.91791523,14.0268871 4.84274798,14.1017969 L3.72062029,15.2192479 L1.66789847,16.1115229 C0.62346043,16.5655589 -0.0458139895,17.6323816 0.00244775885,18.7662435 L0.250707089,24.5989926 C0.260292175,24.8239452 0.446444633,25 0.670432956,25 C0.676430641,25 0.68248438,25 0.688538118,24.9995534 C0.92054204,24.989785 1.10058471,24.7945842 1.09077541,24.5635472 L0.842460024,18.7307423 C0.826484881,18.3549094 0.924577865,17.9902405 1.10899268,17.6763674 L2.21239862,18.9949361 C2.56110516,19.4116288 2.75308715,19.9397931 2.75308715,20.4821355 L2.75308715,24.5812978 C2.75308715,24.8125022 2.94131357,25 3.17348565,25 C3.40565773,25 3.59388416,24.8125022 3.59388416,24.5812978 L3.59388416,20.4821355 C3.59388416,19.7443131 3.3326205,19.0258042 2.85829888,18.458957 L1.68527495,17.0571614 C1.78499347,16.9887267 1.89098995,16.9281067 2.00427333,16.8788739 L3.79326515,16.1011963 L5.05748754,18.1446931 C5.18231787,18.3464807 5.38870551,18.4832943 5.62379235,18.5201352 C5.66605641,18.5267777 5.70843258,18.5300153 5.75064059,18.5300153 C5.94284679,18.5300153 6.13006426,18.4621946 6.27849295,18.3360424 L7.07960434,17.6553234 L7.07960434,24.581242 C7.07960434,24.8124464 7.26783077,25 7.5,25 C7.73217493,25 7.92040135,24.8124464 7.92040135,24.581242 L7.92040135,17.655435 L8.72145669,18.3361541 C8.86988539,18.4623062 9.05710286,18.5301269 9.24930905,18.5301269 C9.29146101,18.5301269 9.33389323,18.5268336 9.3761573,18.5202469 C9.61124414,18.483406 9.81763178,18.3465923 9.94246211,18.1448048 L11.2066845,16.1012521 L12.9956763,16.8789297 C13.1089036,16.9281625 13.2149562,16.9887825 13.3146747,17.0572172 L12.1416508,18.4590128 C11.6673291,19.0258042 11.4060655,19.7443689 11.4060655,20.4821913 L11.4060655,24.5813536 C11.4060655,24.8125581 11.5942919,25 11.826464,25 C12.0586361,25 12.2468625,24.8125581 12.2468625,24.5813536 L12.2468625,20.4821913 C12.2468625,19.9398489 12.4389005,19.4116846 12.787551,18.9949919 L13.890957,17.6764232 C14.0753718,17.9902963 14.1734648,18.3549653 14.1574896,18.7307981 L13.9092303,24.563603 C13.899421,24.7945842 14.0794637,24.989785 14.3114676,24.9996093 C14.3175213,25 14.323519,25 14.3295727,25 C14.5535611,25 14.7397135,24.8240569 14.7492986,24.5990484 L14.9975579,18.7662993 C15.0457636,17.6324374 14.3764332,16.5655589 13.3319391,16.1115229 Z M7.4999468,0.837292798 C8.3943306,0.837292798 9.14891789,1.40547969 9.37206542,2.17534251 C8.79169127,1.95719982 8.16019666,1.83724368 7.4999468,1.83724368 C6.83969693,1.83724368 6.20820232,1.95719982 5.62782818,2.17534251 C5.8509757,1.40547969 6.60550694,0.837292798 7.4999468,0.837292798 Z M4.04959614,10.3342584 C3.97549389,9.93219045 3.60111501,9.64014272 3.19831719,9.6698387 C3.16261134,9.67235058 3.12572838,9.66933633 3.0885091,9.66051684 C2.92819714,9.62272703 2.80729053,9.44823521 2.80729053,9.25465312 L2.80729053,8.95400918 C2.80729053,8.75981307 2.93761406,8.5848747 3.10392371,8.55579273 C3.24428076,8.53123214 3.37864012,8.5825861 3.46361667,8.69294129 C3.54080184,8.79319314 3.64377145,8.86486541 3.76142697,8.90025498 C3.93356615,8.9520555 4.12353022,8.92163386 4.26938047,8.81898176 C4.5282899,8.63701013 4.7572109,8.41518336 4.94980947,8.15975323 C5.08921361,7.97487898 5.05171406,7.7124156 4.86606608,7.57364827 C4.68036205,7.43482513 4.41685627,7.47216839 4.27745213,7.65704264 C4.18210574,7.78347385 4.07476399,7.89840624 3.95671609,8.00050014 C3.77684159,7.84733138 3.5562725,7.75143345 3.32230672,7.72235148 C3.24175837,7.40702701 3.20055932,7.08455764 3.20055932,6.76019041 C3.20055932,4.50742623 5.12923555,2.67459229 7.4999468,2.67459229 C9.87060199,2.67459229 11.7992782,4.50737041 11.7992782,6.76019041 C11.7992782,7.08394363 11.7583034,7.40574316 11.6780353,7.72050943 C11.5673864,7.7292731 11.4549438,7.7473028 11.3508532,7.77420781 L11.0348256,7.51542852 C10.8760271,7.38536903 10.6761416,7.32028347 10.4738458,7.33228467 C9.85591607,7.36862318 6.69126823,7.45185008 5.06763315,5.51681061 C4.91875603,5.33941617 4.65368076,5.3157487 4.47548785,5.46400534 C4.29729493,5.61226199 4.27358446,5.87628831 4.42246158,6.05368275 C5.22323665,7.00802908 6.39771797,7.65335855 7.91322655,7.97175309 C9.07358248,8.21551693 10.1050722,8.19184946 10.5092153,8.16890763 L11.0022587,8.57265022 C11.1379633,8.68378689 11.3282637,8.69947217 11.4802238,8.61138897 C11.5515234,8.57270604 11.7903097,8.53575352 11.8945125,8.55646256 C12.0645217,8.59012173 12.1926591,8.7590316 12.1926591,8.94943198 L12.1926591,9.25465312 C12.1926591,9.44829103 12.0717525,9.62278285 11.9114405,9.66051684 C11.8742773,9.66928051 11.8373383,9.67246222 11.8016325,9.66978288 C11.3990588,9.6406451 11.0244558,9.93219045 10.9502975,10.3342026 C10.6444716,11.9923215 9.19342408,13.1957903 7.50000285,13.1957903 C5.80652557,13.1957903 4.35542203,11.9923215 4.04959614,10.3342584 Z M5.75675038,17.6787676 L4.49230379,15.6348801 L5.1400538,14.9898297 L6.88095204,16.7234723 L5.75675038,17.6787676 Z M7.4999468,16.155732 L5.95377715,14.6160064 L5.95377715,13.7499107 C6.43645069,13.9328871 6.9580251,14.0330831 7.4999468,14.0330831 C8.04186849,14.0330831 8.56344291,13.9328871 9.04611644,13.7499665 L9.04611644,14.6160064 L7.4999468,16.155732 Z M9.24314321,17.6787676 L8.11894155,16.7234723 L9.85983979,14.9898297 L10.5075898,15.6348801 L9.24314321,17.6787676 Z" id="Shape"></path>
                    <path d="M6.58391123,19 L5.41608877,19 C5.18629681,19 5,19.2238667 5,19.5 C5,19.7761333 5.18629681,20 5.41608877,20 L6.58391123,20 C6.81370319,20 7,19.7761333 7,19.5 C7,19.2238667 6.81370319,19 6.58391123,19 Z" id="Path"></path>
                </g>
            </g>
        </g>
    </g>
</svg>