<?xml version="1.0" encoding="UTF-8"?>
<svg width="68px" height="56px" viewBox="0 0 68 56" version="1.1" xmlns="http://www.w3.org/2000/svg" xmlns:xlink="http://www.w3.org/1999/xlink">
    <title>burger</title>
    <g id="Page-1" stroke="none" stroke-width="1" fill="none" fill-rule="evenodd">
        <g id="Navigation" transform="translate(-914.000000, -367.000000)" fill="#A66D03" fill-rule="nonzero">
            <g id="Items" transform="translate(402.000000, 353.000000)">
                <g id="Main" transform="translate(457.000000, 14.000000)">
                    <g id="burger" transform="translate(55.000000, 0.000000)">
                        <path d="M21.5002929,20 C22.3286468,20 23,19.3285157 23,18.5 C23,17.6714845 22.3286468,17 21.5002929,17 L21.4991213,17 C20.6707674,17 20,17.6714845 20,18.5 C20,19.3285157 20.6719391,20 21.5002929,20 Z" id="Path"></path>
                        <path d="M63.3515625,46.6666667 L57.9026184,46.6666667 C58.7384033,45.5515625 59.234375,44.1661459 59.234375,42.6666667 L59.234375,38.6666667 L60.5625,38.6666667 C62.7596131,38.6666667 64.546875,36.8718749 64.546875,34.6661459 C64.546875,32.4609375 62.7596131,30.6666667 60.5625,30.6666667 L59.0055848,30.6666667 C59.1534424,30.2489584 59.234375,29.8005208 59.234375,29.3333333 L59.234375,26.9692708 C59.234375,26.5020833 59.1534424,26.0531251 59.0055848,25.6359375 L60.5625,25.6359375 C62.7596131,25.6359375 64.546875,23.8416667 64.546875,21.6359375 C64.546875,19.4302083 62.7596131,17.6359375 60.5625,17.6359375 L59.0055848,17.6359375 C59.1534424,17.21875 59.234375,16.7703125 59.234375,16.3026041 C59.234375,11.8270833 56.5257264,7.66614587 51.6069946,4.5864584 C46.88385,1.62864587 40.6307678,0 34,0 C27.3692322,0 21.11615,1.62864587 16.3930054,4.5864584 C11.4742736,7.66614587 8.765625,11.8270833 8.765625,16.3026041 C8.765625,16.7703125 8.84655762,17.21875 8.99389648,17.6359375 L7.4375,17.6359375 C5.24038693,17.6359375 3.453125,19.4302083 3.453125,21.6359375 C3.453125,23.8416667 5.24038693,25.6359375 7.4375,25.6359375 L8.99441525,25.6359375 C8.84655762,26.0531251 8.765625,26.5020833 8.765625,26.9692708 L8.765625,29.3333333 C8.765625,29.8005208 8.84655762,30.2489584 8.99441525,30.6666667 L7.4375,30.6666667 C5.24038693,30.6666667 3.453125,32.4609375 3.453125,34.6666667 C3.453125,36.8718749 5.24038693,38.6666667 7.4375,38.6666667 L8.765625,38.6666667 L8.765625,42.6666667 C8.765625,44.1661459 9.26159668,45.5515625 10.0973816,46.6666667 L4.6484375,46.6666667 C2.08505252,46.6666667 0,48.7598959 0,51.3333333 C0,53.90625 2.08505252,56 4.6484375,56 L63.3515625,56 C65.9149475,56 68,53.90625 68,51.3333333 C68,48.7598959 65.9149475,46.6666667 63.3515625,46.6666667 Z M6.109375,21.6359375 C6.109375,20.9005208 6.70547482,20.3026041 7.4375,20.3026041 L15.40625,20.3026041 C16.1398316,20.3026041 16.734375,19.7057292 16.734375,18.9692708 C16.734375,18.2328125 16.1398316,17.6359375 15.40625,17.6359375 L12.75,17.6359375 C12.0174561,17.6359375 11.421875,17.0380208 11.421875,16.3026041 C11.421875,12.78125 13.6864319,9.4239584 17.7984314,6.8489584 C22.106018,4.15208333 27.8594971,2.66666667 34,2.66666667 C40.1399842,2.66666667 45.893982,4.15208333 50.2010498,6.8489584 C54.3135681,9.4239584 56.578125,12.78125 56.578125,16.3026041 C56.578125,17.0380208 55.9820252,17.6359375 55.25,17.6359375 L27.359375,17.6359375 C26.6257934,17.6359375 26.03125,18.2328125 26.03125,18.9692708 C26.03125,19.7057292 26.6257934,20.3026041 27.359375,20.3026041 L60.5625,20.3026041 C61.2945252,20.3026041 61.890625,20.9005208 61.890625,21.6359375 C61.890625,22.3708333 61.2945252,22.9692708 60.5625,22.9692708 L55.25,22.9692708 C53.1898498,22.9692708 52.0069885,23.6390625 51.0560303,24.1770833 C50.203125,24.6598959 49.5292053,25.0411459 48.1668396,25.0411459 C46.8039551,25.0411459 46.1300354,24.6598959 45.2771301,24.1770833 C44.3266906,23.6390625 43.1433105,22.9692708 41.0831604,22.9692708 C39.0235291,22.9692708 37.8401489,23.6390625 36.8891906,24.1770833 C36.0362854,24.6598959 35.3628846,25.0411459 34,25.0411459 C32.6371154,25.0411459 31.9637146,24.6598959 31.1108094,24.1770833 C30.1598511,23.6390625 28.9764709,22.9692708 26.9168396,22.9692708 C24.8566895,22.9692708 23.6733094,23.6390625 22.7228699,24.1770833 C21.8699646,24.6598959 21.1960449,25.0411459 19.8331604,25.0411459 C18.4707947,25.0411459 17.796875,24.6598959 16.9439697,24.1770833 C15.9930115,23.6390625 14.8101502,22.9692708 12.75,22.9692708 L7.4375,22.9692708 C6.70547482,22.9692708 6.109375,22.3708333 6.109375,21.6359375 Z M11.421875,29.3333333 L11.421875,26.9692708 C11.421875,26.2343749 12.0179748,25.6359375 12.75,25.6359375 C14.1128846,25.6359375 14.7862854,26.0171875 15.6391906,26.5 C16.5901489,27.0380208 17.7735291,27.7078125 19.8331604,27.7078125 C21.8933105,27.7078125 23.0766906,27.0380208 24.0271301,26.5 C24.8800354,26.0171875 25.5539551,25.6359375 26.9168396,25.6359375 C28.2792053,25.6359375 28.953125,26.0171875 29.8060303,26.5 C30.7569885,27.0380208 31.9398498,27.7078125 34,27.7078125 C36.0601502,27.7078125 37.2430115,27.0380208 38.1939697,26.5 C39.046875,26.0171875 39.7207947,25.6359375 41.0831604,25.6359375 C42.4460449,25.6359375 43.1199646,26.0171875 43.9728699,26.5 C44.9233094,27.0380208 46.1066895,27.7078125 48.1668396,27.7078125 C50.2264709,27.7078125 51.4098511,27.0380208 52.3608094,26.5 C53.2137146,26.0171875 53.8871154,25.6359375 55.25,25.6359375 C55.9820252,25.6359375 56.578125,26.2343749 56.578125,26.9692708 L56.578125,29.3333333 C56.578125,30.0682292 55.9820252,30.6666667 55.25,30.6666667 L12.75,30.6666667 C12.0179748,30.6666667 11.421875,30.0682292 11.421875,29.3333333 Z M11.421875,42.6666667 L11.421875,38.6666667 L43.296875,38.6666667 C44.0304566,38.6666667 44.625,38.0692708 44.625,37.3333333 C44.625,36.5968749 44.0304566,36 43.296875,36 L7.4375,36 C6.70495605,36 6.109375,35.4015625 6.109375,34.6661459 C6.109375,33.93125 6.70495605,33.3333333 7.4375,33.3333333 L60.5625,33.3333333 C61.2945252,33.3333333 61.890625,33.93125 61.890625,34.6666667 C61.890625,35.4015625 61.2945252,36 60.5625,36 L55.25,36 C54.5164184,36 53.921875,36.5968749 53.921875,37.3333333 C53.921875,38.0692708 54.5164184,38.6666667 55.25,38.6666667 L56.578125,38.6666667 L56.578125,42.6666667 C56.578125,44.8718749 54.7908631,46.6666667 52.59375,46.6666667 L15.40625,46.6666667 C13.2091369,46.6666667 11.421875,44.8718749 11.421875,42.6666667 Z M63.3515625,53.3333333 L4.6484375,53.3333333 C3.55014041,53.3333333 2.65625,52.4359375 2.65625,51.3333333 C2.65625,50.2302083 3.55014041,49.3333333 4.6484375,49.3333333 L63.3515625,49.3333333 C64.4503785,49.3333333 65.34375,50.2302083 65.34375,51.3333333 C65.34375,52.4359375 64.4498596,53.3333333 63.3515625,53.3333333 Z" id="Shape"></path>
                        <path d="M43.5,11 C44.3285157,11 45,10.3274751 45,9.49970711 C45,8.67135318 44.3285157,8 43.5,8 C42.6714843,8 42,8.67135318 42,9.49970711 L42,9.50087868 C42,10.3286468 42.6714843,11 43.5,11 Z" id="Path"></path>
                        <path d="M34.5,14 C35.3285157,14 36,13.328061 36,12.4997071 C36,11.6713532 35.3285157,11 34.5,11 C33.6714843,11 33,11.6713532 33,12.4997071 L33,12.5008787 C33,13.3286468 33.6714843,14 34.5,14 Z" id="Path"></path>
                        <path d="M25.5,11 C26.3285157,11 27,10.328061 27,9.49970711 C27,8.67135318 26.3285157,8 25.5,8 C24.6714843,8 24,8.67135318 24,9.49970711 L24,9.50087868 C24,10.3286468 24.6714843,11 25.5,11 Z" id="Path"></path>
                        <path d="M49.5002929,36 L49.4991213,36 C48.6707674,36 48,36.6714843 48,37.5 C48,38.3279296 48.6719391,39 49.5002929,39 C50.328061,39 51,38.3279296 51,37.5 C51,36.6714843 50.328061,36 49.5002929,36 L49.5002929,36 Z" id="Path"></path>
                    </g>
                </g>
            </g>
        </g>
    </g>
</svg>