<?xml version="1.0" encoding="UTF-8"?>
<svg width="18px" height="24px" viewBox="0 0 18 24" version="1.1" xmlns="http://www.w3.org/2000/svg" xmlns:xlink="http://www.w3.org/1999/xlink">
    <title>name</title>
    <g id="Page-1" stroke="none" stroke-width="1" fill="none" fill-rule="evenodd">
        <g id="Book-a-table" transform="translate(-280.000000, -578.000000)" fill="#A66D03" fill-rule="nonzero">
            <g id="book" transform="translate(145.000000, 187.000000)">
                <g id="form" transform="translate(130.000000, 237.000000)">
                    <g id="name" transform="translate(5.000000, 154.000000)">
                        <path d="M9.50007557,13 C10.8808293,13 12,11.6566731 12,10 C12,8.34314556 10.8808293,7 9.50007557,7 C8.11917066,7 7,8.34314556 7,10 C7.00166229,11.6559478 8.11992627,12.997824 9.50007557,13 Z M9.50007557,8.16634429 C10.3466316,8.16634429 11.0328528,8.9897848 11.0328528,10.0058027 C11.0328528,11.0216392 10.3466316,11.8452611 9.50007557,11.8452611 C8.65336839,11.8452611 7.96714722,11.0216392 7.96714722,10.0058027 C7.96729833,8.98996617 8.6535195,8.16670694 9.50007557,8.16634429 Z" id="Shape"></path>
                        <path d="M9.00007873,14.0001149 C7.93440911,13.9916417 6.91171896,14.4520771 6.16878875,15.2744891 C5.41310637,16.104188 5,17.2321448 5,18.4577131 C5.00078716,18.7568182 5.22576009,18.9991527 5.50378825,19 L12.4962117,19 C12.7742399,18.9991527 12.9992128,18.7568182 13,18.4577131 C13,17.2321448 12.5868936,16.104188 11.8312113,15.2744891 C11.0884385,14.4520771 10.0655909,13.9916417 9.00007873,14.0001149 Z M6.04284168,17.9154262 C6.128958,17.2063861 6.4260356,16.5464907 6.88920595,16.0336907 C7.44667913,15.4264989 8.20692708,15.0846887 9.00007873,15.0846887 C9.79307292,15.0846887 10.5533209,15.4264989 11.110794,16.0336907 C11.5730198,16.5469992 11.8697826,17.206725 11.9571583,17.9154262 L6.04284168,17.9154262 Z" id="Shape"></path>
                        <path d="M15.3529412,0 L2.64705882,0 C1.18538602,0.000660792952 0.000496334118,1.18364536 0,2.64317181 L0,21.3568282 C0.000496334118,22.8163546 1.18538602,23.9993392 2.64705882,24 L15.3529412,24 C16.814614,23.9993392 17.9993382,22.8163546 18,21.3568282 L18,2.64317181 C17.9993382,1.18364536 16.814614,0.000660792952 15.3529412,0 Z M16.9411765,21.3568282 C16.9386948,22.2315529 16.2289522,22.9402533 15.3529412,22.9427313 L2.64705882,22.9427313 C1.77104778,22.9402533 1.06130512,22.2315529 1.05882353,21.3568282 L1.05882353,2.64317181 C1.06130512,1.76844713 1.77104778,1.05974671 2.64705882,1.05726872 L15.3529412,1.05726872 C16.2289522,1.05974671 16.9386948,1.76844713 16.9411765,2.64317181 L16.9411765,21.3568282 Z" id="Shape"></path>
                        <path d="M7.5,4 L11.5,4 C11.7760937,4 12,3.77609376 12,3.5 C12,3.22390624 11.7760937,3 11.5,3 L7.5,3 C7.22375,3 7,3.22390624 7,3.5 C7,3.77609376 7.22375,4 7.5,4 L7.5,4 Z" id="Path"></path>
                    </g>
                </g>
            </g>
        </g>
    </g>
</svg>