<?xml version="1.0" encoding="UTF-8"?>
<svg width="61px" height="70px" viewBox="0 0 61 70" version="1.1" xmlns="http://www.w3.org/2000/svg" xmlns:xlink="http://www.w3.org/1999/xlink">
    <title>salad</title>
    <g id="Page-1" stroke="none" stroke-width="1" fill="none" fill-rule="evenodd">
        <g id="Navigation" transform="translate(-689.000000, -353.000000)" fill="#A66D03" fill-rule="nonzero">
            <g id="Items" transform="translate(402.000000, 353.000000)">
                <g id="Salads" transform="translate(229.000000, 0.000000)">
                    <g id="salad" transform="translate(58.000000, 0.000000)">
                        <path d="M0,45.25 C0,56.2189643 10.2362692,63.1642857 12.9038462,64.7848214 L12.9038462,68.8214286 C12.9038462,69.4723356 13.4290506,70 14.0769231,70 L46.9230769,70 C47.5709494,70 48.0961538,69.4723356 48.0961538,68.8214286 L48.0961538,64.7848214 C50.7637308,63.1642857 61,56.2189643 61,45.25 C61,44.599093 60.4747956,44.0714286 59.8269231,44.0714286 L48.0656538,44.0714286 C48.842004,43.0573988 49.2649176,41.8150174 49.2692308,40.5357143 L49.2692308,37 L45.75,37 C42.9065084,37.0068349 40.477453,39.0618055 39.9866731,41.87575 C38.9136878,40.3206546 37.1585898,39.382671 35.2753707,39.3578712 C33.3921517,39.3330714 31.6131863,40.2245154 30.5,41.7508214 C29.530107,40.4129421 28.0391918,39.5531412 26.400155,39.386468 C24.7611182,39.2197947 23.1289586,39.7620109 21.9119038,40.8775 C21.0734669,38.5558487 18.8812977,37.0072234 16.4230769,37 L12.9038462,37 L12.9038462,40.5357143 C12.9081593,41.8150174 13.3310729,43.0573988 14.1074231,44.0714286 L1.17307692,44.0714286 C0.525204428,44.0714286 0,44.599093 0,45.25 Z M42.2307692,42.8928571 C42.2307692,40.9401361 43.8063825,39.3571429 45.75,39.3571429 L46.9230769,39.3571429 L46.9230769,40.5357143 C46.9230769,42.4884354 45.3474636,44.0714286 43.4038462,44.0714286 L42.2307692,44.0714286 L42.2307692,42.8928571 Z M35.1923077,41.7142857 C36.6832753,41.7161132 38.0119699,42.6598516 38.5109423,44.0714286 L31.8736731,44.0714286 C32.3726455,42.6598516 33.7013401,41.7161132 35.1923077,41.7142857 L35.1923077,41.7142857 Z M25.8076923,41.7142857 C27.2986599,41.7161132 28.6273545,42.6598516 29.1263269,44.0714286 L22.4890577,44.0714286 C22.9880301,42.6598516 24.3167247,41.7161132 25.8076923,41.7142857 L25.8076923,41.7142857 Z M15.25,39.3571429 L16.4230769,39.3571429 C18.3666944,39.3571429 19.9423077,40.9401361 19.9423077,42.8928571 L19.9423077,44.0714286 L18.7692308,44.0714286 C16.8256133,44.0714286 15.25,42.4884354 15.25,40.5357143 L15.25,39.3571429 Z M58.60575,46.4285714 C58.5354975,47.2240344 58.4005338,48.0123825 58.2022115,48.7857143 L32.8461538,48.7857143 L32.8461538,51.1428571 L57.4268077,51.1428571 C54.6372308,57.8748571 47.9248846,62.1448214 46.6063462,62.9285714 L41.0576923,62.9285714 L41.0576923,65.2857143 L45.75,65.2857143 L45.75,67.6428571 L15.25,67.6428571 L15.25,65.2857143 L30.5,65.2857143 L30.5,62.9285714 L14.3936538,62.9285714 C13.0751154,62.1448214 6.36276923,57.8748571 3.57319231,51.1428571 L16.4230769,51.1428571 L16.4230769,48.7857143 L2.79778846,48.7857143 C2.59946621,48.0123825 2.46450247,47.2240344 2.39425,46.4285714 L58.60575,46.4285714 Z" id="Shape"></path>
                        <polygon id="Path" points="19 49 21 49 21 51 19 51"></polygon>
                        <polygon id="Path" points="23 49 25 49 25 51 23 51"></polygon>
                        <polygon id="Path" points="28 49 30 49 30 51 28 51"></polygon>
                        <path d="M7.12864132,17.1550047 C6.94720478,17.5223062 6.95829047,17.959176 7.15810729,18.3162138 C7.35792412,18.6732515 7.7193978,18.9020803 8.11891195,18.9244454 C8.42888913,18.9427247 9.55048597,19 11.0329341,19 C13.9812667,19 18.3505253,18.7745547 20.5676904,17.5668993 C22.041979,16.6779204 23.1296447,15.2410167 23.6071232,13.5515364 C24.1874282,11.9444195 24.1227196,10.1654685 23.4272891,8.60758279 C21.9673202,5.76331664 17.5542862,5.34045445 14.7301811,6.87957533 C11.3571087,8.71604024 7.55219793,16.2958755 7.12864132,17.1550047 L7.12864132,17.1550047 Z M16.4658167,16.2288512 C15.1439607,16.4055969 13.8137453,16.5081129 12.4810718,16.5359442 L16.4658167,14.14135 L16.4658167,16.2288512 Z M21.3568308,12.7959901 C21.063616,13.8795771 20.3886503,14.8116073 19.4638403,15.4099366 C19.2598711,15.5130935 19.0491579,15.6014555 18.8332379,15.6743777 L18.8332379,12.7192169 L21.617117,11.0460475 C21.626068,11.6402564 21.5380826,12.2317954 21.3568308,12.7959901 L21.3568308,12.7959901 Z M15.8352143,9.03410085 C17.2817328,8.28045189 18.9803717,8.23571619 20.4623928,8.91223855 L17.939983,10.4282056 L14.988101,9.66900345 C15.2469487,9.42593102 15.5310377,9.2130093 15.8352143,9.03410085 L15.8352143,9.03410085 Z M15.0141297,12.1903345 L11.4127153,14.354609 C11.966415,13.452828 12.572172,12.5449538 13.1873939,11.719946 L15.0141297,12.1903345 Z" id="Shape"></path>
                        <path d="M43.8821825,26.9244285 C44.2810369,26.9016893 44.6418255,26.6731577 44.8415295,26.3167567 C45.0412336,25.9603556 45.0528878,25.5242087 44.8725184,25.1570297 C44.4489339,24.3038028 40.6437723,16.7161771 37.2704777,14.8793014 C34.4485528,13.341055 30.0328616,13.7627929 28.5727965,16.6064765 C27.8772575,18.1642666 27.8125414,19.943268 28.3929506,21.5503174 C28.8701327,23.2403484 29.9579554,24.6776863 31.4325837,25.5665787 C33.6498949,26.7745043 38.0206246,27 40.9679683,27 C42.4505142,27 43.5721849,26.9427119 43.8821825,26.9244285 L43.8821825,26.9244285 Z M33.1683337,23.6772904 C32.9523643,23.6039673 32.7416357,23.5151777 32.5376897,23.4115711 C31.6128188,22.813108 30.9378086,21.8808693 30.6445745,20.7970399 C30.4637995,20.2330464 30.3762091,19.6417926 30.3854543,19.0479246 L33.1683337,20.7202495 L33.1683337,23.6772904 Z M34.0604642,18.4360389 L31.5402546,16.9209516 C32.2033797,16.5896795 32.9331673,16.4246998 33.6700092,16.4394878 C34.5360782,16.4312025 35.3915618,16.6359604 36.1653717,17.0367467 C36.470921,17.2162336 36.7562332,17.4300312 37.0160903,17.6742291 L34.0580978,18.4348201 L34.0604642,18.4360389 Z M35.5347277,24.230669 L35.5347277,22.1427007 L39.5197352,24.5378307 C38.1869781,24.5099018 36.8566799,24.4073633 35.5347277,24.230669 Z M36.9865104,20.1912487 L38.8133666,19.720755 C39.428629,20.5459474 40.0344259,21.4540247 40.5881621,22.3560075 L36.9865104,20.1912487 Z" id="Shape"></path>
                        <path d="M50.8,9 C51.4627417,9 52,8.49632034 52,7.875 C51.9947096,3.52781363 48.2369988,0.00495971547 43.6,0 L41.2,0 C40.5372583,0 40,0.503679656 40,1.125 C40.0052904,5.47218637 43.7630012,8.99504028 48.4,9 L50.8,9 Z M42.52,2.25 L43.6,2.25 C46.4502864,2.25293879 48.9063016,4.13254225 49.48,6.75 L48.4,6.75 C45.5497136,6.74706121 43.0936984,4.86745775 42.52,2.25 L42.52,2.25 Z" id="Shape"></path>
                        <path d="M21.4,22 C16.7630012,22.0049597 13.0052904,25.5278136 13,29.875 C13,30.4963203 13.5372583,31 14.2,31 L16.6,31 C21.2369988,30.9950403 24.9947096,27.4721864 25,23.125 C25,22.5036797 24.4627417,22 23.8,22 L21.4,22 Z M16.6,28.75 L15.52,28.75 C16.0936984,26.1325423 18.5497136,24.2529388 21.4,24.25 L22.48,24.25 C21.9063016,26.8674577 19.4502864,28.7470612 16.6,28.75 L16.6,28.75 Z" id="Shape"></path>
                        <path d="M31.5,10 C33.4329966,10 35,8.43299662 35,6.5 C35,4.56700338 33.4329966,3 31.5,3 C29.5670034,3 28,4.56700338 28,6.5 C28,8.43299662 29.5670034,10 31.5,10 Z M31.5,5.33333333 C32.1443322,5.33333333 32.6666667,5.85566779 32.6666667,6.5 C32.6666667,7.14433221 32.1443322,7.66666667 31.5,7.66666667 C30.8556678,7.66666667 30.3333333,7.14433221 30.3333333,6.5 C30.3333333,5.85566779 30.8556678,5.33333333 31.5,5.33333333 Z" id="Shape"></path>
                        <path d="M50.5,19 C52.4329966,19 54,17.4329966 54,15.5 C54,13.5670034 52.4329966,12 50.5,12 C48.5670034,12 47,13.5670034 47,15.5 C47,17.4329966 48.5670034,19 50.5,19 Z M50.5,14.3333333 C51.1443322,14.3333333 51.6666667,14.8556678 51.6666667,15.5 C51.6666667,16.1443322 51.1443322,16.6666667 50.5,16.6666667 C49.8556678,16.6666667 49.3333333,16.1443322 49.3333333,15.5 C49.3333333,14.8556678 49.8556678,14.3333333 50.5,14.3333333 Z" id="Shape"></path>
                        <path d="M26.5,37 C28.4329966,37 30,35.4329966 30,33.5 C30,31.5670034 28.4329966,30 26.5,30 C24.5670034,30 23,31.5670034 23,33.5 C23,35.4329966 24.5670034,37 26.5,37 Z M26.5,32.3333333 C27.1443322,32.3333333 27.6666667,32.8556678 27.6666667,33.5 C27.6666667,34.1443322 27.1443322,34.6666667 26.5,34.6666667 C25.8556678,34.6666667 25.3333333,34.1443322 25.3333333,33.5 C25.3333333,32.8556678 25.8556678,32.3333333 26.5,32.3333333 Z" id="Shape"></path>
                        <polygon id="Path" points="42 11 44 11 44 13 42 13"></polygon>
                        <polygon id="Path" points="23 0 25 0 25 2 23 2"></polygon>
                        <polygon id="Path" points="10 22 12 22 12 24 10 24"></polygon>
                        <polygon id="Path" points="37 31 39 31 39 33 37 33"></polygon>
                    </g>
                </g>
            </g>
        </g>
    </g>
</svg>