<?xml version="1.0" encoding="UTF-8"?>
<svg width="26px" height="7px" viewBox="0 0 26 7" version="1.1" xmlns="http://www.w3.org/2000/svg" xmlns:xlink="http://www.w3.org/1999/xlink">
    <title>Shape</title>
    <g id="Page-1" stroke="none" stroke-width="1" fill="none" fill-rule="evenodd">
        <g id="Homepage---restaurant" transform="translate(-148.000000, -98.000000)" fill="#000000" fill-rule="nonzero">
            <g id="navigation" transform="translate(145.857864, 78.857864)">
                <g id="menu-icon" transform="translate(0.000000, 0.000000)">
                    <path d="M18.900583,20.9941298 L20.1004735,20.9183493 C20.102499,20.9181941 20.1046804,20.9180388 20.1068617,20.9178835 C20.9619453,20.8459853 21.7294639,20.399533 22.2127855,19.6926631 L23.1613549,18.3056329 C23.9869905,17.0981153 24.3068678,15.6396527 24.0617792,14.1990482 C24.013634,13.9161139 23.8684194,13.6553857 23.6530903,13.4651583 C23.4376056,13.2747754 23.1605759,13.1623471 22.8729512,13.1486818 C21.4080284,13.0788023 19.9940554,13.5702881 18.8902996,14.5319851 L17.6223203,15.6368575 C16.9761775,16.1997756 16.6234243,17.012707 16.6542746,17.8675661 C16.6544304,17.8695848 16.6544304,17.8717589 16.6545862,17.8739329 L16.7229867,19.0701145 C16.7496301,19.5364436 16.5780837,19.9965612 16.2532205,20.3316722 L6.34715163,30.4741367 C6.08196351,30.7497724 5.94500678,31.1278981 5.96167842,31.5389448 C5.98006395,31.9914533 6.18838154,32.4358869 6.5190097,32.7279832 C6.81769687,32.9918171 7.22825543,33.1421356 7.63865819,33.1421356 C7.68259651,33.1421356 7.72653486,33.1404274 7.77031737,33.1368558 C8.18181077,33.1040901 8.54219863,32.9233352 8.78619659,32.6261144 L17.6996019,21.6109328 C17.9951729,21.2484911 18.4329981,21.0236345 18.900583,20.9941298 Z M17.2237591,21.2270614 L8.31113284,32.2413114 C8.17495515,32.4071586 7.96554691,32.509338 7.72154895,32.528749 C7.43127548,32.5518869 7.13367898,32.4556084 6.92520558,32.2714372 C6.71673219,32.0871106 6.58522885,31.8041763 6.57354311,31.5142541 C6.56357129,31.2706076 6.64007386,31.051186 6.78746981,30.8980723 L16.6927596,20.7563842 C17.1368173,20.2984406 17.3705318,19.6712334 17.334384,19.0354853 L17.2659835,17.8424095 C17.2427679,17.1732745 17.5193301,16.5370606 18.0252441,16.0961987 L19.2932235,14.9913263 C20.2773175,14.1339826 21.5384412,13.6962264 22.8438148,13.7580309 C22.9924572,13.7651742 23.1354906,13.8232518 23.2468945,13.9217042 C23.3582984,14.0200014 23.4332429,14.1547912 23.4581724,14.3009169 C23.6766176,15.585302 23.3914859,16.8853711 22.6554409,17.9618258 L21.7068714,19.3490113 C21.3284097,19.9024569 20.7277633,20.2523202 20.0584049,20.3096213 L18.8617864,20.3850912 C18.2242131,20.425466 17.627462,20.732004 17.2237591,21.2270614 Z" id="Shape" transform="translate(15.051227, 23.142136) rotate(48.000000) translate(-15.051227, -23.142136) "></path>
                </g>
            </g>
        </g>
    </g>
</svg>