<?xml version="1.0" encoding="UTF-8"?>
<svg width="82px" height="66px" viewBox="0 0 82 66" version="1.1" xmlns="http://www.w3.org/2000/svg" xmlns:xlink="http://www.w3.org/1999/xlink">
    <title>canape</title>
    <g id="Page-1" stroke="none" stroke-width="1" fill="none" fill-rule="evenodd">
        <g id="Navigation" transform="translate(-449.000000, -358.000000)" fill="#A66D03" fill-rule="nonzero">
            <g id="Items" transform="translate(402.000000, 353.000000)">
                <g id="Starters" transform="translate(0.000000, 5.000000)">
                    <g id="canape" transform="translate(47.000000, 0.000000)">
                        <path d="M74.9372695,30.5162654 C70.6377148,27.0227464 64.6664492,24.2785587 57.6575313,22.5713061 L45.0831836,13.3214798 L43.6103867,15.3847825 L50.0669258,20.1343945 C49.184625,19.9059696 48.2635664,19.7089227 47.3051914,19.546993 C46.3026133,17.3721604 44.4524883,15.7783887 42.2549844,15.3324318 L42.2549844,0 L39.7448555,0 L39.7448555,15.3325943 C37.5471914,15.7785513 35.6970664,17.372323 34.6946484,19.5471556 C33.7362734,19.7090853 32.8152148,19.9061322 31.9329141,20.1345571 L38.3894531,15.3849451 L36.9166562,13.3216424 L9.99375,33.1264872 L11.938207,34.556866 C11.5863437,35.5443769 11.4080898,36.5539987 11.4080898,37.5704489 C11.4080898,37.5797159 11.4085703,37.5888204 11.4085703,37.5980875 L11.4085703,43.3761806 C11.4085703,47.7258458 14.6025664,51.742222 20.4018242,54.6858954 C25.9248125,57.4890998 33.2399492,59.0329594 41,59.0329594 C48.7600508,59.0329594 56.0753477,57.4890998 61.5981758,54.6858954 C67.3974336,51.742222 70.5914297,47.7255206 70.5914297,43.3761806 L70.5914297,37.5932101 C70.5914297,37.5855688 70.5919102,37.5780901 70.5919102,37.5704489 C70.5919102,36.5538361 70.4136563,35.5440518 70.061793,34.556866 L72.00625,33.1264872 L63.9494297,27.199796 C73.5836289,30.9693758 79.4897109,36.9302088 79.4897109,43.3210659 C79.4897109,48.5437857 75.5923086,53.5190588 68.5158047,57.3305843 C61.1867344,61.277864 51.4146406,63.4517211 41,63.4517211 C30.5853594,63.4517211 20.8132656,61.2777014 13.4841953,57.3304217 C6.40753125,53.5190588 2.51028906,48.5437857 2.51028906,43.3209034 C2.51028906,37.4486765 7.49579297,31.8596639 16.1881133,27.987171 L15.1794492,25.6536603 C5.53259766,29.9514625 0,36.390931 0,43.3210659 C0,49.5324347 4.37098437,55.3071136 12.3076875,59.5816669 C19.9927852,63.7206284 30.1825664,66 41,66 C51.8174336,66 62.0072148,63.7206284 69.6923125,59.5816669 C77.6290156,55.306951 82,49.5321095 82,43.3210659 C82,38.6984289 79.5577773,34.2707253 74.9372695,30.5162654 Z M41,17.752435 C43.5375156,17.752435 45.6020898,20.2291787 45.6020898,23.2734891 C45.6020898,26.3179621 43.5375156,28.7945432 41,28.7945432 C38.4624844,28.7945432 36.3979102,26.3177996 36.3979102,23.2734891 C36.3979102,20.2291787 38.4624844,17.752435 41,17.752435 Z M33.9431953,22.2815886 C33.9079609,22.6069111 33.8874609,22.9374363 33.8874609,23.2734891 C33.8877813,23.8587771 33.9443164,24.4292703 34.0492187,24.9796036 C33.4982812,24.8519783 32.9135508,24.8903472 32.540707,25.1104805 C31.9982578,25.4306005 32.1113281,26.0131246 32.7940742,26.4130714 C33.1364883,26.6136951 33.9430352,26.795297 34.6611758,26.9263365 C35.6557461,29.1385625 37.5225273,30.763387 39.7446953,31.2143839 L39.7446953,33.7872123 L42.2548242,33.7872123 L42.2548242,31.2143839 C44.4793945,30.7630618 46.3477773,29.1351483 47.3415469,26.9193455 C48.0492773,26.7889564 48.833082,26.610281 49.1679688,26.4127463 C49.8451094,26.0131246 49.9516133,25.4294625 49.4056406,25.109505 C49.044168,24.8976633 48.4857031,24.8558802 47.9528633,24.9677353 C48.0561641,24.4211413 48.1118984,23.8547126 48.1118984,23.2736517 C48.1118984,22.9375988 48.0915586,22.6070737 48.0561641,22.2815886 C54.4894805,23.6292141 58.9893906,26.7676584 58.9893906,30.0688452 C58.9893906,32.1397892 57.187793,34.2421112 54.0463281,35.8363706 C50.5824687,37.5946733 45.9489883,38.5628372 40.9996797,38.5628372 C36.0503711,38.5628372 31.4168906,37.5946733 27.9530312,35.8363706 C24.8114062,34.2421112 23.0099687,32.1397892 23.0099687,30.0688452 C23.0099687,26.7674958 27.5097188,23.6290516 33.9431953,22.2815886 Z M41,43.6590697 C36.0505312,43.6590697 31.4170508,42.6907433 27.9531914,40.9324406 C24.9585898,39.4124802 23.1826172,37.4311178 23.0232617,35.4551205 C26.4797539,38.8541805 33.1601914,41.1107909 41,41.1107909 C48.8398086,41.1107909 55.5202461,38.8543431 58.9767383,35.4551205 C58.8173828,37.4309552 57.0415703,39.4124802 54.0468086,40.9324406 C50.5829492,42.6907433 45.9494687,43.6590697 41,43.6590697 Z M52.4199414,44.3875907 L41,52.7880991 L29.5800586,44.3875907 C32.8240234,45.5409332 36.7406445,46.2073486 41,46.2073486 C45.2593555,46.2073486 49.1758164,45.5407706 52.4199414,44.3875907 Z M20.7344688,28.372323 C20.5821602,28.9257453 20.5,29.4920114 20.5,30.0686827 L20.5,35.1650778 C20.5,36.2597289 20.7826758,37.3124344 21.3095898,38.3040098 L14.2715234,33.1264872 L20.7344688,28.372323 Z M60.4754805,52.4068491 C55.2944258,55.0365805 48.3777578,56.4850057 41,56.4850057 C33.6222422,56.4850057 26.7055742,55.0367431 21.5245195,52.4068491 C16.9321992,50.0759396 14.2718437,47.1160082 13.9516914,44.0115432 C17.0686523,47.7414535 22.8816836,50.7205693 30.445543,52.2210201 L30.9269727,49.7202146 C20.7690625,47.7053607 13.9395195,42.834464 13.9182188,37.5945107 L13.9182188,37.5710992 L13.9182188,37.5710992 L13.9182188,37.5704489 C13.9182188,37.0924637 13.9752344,36.6138282 14.0876641,36.1377939 L41,55.9349976 L44.8568828,53.0979766 C51.7285469,52.6331604 58.0721758,50.9208679 62.7538633,48.2602462 C64.9697852,47.0010642 66.7491211,45.5641821 68.0489492,44.0087793 C67.7295977,47.1142198 65.0692422,50.0752893 60.4754805,52.4068491 Z M68.0817812,37.5706114 L68.0817812,37.5712618 L68.0813008,37.5712618 L68.0813008,37.590121 C68.0628828,43.2945654 59.9701875,48.3995773 48.9483945,50.0879706 L67.9124961,36.1379565 C68.0247656,36.6139907 68.0817812,37.0927888 68.0817812,37.5706114 Z M67.7284766,33.1264872 L60.69025,38.3038472 C61.2171641,37.3122718 61.5,36.2598915 61.5,35.1649152 L61.5,30.0686827 C61.5,29.4918488 61.4178398,28.9255827 61.2655312,28.372323 L67.7284766,33.1264872 Z" id="Shape"></path>
                        <path d="M33.6203417,33.9742057 C32.904486,34.5114949 32.7918928,35.2969824 33.3677266,35.7262452 C33.9447455,36.15682 34.9943173,36.0700053 35.7103423,35.5324974 C36.4272139,34.9943335 37,33 37,33 C37,33 34.3373825,33.4360418 33.6203417,33.9742057 Z" id="Path"></path>
                        <path d="M30.7823715,29 C29.7949224,28.9996032 28.9985236,29.4476873 29,29.9994045 C29.001152,30.2356562 29.1485055,30.452849 29.3937661,30.6239826 C29.7223134,30.8532857 30.2266336,31 30.7904209,31 C31.7768843,30.9992059 34,29.999206 34,29.999206 C34,29.999206 31.7675207,28.9998017 30.7823715,29 Z" id="Path"></path>
                        <path d="M52.6067972,29.3760918 C52.2783389,29.1467433 51.7740673,29 51.2099865,29 C50.2234612,29.0007943 48,30.000992 48,30.000992 C48,30.000992 50.2328269,31.0007926 51.2195165,31 C52.2060419,31.0009912 53.002459,30.553017 53,30.0001977 C52.9990084,29.7640979 52.8519498,29.5470607 52.6067972,29.3760918 Z" id="Path"></path>
                        <path d="M48.3728026,33.9734705 C47.6552855,33.4359835 45,33 45,33 C45,33 45.5890519,34.9944113 46.306569,35.5316795 C47.0252663,36.0700415 48.0684985,36.1568881 48.6393427,35.7263736 C49.2103555,35.295859 49.0899826,34.5111762 48.3728026,33.9734705 Z" id="Path"></path>
                        <path d="M41.4897329,35 C41.4897329,35 39.9979326,36.337191 40,36.9290206 C40.0017268,37.2674035 40.223686,37.5698715 40.5684384,37.7661267 C40.8257524,37.9128501 41.151534,38.0003394 41.505427,38 C42.3344541,38 43.003436,37.5208502 43,36.9281696 C42.9965375,36.3370208 41.4897329,35 41.4897329,35 Z" id="Path"></path>
                        <circle id="Oval" cx="38.5" cy="21.5" r="1.5"></circle>
                    </g>
                </g>
            </g>
        </g>
    </g>
</svg>